<?xml version="1.0" encoding="UTF-8"?>
<svg width="49px" height="32px" viewBox="0 0 49 32" version="1.1" xmlns="http://www.w3.org/2000/svg" xmlns:xlink="http://www.w3.org/1999/xlink">
    <!-- Generator: Sketch 48.2 (47327) - http://www.bohemiancoding.com/sketch -->
    <title>handshake</title>
    <desc>Created with Sketch.</desc>
    <defs></defs>
    <g id="Home_aliens" stroke="none" stroke-width="1" fill="none" fill-rule="evenodd" transform="translate(-623.000000, -866.000000)">
        <g id="Why-standards-?" transform="translate(120.000000, 690.000000)" fill="#656565" fill-rule="nonzero">
            <g id="Text" transform="translate(500.000000, 78.000000)">
                <g id="handshake" transform="translate(3.000000, 98.000000)">
                    <path d="M32.6033548,6.27708927 L20.3697511,1.98575121 C19.2107782,1.58280867 17.9131246,1.66339718 16.8036804,2.20736961 L16.1895238,2.50957651 C15.3574406,2.92259262 14.3767712,2.983034 13.505065,2.66067997 L12.4550553,2.27788455 C12.4055265,2.24766386 12.3559978,2.21744317 12.306469,2.19729604 L6.04603378,0.031479886 C5.89744751,-0.0188879316 5.72904972,-0.00881436808 5.59036919,0.0617005766 C5.45168867,0.132215521 5.34272539,0.253098284 5.29319664,0.404201736 L0.0332423392,16.0081516 C-0.0757209325,16.3204321 0.092676851,16.6629333 0.399755162,16.7737425 L6.67009616,18.9597057 C6.73943642,18.9899264 6.79887093,19 6.8682112,19 C6.95736297,19 7.04651473,18.9798529 7.12576075,18.9395586 C7.26444128,18.8690437 7.37340455,18.7481609 7.42293331,18.5970575 L12.4847726,3.58744781 L13.1187407,3.81913977 C14.2876194,4.24222944 15.6050844,4.16164093 16.7244344,3.60759494 L17.338591,3.30538803 C18.1607684,2.89237193 19.1315321,2.83193055 19.9933326,3.13413745 L31.7712717,7.2642985 C31.6821199,7.7881238 31.4344761,8.65445026 30.7906022,9.10776062 C30.2160686,9.51070316 29.3839854,9.53085029 28.3339757,9.15812844 L23.1928904,7.37510769 C23.0343984,7.32473988 22.8660006,7.33481344 22.7174143,7.41540195 C22.5688281,7.49599046 22.4697706,7.63702035 22.4202418,7.79819736 C22.410336,7.82841805 21.6475931,10.6893101 19.2702127,11.9787262 C17.7645384,12.8047584 15.902257,12.8349791 13.7328973,12.0794619 C13.425819,11.9686527 13.0890234,12.1399032 12.9800602,12.4521837 C12.8710969,12.7644642 13.0394947,13.1069653 13.346573,13.2177745 C14.505546,13.6207171 15.6050844,13.8221883 16.6253769,13.8221883 C17.7942556,13.8221883 18.8640768,13.5602757 19.8348405,13.0263768 C21.9546714,11.867917 22.9749639,9.75246869 23.3612882,8.70481808 L27.9278399,10.2964411 C29.3641739,10.8001193 30.5429584,10.7296043 31.4542876,10.0949698 C32.9203389,9.06746637 32.9896791,6.95201803 32.9995849,6.86135595 C33.0094906,6.5994433 32.8410929,6.35767778 32.6033548,6.27708927 Z M6.50169838,17.6199218 L1.35070735,15.8268275 L6.22433732,1.37126383 L11.2366478,3.11399032 C11.2762708,3.13413745 11.3158938,3.15428458 11.3555168,3.17443171 L11.3753283,3.18450527 L6.50169838,17.6199218 Z" id="Shape"></path>
                    <path d="M48.9419846,15.123538 L41.7455705,0.333950301 C41.6757992,0.192809042 41.5561912,0.081912338 41.4066812,0.0315047454 C41.2571712,-0.0189028472 41.0877266,-0.00882132871 40.9481839,0.061749301 L34.9578171,3.02571575 C34.6587971,3.17693853 34.5391892,3.52979167 34.6787318,3.83223723 L41.6558645,18.2488087 L39.3135414,20.4163352 C37.3300422,22.2612531 35.0873924,23.8037254 32.6653307,25.0034261 L21.192931,30.6793211 C20.8739764,30.8406254 20.5151524,30.8607884 20.1762631,30.7398102 C19.8373738,30.618832 19.5682558,30.3768755 19.4087785,30.0542669 C19.2493012,29.7316583 19.2293665,29.3687237 19.3489745,29.025952 C19.4685825,28.6831804 19.7077985,28.4109794 20.0267531,28.2496751 L26.4357479,25.0739968 C26.7347678,24.922774 26.8543758,24.5699208 26.7148332,24.2674753 C26.5653232,23.9650297 26.2064992,23.8440515 25.9174466,23.9851928 L19.6479945,27.0903005 L16.4883501,28.6529358 C15.8305061,28.9755444 15.0231522,28.7033434 14.7041976,28.0379632 C14.3852429,27.372583 14.6543609,26.5660615 15.3122048,26.2333714 L24.52202,21.676525 C24.82104,21.5253022 24.940648,21.1724491 24.8011053,20.8700035 C24.6515954,20.567558 24.2927714,20.4465798 24.0037187,20.587721 L17.1860633,23.9650297 L14.7939036,25.1445674 L13.667595,25.6990509 C13.009751,26.0216595 12.2023971,25.7494585 11.8834425,25.0840783 C11.5644878,24.4186981 11.8336058,23.6020951 12.4914498,23.2794865 L13.6277257,22.7149214 L21.8707096,18.6319064 C22.1697296,18.4806837 22.2893376,18.1278305 22.1497949,17.8253849 C22.0002849,17.5229394 21.641461,17.4019612 21.3524083,17.5431024 L16.0597548,20.1642972 L13.1094244,21.6261174 C12.7904697,21.7874217 12.4316458,21.8075848 12.0927565,21.6866065 C11.7538672,21.5656283 11.4847492,21.3236719 11.3252719,21.0010633 C11.1657945,20.6784547 11.1458599,20.31552 11.2654679,19.9727484 C11.3850759,19.6299768 11.6242918,19.3577758 11.9432465,19.1964715 L16.3189054,17.028945 C16.6179254,16.8777222 16.7375334,16.5248691 16.5979907,16.2224235 C16.4484807,15.9199779 16.0896568,15.7989997 15.8006041,15.940141 L11.4249452,18.1076675 C10.8169379,18.410113 10.3584406,18.934352 10.1391593,19.5795692 C9.91987798,20.2247864 9.95974731,20.9204111 10.2587673,21.5353838 C10.4880159,22.0192967 10.8667746,22.4023944 11.3252719,22.6544323 C10.5677546,23.4105462 10.3385059,24.5900839 10.8269052,25.5982357 C11.2654679,26.5055724 12.1625278,27.0298114 13.099457,27.0298114 C13.2090977,27.0298114 13.3187383,27.0197298 13.428379,27.0096483 C13.3486403,27.5137243 13.4084443,28.0480447 13.6476603,28.5521207 C14.0862229,29.4594573 14.9832829,29.9836963 15.9202121,29.9836963 C16.2890034,29.9836963 16.6677621,29.9030441 17.026586,29.7215768 L18.1130253,29.1771748 C18.0631886,29.6510062 18.1429273,30.1248376 18.3622086,30.5583429 C18.6612285,31.1733155 19.1795298,31.6370653 19.8174391,31.8588587 C20.0865571,31.9495924 20.3656424,32 20.6447277,32 C21.0234863,32 21.402245,31.9092663 21.7511016,31.7378805 L33.2235013,26.0619856 C35.7552037,24.8118773 38.0775922,23.1988343 40.1507973,21.2732643 L42.7522711,18.8536998 L48.6628992,15.9300595 C48.9619192,15.7788367 49.0815272,15.4259835 48.9419846,15.123538 Z M42.6625651,17.5834285 L36.0143544,3.84231875 L40.9382166,1.41267278 L47.57646,15.1537825 L42.6625651,17.5834285 Z" id="Shape"></path>
                </g>
            </g>
        </g>
    </g>
</svg>