<?xml version="1.0" encoding="UTF-8"?>
<svg width="74px" height="67px" viewBox="0 0 74 67" version="1.1" xmlns="http://www.w3.org/2000/svg" xmlns:xlink="http://www.w3.org/1999/xlink">
    <!-- Generator: Sketch 49 (51002) - http://www.bohemiancoding.com/sketch -->
    <title>open-book</title>
    <desc>Created with Sketch.</desc>
    <defs></defs>
    <g id="Steps" stroke="none" stroke-width="1" fill="none" fill-rule="evenodd">
        <g id="Statistical-analysis-1-Copy" transform="translate(-80.000000, -1499.000000)" fill-rule="nonzero">
            <g id="Resources" transform="translate(80.000000, 1395.000000)">
                <g id="Resource-1" transform="translate(0.000000, 85.000000)">
                    <g id="open-book" transform="translate(0.000000, 19.000000)">
                        <path d="M36.8804006,67 C33.1548259,67 30.0813748,65.0004959 29.0378613,62.1703282 C25.3458177,60.6214369 20.1992145,59.1502076 13.968918,59.1502076 C11.2540483,59.1502076 8.50362402,59.438397 5.79395743,60.0068068 L0,61.2223024 L0,6.29056303 L4.80897889,9.40609183e-05 C4.99918164,-0.029174043 25.909633,6.77638457 36.9999277,14.1112322 C48.0900779,6.77638457 69.0005293,-0.0290291514 69.1908766,9.40609183e-05 L73.9810664,6.25042805 L74,61.2223024 L68.2060426,60.0068068 C65.496665,59.4385419 62.7463853,59.1502076 60.0312265,59.1502076 C53.4906221,59.1502076 48.120574,60.8283421 44.6745221,62.2968186 C43.5873602,65.0600463 40.5501864,67 36.8804006,67 Z" id="Shape" fill="#2D404E"></path>
                        <path d="M4.63508693,0 L3,2.19987657 L3,57.7190983 C3,57.7190983 6.94062849,55.2228555 16.6242692,55.866991 C26.3079099,56.5111264 31.7094283,59.9872218 31.7094283,59.9872218 C31.7094283,59.9872218 31.3448395,64 36,64 L36,12.5850365 L4.63508693,0 Z" id="Shape" fill="#253744"></path>
                        <path d="M67.3649131,0 L69,2.19987657 L69,57.7190983 C69,57.7190983 65.0593715,55.2228555 55.3757308,55.866991 C45.6920901,56.5111264 40.2905717,59.9872218 40.2905717,59.9872218 C40.2905717,59.9872218 40.6551605,64 36,64 L36,12.5850365 L67.3649131,0 Z" id="Shape" fill="#253744"></path>
                        <path d="M36,57 L36,63 C37.6568055,63 39,62.0407614 39,60.8571429 L39,59.1428571 C39,57.9592386 37.6566785,57 36,57 Z" id="Shape" fill="#D1D5D5"></path>
                        <path d="M33,59.1428571 L33,60.8571429 C33,62.0407614 34.3426866,63 36,63 L36,57 C34.3426866,57 33,57.9592386 33,59.1428571 Z" id="Shape" fill="#C6CBCB" opacity="0.7"></path>
                        <path d="M37,9.55661869 L37,61 C37,61 23.8101847,51.388798 5,55.3462923 L5,0.228961513 C5,0.228961513 21.5517786,-2.31499751 37,9.55661869 Z" id="Shape" fill="#C6CBCB"></path>
                        <path d="M36,9.55661869 L36,61 C36,61 49.189959,51.388798 68,55.3462923 L68,0.228961513 C67.9998563,0.228961513 51.4480777,-2.31499751 36,9.55661869 Z" id="Shape" fill="#E2E5E7"></path>
                        <path d="M7,2 L7,51.2414042 C7,51.2414042 16.3983356,49.8025268 25,53 C25,53 20.5398192,48.8432272 11.7787344,46.9247721 L9.8408429,2 L7,2 Z" id="Shape" fill="#E2E5E7" opacity="0.7"></path>
                        <polygon id="Shape" fill="#253744" opacity="0.6" points="0 6.2674931 0 61 5 55.0872135 5 0"></polygon>
                        <polygon id="Shape" fill="#253744" opacity="0.6" points="73 6.2674931 73 61 68 55.0872135 68 0"></polygon>
                    </g>
                </g>
            </g>
        </g>
    </g>
</svg>