<?xml version="1.0" encoding="UTF-8"?>
<svg width="27px" height="27px" viewBox="0 0 27 27" version="1.1" xmlns="http://www.w3.org/2000/svg" xmlns:xlink="http://www.w3.org/1999/xlink">
    <!-- Generator: Sketch 49 (51002) - http://www.bohemiancoding.com/sketch -->
    <title>icon copy</title>
    <desc>Created with Sketch.</desc>
    <defs></defs>
    <g id="Steps" stroke="none" stroke-width="1" fill="none" fill-rule="evenodd">
        <g id="Statistical-analysis-1-Copy" transform="translate(-80.000000, -1898.000000)" fill="#5B5B5B" fill-rule="nonzero">
            <g id="Resources" transform="translate(80.000000, 1395.000000)">
                <g id="Title_project" transform="translate(0.000000, 503.000000)">
                    <g id="icon-copy">
                        <path d="M26.3793164,14.2428947 L22.4484961,14.2428947 L22.4484961,11.2085829 C22.4484961,10.8648694 22.1705332,10.5862929 21.8278125,10.5862929 L19.2912891,10.5862929 L20.7513984,8.05071192 L24.1288242,10.0057179 C24.223957,10.0608622 24.331166,10.0890952 24.439166,10.0890952 C24.4929023,10.0890952 24.5469551,10.0820634 24.5997949,10.067894 C24.7588945,10.0251215 24.8943691,9.92091302 24.9766875,9.7779502 L26.0629102,7.89162348 C26.1964863,7.65962613 26.1670605,7.3678847 25.9896621,7.16750412 C23.5149434,4.37095259 20.8191621,1.51793497 17.4774375,0.0522488574 C17.187873,-0.0747469602 16.8492129,0.0367048231 16.691168,0.311263225 L14.6739199,3.81427525 C14.5024805,4.11193822 14.6042051,4.49250271 14.9010996,4.66433302 L16.9886426,5.87269664 L13.3291934,12.227193 L9.16882031,6.04378675 L9.05312109,5.15460455 C9.04062305,5.05874967 9.00608203,4.9672302 8.9521875,4.88713084 L7.37875195,2.54854674 C7.18700977,2.26357278 6.80120508,2.18849615 6.517125,2.38062888 L3.68739844,4.29418409 C3.55092188,4.38649662 3.45658008,4.5293537 3.42515039,4.69135003 C3.3937207,4.85334636 3.42783984,5.02126423 3.51986133,5.15809402 L5.09329688,7.49667812 C5.14708594,7.57667174 5.21875195,7.64297181 5.30254688,7.69044984 L6.08138086,8.13165721 L10.1930801,14.2428419 L7.78728516,14.2428419 L5.33735156,9.19446734 C5.18732227,8.88543713 4.81580859,8.75685519 4.50768164,8.90716706 C4.19944922,9.05758467 4.07114648,9.42995417 4.22112305,9.73898437 L6.40680469,14.2428419 L4.836375,14.2428419 L3.85783594,12.011427 C3.71977734,11.6967925 3.35337891,11.5539354 3.03982031,11.6922456 C2.72599805,11.8305558 2.5834043,12.1977439 2.72141016,12.5123785 L3.48025781,14.2429476 L0.620683594,14.2429476 C0.277910156,14.2429476 0,14.5215242 0,14.8652377 L0,18.287886 C0,18.6315995 0.277962891,18.9101761 0.620683594,18.9101761 L1.70690625,18.9101761 L1.70690625,26.3777099 C1.70690625,26.7214234 1.98486914,27 2.32758984,27 L24.6724102,27 C25.0151309,27 25.2930938,26.7214234 25.2930938,26.3777099 L25.2930938,18.9101761 L26.3793164,18.9101761 C26.7220898,18.9101761 27,18.6315995 27,18.287886 L27,14.8652377 C27,14.5214713 26.7220371,14.2428947 26.3793164,14.2428947 Z M21.2071289,11.830873 L21.2071289,14.2428947 L17.1856582,14.2428947 L18.5745762,11.830873 L21.2071289,11.830873 Z M16.0593574,3.8976526 L17.4822363,1.4267856 C20.2447266,2.79228143 22.5930938,5.22185629 24.7637988,7.65856871 L24.2119863,8.61669452 L16.0593574,3.8976526 Z M13.9078477,13.712177 C13.9081113,13.711754 13.9082168,13.7113311 13.9084805,13.7108552 L18.0638965,6.49493384 L19.6764082,7.42831609 L15.7523379,14.2428419 L13.6021465,14.2428419 L13.9078477,13.712177 Z M7.02870117,7.31411503 C6.97491211,7.23417428 6.90324609,7.16782134 6.81945117,7.12034331 L6.04061719,6.67913594 L4.89617578,4.97801586 L6.69673828,3.76045271 L7.84117969,5.46136131 L7.95687891,6.35054351 C7.96937695,6.44639839 8.00391797,6.53791786 8.0578125,6.61801722 L12.6387422,13.4263042 L12.1685098,14.2428419 L11.6905781,14.2428419 L7.02870117,7.31411503 Z M24.0517266,23.1728367 L21.4758633,23.1728367 C21.1331426,23.1728367 20.8551797,23.4514133 20.8551797,23.7951268 C20.8551797,24.1388403 21.1331426,24.4174169 21.4758633,24.4174169 L24.0517266,24.4174169 L24.0517266,25.755367 L2.94827344,25.755367 L2.94827344,24.4174169 L5.52413672,24.4174169 C5.86685742,24.4174169 6.14482031,24.1388403 6.14482031,23.7951268 C6.14482031,23.4514133 5.86685742,23.1728367 5.52413672,23.1728367 L2.94827344,23.1728367 L2.94827344,18.9101232 L10.0861875,18.9101232 L10.0861875,21.0881385 C10.0861875,21.431852 10.3641504,21.7104286 10.7068711,21.7104286 L16.2930762,21.7104286 C16.6357969,21.7104286 16.9137598,21.431852 16.9137598,21.0881385 L16.9137598,18.9101232 L24.0517266,18.9101232 L24.0516738,23.1728367 L24.0517266,23.1728367 Z M11.3276074,20.4658484 L11.3276074,18.9101232 L15.6724453,18.9101232 L15.6724453,20.4658484 L11.3276074,20.4658484 Z M25.7586328,17.6655431 L1.24136719,17.6655431 L1.24136719,15.4875278 L25.7586328,15.4875278 L25.7586328,17.6655431 Z" id="Shape"></path>
                        <path d="M7.52380952,23 L7.47619048,23 C7.21325404,23 7,23.2238318 7,23.5 C7,23.7761682 7.21325404,24 7.47619048,24 L7.52380952,24 C7.78674596,24 8,23.7761682 8,23.5 C8,23.2238318 7.78674596,23 7.52380952,23 Z" id="Shape"></path>
                        <path d="M18.4761905,24 L18.5238095,24 C18.786746,24 19,23.7761682 19,23.5 C19,23.2238318 18.786746,23 18.5238095,23 L18.4761905,23 C18.213254,23 18,23.2238318 18,23.5 C18,23.7761682 18.213254,24 18.4761905,24 Z" id="Shape"></path>
                    </g>
                </g>
            </g>
        </g>
    </g>
</svg>