<?xml version="1.0" encoding="UTF-8"?>
<svg width="17px" height="17px" viewBox="0 0 17 17" version="1.1" xmlns="http://www.w3.org/2000/svg" xmlns:xlink="http://www.w3.org/1999/xlink">
    <!-- Generator: Sketch 51.3 (57544) - http://www.bohemiancoding.com/sketch -->
    <title>questions-circular-button</title>
    <desc>Created with Sketch.</desc>
    <defs></defs>
    <g id="Explore-Scenarios" stroke="none" stroke-width="1" fill="none" fill-rule="evenodd">
        <g id="Default" transform="translate(-181.000000, -900.000000)" fill="#4A4A4A" fill-rule="nonzero">
            <g id="Filters" transform="translate(0.000000, 516.000000)">
                <g id="Research-Objects" transform="translate(0.000000, 368.000000)">
                    <g id="questions-circular-button" transform="translate(181.000000, 16.000000)">
                        <path d="M9.36005556,5.57986111 C9.58105556,5.85186111 9.69077778,6.17255556 9.69077778,6.54191667 C9.69077778,6.80619444 9.61502778,7.06041667 9.46436111,7.30613889 C9.38166667,7.44522222 9.27275,7.57969444 9.13672222,7.70794444 L8.68391667,8.15536111 C8.24963889,8.58191667 7.96913889,8.95975 7.84086111,9.2905 C7.71258333,9.62044444 7.64844444,10.0555 7.64844444,10.5948611 L8.65608333,10.5948611 C8.65608333,10.1196389 8.71016667,9.76030556 8.81758333,9.51688889 C8.92497222,9.27347222 9.15988889,8.97677778 9.52230556,8.62516667 C10.0206944,8.14219444 10.3514444,7.77594444 10.51525,7.52711111 C10.6790556,7.27827778 10.76175,6.95375 10.76175,6.55347222 C10.76175,5.89358333 10.5384444,5.35111111 10.0910278,4.92611111 C9.64363889,4.50111111 9.04863889,4.28938889 8.30525,4.28938889 C7.50161111,4.28938889 6.86952778,4.53741667 6.40897222,5.03352778 C5.94841667,5.52963889 5.71813889,6.18488889 5.71813889,7.00011111 L6.72577778,7.00011111 C6.74430556,6.50941667 6.82238889,6.13388889 6.95761111,5.87347222 C7.19869444,5.40597222 7.63452778,5.17183333 8.26505556,5.17183333 C8.77430556,5.17186111 9.13980556,5.30786111 9.36005556,5.57986111 Z" id="Shape"></path>
                        <path d="M17,8.5 C17,3.80566667 13.1943056,0 8.5,0 C3.80566667,0 0,3.80566667 0,8.5 C0,13.1943056 3.80566667,17 8.5,17 C13.1943056,17 17,13.1943056 17,8.5 Z M0.772722222,8.5 C0.772722222,4.23222222 4.23222222,0.772722222 8.5,0.772722222 C12.7677778,0.772722222 16.2272778,4.23222222 16.2272778,8.5 C16.2272778,12.7677778 12.7677778,16.2272778 8.5,16.2272778 C4.23222222,16.2272778 0.772722222,12.7677778 0.772722222,8.5 Z" id="Shape"></path>
                        <rect id="Rectangle-path" x="7.62527778" y="11.5337222" width="1.12663889" height="1.17686111"></rect>
                    </g>
                </g>
            </g>
        </g>
    </g>
</svg>