<?xml version="1.0" encoding="UTF-8"?>
<svg width="99px" height="99px" viewBox="0 0 99 99" version="1.1" xmlns="http://www.w3.org/2000/svg" xmlns:xlink="http://www.w3.org/1999/xlink">
    <!-- Generator: Sketch 49 (51002) - http://www.bohemiancoding.com/sketch -->
    <title>internet</title>
    <desc>Created with Sketch.</desc>
    <defs></defs>
    <g id="Glossary" stroke="none" stroke-width="1" fill="none" fill-rule="evenodd">
        <g transform="translate(-551.000000, -835.000000)" fill="#FFFFFF" fill-rule="nonzero" id="Standards">
            <g transform="translate(450.000000, 699.000000)">
                <g id="internet" transform="translate(101.000000, 136.000000)">
                    <path d="M86.5191724,82.3099655 C94.2753103,73.5689483 99,62.0781207 99,49.5 C99,36.4132241 93.8861379,24.5059138 85.5633103,15.6454138 C85.5633103,15.6454138 85.5633103,15.6437069 85.5633103,15.6437069 C85.5564828,15.6334655 85.5462414,15.6300517 85.5411207,15.6215172 C76.8717931,6.40598276 64.7255172,0.506948276 51.215431,0.0443793103 L51.2137241,0.0426724138 L50.2493276,0.0170689655 C50.0001207,0.00853448276 49.7509138,0 49.5,0 C49.2490862,0 48.9998793,0.00853448276 48.7506724,0.0170689655 L47.7896897,0.0426724138 L47.7879828,0.0443793103 C34.2778966,0.506948276 22.1316207,6.40598276 13.4622931,15.6215172 C13.4554655,15.6300517 13.4452241,15.6334655 13.4401034,15.6437069 C13.4401034,15.6437069 13.4401034,15.6454138 13.4383966,15.6471207 C5.11386207,24.5059138 0,36.4132241 0,49.5 C0,62.0781207 4.72468966,73.5689483 12.4808276,82.3099655 C12.491069,82.3253276 12.491069,82.3423966 12.5030172,82.3577586 C12.5337414,82.400431 12.5781207,82.4209138 12.6105517,82.4601724 C21.3259655,92.2031379 33.8306897,98.4793966 47.7862759,98.9573276 L47.7879828,98.9590345 L48.7489655,98.9846379 C48.9998793,98.9914655 49.2490862,99 49.5,99 C49.7509138,99 50.0001207,98.9914655 50.2493276,98.982931 L51.2103103,98.9573276 L51.2120172,98.9556207 C65.1829655,98.4759828 77.7013448,92.1877759 86.4167586,82.4243276 C86.4389483,82.3953103 86.4747931,82.3867759 86.4952759,82.3560517 C86.508931,82.3423966 86.508931,82.3253276 86.5191724,82.3099655 Z M3.45646552,51.2068966 L23.9443448,51.2068966 C24.1372241,58.442431 25.5505345,65.4731379 28.0665,72.0600517 C23.2120862,73.8164483 18.5710345,76.1719655 14.2218621,79.1112414 C7.82612069,71.5036034 3.84563793,61.8067241 3.45646552,51.2068966 Z M15.1538276,18.8151207 C19.4005862,21.5768793 23.9221552,23.7890172 28.6383103,25.4412931 C25.7502414,32.4515172 24.1525862,40.0096552 23.9443448,47.7931034 L3.45646552,47.7931034 C3.86441379,36.6863276 8.21358621,26.5729655 15.1538276,18.8151207 Z M95.5435345,47.7931034 L75.0556552,47.7931034 C74.8474138,40.0096552 73.2497586,32.4515172 70.3616897,25.4412931 C75.0778448,23.7890172 79.5994138,21.5768793 83.8461724,18.8151207 C90.7864138,26.5729655 95.1355862,36.6863276 95.5435345,47.7931034 Z M47.7931034,25.5402931 C42.8584655,25.4003276 38.0142931,24.6646552 33.3339828,23.3503448 C36.7938621,16.253069 41.679,9.84708621 47.7931034,4.51303448 L47.7931034,25.5402931 Z M47.7931034,28.9540862 L47.7931034,47.7931034 L27.3581379,47.7931034 C27.5680862,40.3715172 29.1247759,33.1735345 31.9087241,26.499569 C37.0396552,27.9862759 42.3668793,28.809 47.7931034,28.9540862 Z M51.2068966,28.9540862 C56.6331207,28.809 61.9603448,27.9879828 67.0929828,26.499569 C69.876931,33.1735345 71.4336207,40.3715172 71.643569,47.7931034 L51.2068966,47.7931034 L51.2068966,28.9540862 Z M51.2068966,25.5402931 L51.2068966,4.51303448 C57.321,9.84708621 62.2061379,16.253069 65.6660172,23.3503448 C60.9857069,24.6646552 56.1415345,25.4003276 51.2068966,25.5402931 Z M68.9739828,22.3125517 C65.6950345,15.4422931 61.1444483,9.18310345 55.5099828,3.81832759 C65.505569,5.12581034 74.4992069,9.64567241 81.4257931,16.3093966 C77.4931034,18.8048793 73.3214483,20.8121897 68.9739828,22.3125517 Z M30.0260172,22.3125517 C25.6785517,20.8121897 21.5068966,18.8048793 17.5759138,16.3093966 C24.5007931,9.64567241 33.4961379,5.12581034 43.4917241,3.81832759 C37.8555517,9.18310345 33.3049655,15.4422931 30.0260172,22.3125517 Z M27.3581379,51.2068966 L47.7931034,51.2068966 L47.7931034,68.3407241 C42.1483966,68.490931 36.6180517,69.3716897 31.3027759,70.9710517 C28.9011724,64.7323448 27.5510172,58.0669138 27.3581379,51.2068966 Z M47.7931034,71.7545172 L47.7931034,94.4869655 C41.2488621,88.7773966 36.117931,81.840569 32.6290345,74.1458793 C37.5227069,72.7035517 42.6058448,71.9013103 47.7931034,71.7545172 Z M51.2068966,94.4869655 L51.2068966,71.7545172 C56.3941552,71.8996034 61.4772931,72.7035517 66.3709655,74.1441724 C62.882069,81.840569 57.7511379,88.7773966 51.2068966,94.4869655 Z M51.2068966,68.3407241 L51.2068966,51.2068966 L71.6418621,51.2068966 C71.4489828,58.0669138 70.0988276,64.7323448 67.6955172,70.9727586 C62.3819483,69.3716897 56.8516034,68.490931 51.2068966,68.3407241 Z M75.0556552,51.2068966 L95.5435345,51.2068966 C95.1543621,61.8067241 91.1755862,71.5036034 84.7781379,79.1112414 C80.4289655,76.1719655 75.7879138,73.8164483 70.9335,72.0600517 C73.4511724,65.4731379 74.8627759,58.442431 75.0556552,51.2068966 Z M16.5415345,81.6681724 C20.5800517,78.984931 24.8797241,76.8274138 29.3722759,75.2143966 C32.6921897,82.6564655 37.4578448,89.4379655 43.4900172,95.1816724 C32.9908966,93.8076207 23.594431,88.8917586 16.5415345,81.6681724 Z M55.5099828,95.1816724 C61.5421552,89.4396724 66.3078103,82.6581724 69.6277241,75.2143966 C74.1202759,76.8274138 78.4182414,78.984931 82.4584655,81.6681724 C75.405569,88.8917586 66.0091034,93.8076207 55.5099828,95.1816724 Z" id="Shape"></path>
                </g>
            </g>
        </g>
    </g>
</svg>