<?xml version="1.0" encoding="UTF-8"?>
<svg width="20px" height="20px" viewBox="0 0 20 20" version="1.1" xmlns="http://www.w3.org/2000/svg" xmlns:xlink="http://www.w3.org/1999/xlink">
    <!-- Generator: Sketch 46.2 (44496) - http://www.bohemiancoding.com/sketch -->
    <title>united-kingdom (1)</title>
    <desc>Created with Sketch.</desc>
    <defs></defs>
    <g id="Home-+-navigation" stroke="none" stroke-width="1" fill="none" fill-rule="evenodd">
        <g id="Home-Copy" transform="translate(-1033.000000, -95.000000)" fill-rule="nonzero">
            <g id="united-kingdom-(1)" transform="translate(1033.000000, 95.000000)">
                <path d="M15.625,20 L4.375,20 C1.95875,20 0,18.04125 0,15.625 L0,4.375 C0,1.95875 1.95875,0 4.375,0 L15.625,0 C18.04125,0 20,1.95875 20,4.375 L20,15.625 C20,18.04125 18.04125,20 15.625,20 Z" id="Shape" fill="#41479B"></path>
                <g id="Group" fill="#F5F5F5">
                    <path d="M20,15.6245703 L20,14.6641406 L16.8976953,12.6316016 L20,12.6316016 L20,11.5789453 L11.5789453,11.5789453 L11.5789453,20 L12.6315625,20 L12.6315625,13.6117187 L19.3085937,17.9863281 C19.5450781,17.6181641 19.7276562,17.2121094 19.8457031,16.7794531" id="Shape"></path>
                    <path d="M0.294179687,17.2048047 C0.400742187,17.4798047 0.534101562,17.7414453 0.691367187,17.9863281 L7.36839844,13.6117187 L7.36839844,20 L8.42101562,20 L8.42101562,11.5789453 L0,11.5789453 L0,12.6316016 L3.10230469,12.6316016 L0,14.6641406 L0,15.625 C0,15.7932031 0.00984375,15.9591016 0.0283203125,16.1223828" id="Shape"></path>
                    <path d="M0,4.52371094 L0,5.33585937 L3.10230469,7.3684375 L0,7.3684375 L0,8.42105469 L8.42105469,8.42105469 L8.42105469,0 L7.3684375,0 L7.3684375,6.38828125 L0.691367187,2.01367187 C0.431875,2.41769531 0.237226562,2.86726562 0.121640625,3.34765625" id="Shape"></path>
                    <path d="M19.7000391,2.78003906 C19.5944922,2.51054687 19.4630078,2.25402344 19.3085937,2.01363281 L12.6315625,6.38828125 L12.6315625,0 L11.5789453,0 L11.5789453,8.42105469 L20,8.42105469 L20,7.3684375 L16.8976953,7.3684375 L20,5.33585937 L20,4.375 C20,4.20078125 19.9894922,4.02898437 19.9696875,3.86007812" id="Shape"></path>
                </g>
                <g id="Group" fill="#FF4B55">
                    <polygon id="Shape" points="11.5789453 0 8.42105469 0 8.42105469 8.42105469 0 8.42105469 0 11.5789453 8.42105469 11.5789453 8.42105469 20 11.5789453 20 11.5789453 11.5789453 20 11.5789453 20 8.42105469 11.5789453 8.42105469"></polygon>
                    <path d="M5.40605469,12.6316016 L0.0283203125,16.1223828 C0.0710546875,16.4998437 0.161679687,16.8627344 0.29421875,17.2048047 L7.33949219,12.6315625 L5.40605469,12.6315625 L5.40605469,12.6316016 L5.40605469,12.6316016 Z" id="Shape"></path>
                    <path d="M13.4556641,12.6316016 L19.8457422,16.7794922 C19.9460937,16.4116406 20,16.0246484 20,15.625 L20,15.6245703 L15.3891016,12.6315625 L13.4556641,12.6316016 L13.4556641,12.6316016 Z" id="Shape"></path>
                    <path d="M6.31578125,7.3684375 L0.121640625,3.34765625 C0.0423046875,3.6771875 0,4.02113281 0,4.375 L0,4.52371094 L4.38234375,7.3684375 L6.31578125,7.3684375 L6.31578125,7.3684375 Z" id="Shape"></path>
                    <path d="M14.5649609,7.3684375 L19.9696484,3.86007812 C19.9254688,3.48335937 19.8336719,3.12125 19.7000391,2.78007813 L12.6315625,7.3684375 L14.5649609,7.3684375 Z" id="Shape"></path>
                </g>
            </g>
        </g>
    </g>
</svg>