<?xml version="1.0" encoding="UTF-8"?>
<svg width="41px" height="35px" viewBox="0 0 41 35" version="1.1" xmlns="http://www.w3.org/2000/svg" xmlns:xlink="http://www.w3.org/1999/xlink">
    <!-- Generator: Sketch 52.6 (67491) - http://www.bohemiancoding.com/sketch -->
    <title>books-stack</title>
    <desc>Created with Sketch.</desc>
    <g id="Steps" stroke="none" stroke-width="1" fill="none" fill-rule="evenodd">
        <g id="Full-scenario" transform="translate(-180.000000, -954.000000)" fill="#63B9D8" fill-rule="nonzero">
            <g id="Group-3" transform="translate(72.000000, 806.000000)">
                <g id="Group-4" transform="translate(108.000000, 148.000000)">
                    <g id="books-stack">
                        <path d="M0,30.3505139 C0,32.9143371 2.09312283,35 4.66600129,35 L5.70297068,35 L34.1736802,35 L36.2473611,35 L38.4078859,35 L38.4078859,32.9336074 L36.2473611,32.9336074 L36.2473611,27.7674203 L38.4078859,27.7674203 L38.4078859,26.8633094 L39.444649,26.8633094 L41,26.8633094 L41,24.7969168 L39.444649,24.7969168 L39.444649,19.6310894 L41,19.6310894 L41,17.5647482 L39.444649,17.5647482 L39.3150537,17.5647482 L39.3150537,16.8764132 L39.3150537,15.8431655 L39.3150537,15.7988181 L36.7547583,11.0201953 L39.4447006,11.0201953 L39.4447006,8.24152107 L32.6780989,0 L8.80495726,0 L2.6484285,9.66634121 C1.59552398,10.5199897 0.907425576,11.8053443 0.907425576,13.2601233 C0.907425576,15.8079651 2.97610423,17.8793422 5.52773585,17.9046763 C3.81091925,18.5918294 2.59226878,20.2606372 2.59226878,22.2142343 C2.59226878,23.6327338 3.24658883,24.8887461 4.25498845,25.7422919 C1.87688985,25.953443 0,27.926927 0,30.3505139 Z M2.98105495,13.2601233 C2.98105495,12.2966084 3.51887839,11.4643371 4.30568176,11.0203494 L35.2104433,11.0203494 L35.2104433,15.8432682 L5.57337529,15.8432682 C4.14411297,15.8431655 2.98105495,14.6840699 2.98105495,13.2601233 Z M7.25832164,19.6311922 L8.29518789,19.6311922 L37.3708134,19.6311922 L37.3708134,24.7969681 L8.29518789,24.7969681 L7.25832164,24.7969681 C5.82905931,24.7969681 4.66600129,23.6386434 4.66600129,22.2142343 C4.66605286,20.7894142 5.82905931,19.6311922 7.25832164,19.6311922 Z M4.66605286,27.7674203 L5.70302225,27.7674203 L34.1737318,27.7674203 L34.1737318,32.933556 L5.70297068,32.933556 L4.66600129,32.933556 C3.23684211,32.933556 2.07383565,31.7752312 2.07383565,30.3504625 C2.07383565,28.9256937 3.23689368,27.7674203 4.66605286,27.7674203 Z" id="Shape"></path>
                    </g>
                </g>
            </g>
        </g>
    </g>
</svg>