<?xml version="1.0" encoding="UTF-8" standalone="no"?>
<svg width="111px" height="110px" viewBox="0 0 111 110" version="1.1" xmlns="http://www.w3.org/2000/svg" xmlns:xlink="http://www.w3.org/1999/xlink">
    <!-- Generator: Sketch 44.1 (41455) - http://www.bohemiancoding.com/sketch -->
    <title>Logo</title>
    <desc>Created with Sketch.</desc>
    <defs></defs>
    <g id="Page-1" stroke="none" stroke-width="1" fill="none" fill-rule="evenodd">
        <g id="Schema-Customization-2" transform="translate(-9.000000, -5.000000)">
            <g id="Menu" transform="translate(-1.000000, -1.000000)">
                <g id="PARTHENOS_logo" transform="translate(1.000000, 0.000000)">
                    <g id="Logo" transform="translate(10.000000, 6.000000)">
                        <path d="M0,54.5 C0,24.400566 24.400566,0 54.5,0 C84.599434,0 109,24.400566 109,54.5 C109,84.599434 84.599434,109 54.5,109 C24.400566,109 0,84.599434 0,54.5" id="Fill-1" fill="#24393E"></path>
                        <g id="Group-23" transform="translate(0.000000, 1.000000)">
                            <path d="M0,54.0001414 C0,24.176643 24.4002792,0 54.5,0 C84.5994353,0 109,24.176643 109,54.0001414 C109,83.8236399 84.5994353,108 54.5,108 C24.4002792,108 0,83.8236399 0,54.0001414 Z" id="Stroke-3" stroke="#63B9D8" stroke-width="0.3"></path>
                            <path d="M12,54.5 C12,31.0277342 31.0277342,12 54.5,12 C77.9719822,12 97,31.0277342 97,54.5 C97,77.9719822 77.9719822,97 54.5,97 C31.0277342,97 12,77.9719822 12,54.5 Z" id="Stroke-5" stroke="#63B9D8" stroke-width="0.3"></path>
                            <path d="M46,3.48887438 L47.75995,5 L49,3.19307556 C49,3.19307556 47.2438026,2.60171417 46,3.48887438" id="Fill-7" fill="#63B9D8"></path>
                            <path d="M46,3 C46,3 45,2.61064203 45,2.24059621 C45,1.87086188 45.4595763,1.79299029 46,3" id="Fill-9" fill="#63B9D8"></path>
                            <path d="M49,3 C49,3 49.0675364,2.1971533 49.5707766,2.04239504 C50.0744858,1.88702509 50.3934079,2.14821788 49,3" id="Fill-21" fill="#63B9D8"></path>
                        </g>
                        <g id="Group-328" transform="translate(48.000000, 2.000000)" fill="#63B9D8">
                            <path d="M4,7.59694715 L2.42283394,6 L1,7.73427328 C1,7.73427328 2.6732852,8.415241 4,7.59694715" id="Fill-24"></path>
                            <path d="M3,9 C3,9 4.0411198,9.42502159 3.99874043,9.77890736 C3.95636106,10.1327931 3.44875042,10.1833055 3,9" id="Fill-26"></path>
                            <path d="M2,9 L1.58233053,9.91484035 C1.58233053,9.91484035 0.0940702118,10.4032801 1.87597831,9.04062458 L2,9 Z" id="Fill-36"></path>
                            <path d="M1,9 C1,9 0.854284157,9.83249895 0.381772841,9.96794774 C-0.0907384745,10.1033965 -0.351919211,9.81492894 1,9" id="Fill-38"></path>
                            <path d="M12,1.25599446 L13.2126794,3 L15,1.43777468 C15,1.43777468 13.491694,0.588288134 12,1.25599446" id="Fill-40"></path>
                            <path d="M14,2 L14.5325178,1.05367356 C14.5325178,1.05367356 15.8269318,0.667319841 14.1079428,1.96774667 L14,2 Z" id="Fill-52"></path>
                            <path d="M14,2 C14,2 14.2672287,1.10255237 14.6899159,1.01366097 C15.1126032,0.924413997 15.2829888,1.27464613 14,2" id="Fill-54"></path>
                            <path d="M15,8.7553607 L13.8197556,7 L12,8.54551906 C12,8.54551906 13.4935506,9.40917067 15,8.7553607" id="Fill-56"></path>
                            <path d="M13,9 L12.4598785,9.94913785 C12.4598785,9.94913785 11.1786393,10.3254007 12.8933039,9.03115332 L13,9 Z" id="Fill-68"></path>
                            <path d="M12,9 C12,9 11.723335,9.9033553 11.3049197,9.98779782 C10.8861447,10.0722403 10.7220885,9.71578511 12,9" id="Fill-70"></path>
                            <path d="M25,5.10262666 L25.4472504,7 L27,5.73500534 C27,5.73500534 26.1586028,4.67218204 25,5.10262666" id="Fill-72"></path>
                            <path d="M26,5 L26.4544945,4.07659447 C26.4544945,4.07659447 27.8815654,3.61424867 26.1193569,4.9614176 L26,5 Z" id="Fill-80"></path>
                            <path d="M26,5 C26,5 26.1115397,4.18118123 26.5981373,4.03662859 C27.0838461,3.89207594 27.3700277,4.1677272 26,5" id="Fill-82"></path>
                            <path d="M27,5 L27.6358732,4.01200449 C27.6358732,4.01200449 28.7446589,3.8186217 27.09255,4.98418883 L27,5 Z" id="Fill-84"></path>
                            <path d="M27,6 C27,6 27.3919693,4.99696214 27.7603335,5.00000692 C28.1296294,5.00261673 28.2054143,5.46498848 27,6" id="Fill-86"></path>
                            <path d="M25,11.8899982 L24.5299095,10 L23,11.2845822 C23,11.2845822 23.851804,12.3353453 25,11.8899982" id="Fill-88"></path>
                            <path d="M25,12 L24.5566389,12.9206896 C24.5566389,12.9206896 23.1111966,13.3914133 24.8787934,12.0392802 L25,12 Z" id="Fill-96"></path>
                            <path d="M24,12 C24,12 23.9024075,12.8136737 23.4103787,12.9615015 C22.9188016,13.1096398 22.6228614,12.8388293 24,12" id="Fill-98"></path>
                            <path d="M24,12 L23.369259,12.9858703 C23.369259,12.9858703 22.2508772,13.1934641 23.9068015,12.0172327 L24,12 Z" id="Fill-100"></path>
                            <path d="M23,12 C23,12 22.6146425,12.9956875 22.2430589,12.9999756 C21.8711623,13.0038349 21.7903968,12.5493005 23,12" id="Fill-102"></path>
                            <path d="M36.0912362,11.0054879 L36,13 L38,12.1892208 C38,12.1892208 37.4320226,10.9061146 36.0912362,11.0054879" id="Fill-104"></path>
                            <path d="M37,11 C37,11 37.0529272,10.2016251 37.56265,10.0438951 C38.0714191,9.88586127 38.4004264,10.1432741 37,11" id="Fill-110"></path>
                            <path d="M38,11 L38.6144927,10.0209205 C38.6144927,10.0209205 39.7626836,9.77363118 38.0959671,10.9794572 L38,11 Z" id="Fill-112"></path>
                            <path d="M38,11 C38,11 38.3228941,10.0612924 38.7222809,10.0053531 C39.1209908,9.94903066 39.2489299,10.340989 38,11" id="Fill-114"></path>
                            <path d="M38,11.9831579 L38.7216777,11 C38.7216777,11 39.6648666,11.1963158 38.0786503,12 L38,11.9831579 Z" id="Fill-116"></path>
                            <path d="M34.8504492,17.9977581 L35,16 L33,16.7595353 C33,16.7595353 33.5224603,18.0611411 34.8504492,17.9977581" id="Fill-120"></path>
                            <path d="M35,18 C35,18 34.9141933,18.8090825 34.4173125,18.9598203 C33.9214294,19.1112295 33.616616,18.8439973 35,18" id="Fill-126"></path>
                            <path d="M34,18 L33.3736782,18.9840531 C33.3736782,18.9840531 32.2471045,19.2029715 33.9061524,18.018567 L34,18 Z" id="Fill-128"></path>
                            <path d="M34,18 C34,18 33.6609217,18.9521935 33.2688174,18.9966806 C32.8770738,19.0411676 32.7605608,18.6347957 34,18" id="Fill-130"></path>
                            <path d="M43.2230937,27 L44,25 L42,25.0835019 C42,25.0835019 42.0378038,26.602716 43.2230937,27" id="Fill-136"></path>
                            <path d="M43,27 C43,27 42.981641,27.7880233 42.4589494,27.9523442 C41.9357178,28.1166652 41.5825769,27.8695317 43,27" id="Fill-138"></path>
                            <path d="M43,27 L42.3971303,27.9737839 C42.3971303,27.9737839 41.2273768,28.247944 42.9030497,27.0230872 L43,27 Z" id="Fill-140"></path>
                            <path d="M43,26 C43,26 42.6547164,26.9574573 42.2650648,26.9972433 C41.8761288,27.0378941 41.7648509,26.6253312 43,26" id="Fill-142"></path>
                            <path d="M45.3452034,20 L45,22 L47,21.4289356 C47,21.4289356 46.6286909,20.0652645 45.3452034,20" id="Fill-152"></path>
                            <path d="M46,20 L46.4615415,19.0748428 C46.4615415,19.0748428 47.8770062,18.6179297 46.118044,19.9620072 L46,20 Z" id="Fill-156"></path>
                            <path d="M47,20 C47,20 47.1824556,19.1509144 47.6404819,19.0270542 C48.0976694,18.9021787 48.3317159,19.206753 47,20" id="Fill-158"></path>
                            <path d="M47,20 L47.6629353,19.0027726 C47.6629353,19.0027726 48.7207278,18.8970943 47.088533,19.9905964 L47,20 Z" id="Fill-160"></path>
                            <path d="M47,21 C47,21 47.3917748,19.9977616 47.760787,20.0000038 C48.1291579,20.0022459 48.2057816,20.464576 47,21" id="Fill-162"></path>
                            <path d="M52.8687706,31 L52,32.964951 L53.9999037,33 C53.9999037,33 54.0330647,31.4702636 52.8687706,31" id="Fill-168"></path>
                            <path d="M53,30 C53,30 53.0808851,29.1919615 53.5790423,29.0403947 C54.0781511,28.8888279 54.3855145,29.1541492 53,30" id="Fill-170"></path>
                            <path d="M54,31 L54.6253514,30.0166032 C54.6253514,30.0166032 55.7537444,29.7937163 54.0939369,30.981222 L54,31 Z" id="Fill-172"></path>
                            <path d="M54,31 C54,31 54.3732624,30.0160167 54.7504572,30.0004665 C55.1273244,29.9836204 55.2174448,30.4250738 54,31" id="Fill-174"></path>
                            <path d="M49.0864858,36 L50,34.092057 L48.0007578,34 C48.0007578,34 47.9327016,35.5041412 49.0864858,36" id="Fill-184"></path>
                            <path d="M49,37 C49,37 48.8913851,37.8180477 48.4039988,37.9630916 C47.9161522,38.1081355 47.6289671,37.833519 49,37" id="Fill-186"></path>
                            <path d="M49,36 L48.3648249,36.9875807 C48.3648249,36.9875807 47.25477,37.1837611 48.9072764,36.0166962 L49,36 Z" id="Fill-188"></path>
                            <path d="M48,36 C48,36 47.6141499,36.9968699 47.2421723,36.999974 C46.8711626,37.0039651 46.7911536,36.5472142 48,36" id="Fill-190"></path>
                            <path d="M57.3177064,43 L56,44.4215377 L57.9191085,45 C57.9191085,45 58.3251772,43.7167111 57.3177064,43" id="Fill-200"></path>
                            <path d="M58,43 C58,43 58.3076806,42.0730065 58.7129358,42.0072623 C59.1192594,41.9419048 59.258143,42.3212876 58,43" id="Fill-202"></path>
                            <path d="M58,43.9872949 L58.7153822,43 C58.7153822,43 59.6712559,43.1514029 58.0795225,44 L58,43.9872949 Z" id="Fill-204"></path>
                            <path d="M51.9195387,47 L53,45.2947992 L51.0143468,45 C51.0143468,45 50.8129214,46.4119464 51.9195387,47" id="Fill-216"></path>
                            <path d="M52,48 C52,48 51.8009638,48.8582671 51.3503622,48.9759273 C50.8985295,49.0935874 50.6781533,48.7817709 52,48" id="Fill-218"></path>
                            <path d="M52,47 L51.3300101,47.9986138 C51.3300101,47.9986138 50.2853571,48.0794344 51.9133242,47.0068492 L52,47 Z" id="Fill-220"></path>
                            <path d="M51,47 C51,47 50.5681059,48.051133 50.2166566,47.9980555 C49.8667368,47.9459701 49.8217733,47.4261082 51,47" id="Fill-222"></path>
                            <path d="M58.7314132,56 L57,56.8319739 L58.580094,58 C58.580094,58 59.4140527,56.9841529 58.7314132,56" id="Fill-232"></path>
                            <path d="M59,58 L59.9433986,58.5237738 C59.9433986,58.5237738 60.3400469,59.8327363 59.0333171,58.1104172 L59,58 Z" id="Fill-244"></path>
                            <path d="M59,59 C59,59 59.8900653,59.2573021 59.98473,59.6843628 C60.0790319,60.1106622 59.7348298,60.289175 59,59" id="Fill-246"></path>
                            <path d="M51.4748115,59 L53,57.8454236 L51.2041978,57 C51.2041978,57 50.5978769,58.1620766 51.4748115,59" id="Fill-248"></path>
                            <path d="M52,59 C52,59 51.6050462,60.007191 51.2375509,59.9999613 C50.8700555,59.9931834 50.7969396,59.527318 52,59" id="Fill-250"></path>
                            <path d="M52,57 C52,57 51.1933439,56.9186007 51.0405272,56.4202084 C50.8886636,55.9222921 51.1539483,55.6143075 52,57" id="Fill-262"></path>
                            <path d="M55.9287653,69 L54,69.3375233 L55.1709746,71 C55.1709746,71 56.2881198,70.208463 55.9287653,69" id="Fill-264"></path>
                            <path d="M56,70 L56.93621,70.5004674 C56.93621,70.5004674 57.3572986,71.8498538 56.0356913,70.1130247 L56,70 Z" id="Fill-272"></path>
                            <path d="M56,71 C56,71 56.8434572,71.169723 56.9715179,71.6328366 C57.0992434,72.0950973 56.8012173,72.3390208 56,71" id="Fill-274"></path>
                            <path d="M56,71 L56.9959177,71.6584447 C56.9959177,71.6584447 57.119247,72.7243958 56.0101669,71.0900804 L56,71 Z" id="Fill-276"></path>
                            <path d="M55,71 C55,71 56.035155,71.4202718 55.9990785,71.7770069 C55.9625209,72.1321923 55.4608171,72.186121 55,71" id="Fill-278"></path>
                            <path d="M49.2846119,70 L51,69.1392994 L49.3984683,68 C49.3984683,68 48.5834704,69.0289771 49.2846119,70" id="Fill-280"></path>
                            <path d="M49,68 L48.0603835,67.4874163 C48.0603835,67.4874163 47.6507538,66.1591392 48.965315,67.8880232 L49,68 Z" id="Fill-292"></path>
                            <path d="M49,68 C49,68 48.1177646,67.7557272 48.0171933,67.3229268 C47.9173379,66.891675 48.2534105,66.7031475 49,68" id="Fill-294"></path>
                            <path d="M50.9827206,80 L49,80.0404013 L49.92062,82 C49.92062,82 51.1595713,81.3434114 50.9827206,80" id="Fill-296"></path>
                            <path d="M51,81.0002091 C51,81.0002091 51.7748914,80.9738109 51.9470895,81.5141663 C52.1205045,82.0529055 51.883504,82.440259 51,81.0002091" id="Fill-302"></path>
                            <path d="M51,81 L51.9673034,81.587017 C51.9673034,81.587017 52.2712261,82.7851125 51.0258658,81.0999796 L51,81 Z" id="Fill-304"></path>
                            <path d="M50,81 C50,81 50.9089441,81.2846178 50.989123,81.7003434 C51.0689272,82.1149672 50.7066235,82.2728842 50,81" id="Fill-306"></path>
                            <path d="M50.0076414,82 L51,82.7052839 C51,82.7052839 50.9098319,83.6806765 50,82.0825332 L50.0076414,82 Z" id="Fill-308"></path>
                            <path d="M44,79.7392756 L46,80 L45.345321,78 C45.345321,78 44.0081043,78.4366812 44,79.7392756" id="Fill-312"></path>
                            <path d="M44,79 C44,79 43.1687124,78.857533 43.0327972,78.3833781 C42.8955656,77.9096642 43.1835215,77.6467839 44,79" id="Fill-318"></path>
                            <path d="M44,79 L43.0075003,78.352611 C43.0075003,78.352611 42.8493193,77.2654655 43.9858153,78.9089781 L44,79 Z" id="Fill-320"></path>
                            <path d="M45,78 C45,78 44.0203194,77.6304397 44.0006144,77.2516568 C43.9813378,76.8732033 44.4178461,76.7799898 45,78" id="Fill-322"></path>
                        </g>
                        <g id="Group-811" transform="translate(1.000000, 1.000000)">
                            <path d="M92.4401792,79.5355759 C92.4813571,79.5908716 92.5228189,79.6455972 92.5648487,79.6991827 C92.5648487,79.6991827 93.7342999,81.6074544 93.8416463,81.8468791 C94.9057389,84.223169 94.7461392,87.0991154 92.9167064,88.9805943 C91.1858165,90.7617429 88.4132689,90.6711036 86.7246928,88.7779384 C85.3737751,87.2627223 85.4021736,84.8778815 86.7897254,83.4507394 C87.8981197,82.311192 89.6716074,82.3693379 90.7516031,83.5809978 C91.6157701,84.5518079 91.5973111,86.07643 90.7112772,86.9896641 C90.0015982,87.7207645 88.8665093,87.6814304 88.1738693,86.9072906 C87.6212341,86.2859266 87.6337294,85.309416 88.2011319,84.7242507 C88.6540883,84.2585127 89.3813745,84.281315 89.8243914,84.7786913 C90.178521,85.1760222 90.1708534,85.8013767 89.8073523,86.1747652 C89.8073523,86.1747652 89.3759787,86.405924 88.9059832,85.9912062 C88.4365556,85.5770585 89.3677432,84.7211153 88.9233063,85.0235315 C88.4771655,85.3253776 88.3860063,85.7671731 88.3860063,85.7671731 C88.3098982,86.3788462 88.7123053,86.9246774 89.2822636,86.9865288 C89.9942146,87.0626317 90.6468126,86.5076795 90.7410957,85.7440858 C90.8592335,84.7883823 90.2316262,83.9364295 89.3424685,83.8380943 C88.2303824,83.7178119 87.2080356,84.5871515 87.0606473,85.7811396 C86.8757729,87.2732684 87.8555219,88.6054957 89.2487534,88.7571313 C90.984471,88.9469609 92.5827398,87.5868007 92.8124838,85.7227086 C93.0995929,83.3894581 91.5686286,81.3093137 89.3938698,81.0721693 C86.6772672,80.7754537 84.183593,82.9000626 83.8240678,85.814488 C83.7391562,86.5136651 83.7578992,87.1994458 83.8680855,87.8527331 L85.0344128,90.3410395 C86.1376953,93.1408831 85.0270291,96.4705963 82.4379359,97.9285216 C80.2765244,99.1464521 77.6428455,98.2736921 76.5557501,95.9783506 C75.6856194,94.1421913 76.3842231,91.8633814 78.1165329,90.8874409 C79.5003928,90.1081705 81.1849931,90.6668281 81.8804729,92.1352995 C82.436232,93.3113307 81.9898072,94.7681158 80.8828329,95.3934703 C79.996515,95.8928417 78.9190751,95.5342748 78.4715144,94.5956731 C78.1171008,93.8420554 78.4036419,92.9094393 79.112753,92.508973 C79.6784516,92.1903101 80.3699556,92.4186187 80.6545088,93.0208857 C80.8814129,93.5023004 80.6990944,94.100007 80.2447181,94.3551083 C80.2447181,94.3551083 79.765351,94.4554386 79.4313844,93.9249989 C79.0979858,93.3942742 80.2327907,92.8359017 79.7210493,93.0003636 C79.2076041,93.1634004 78.996887,93.5613014 78.996887,93.5613014 C78.7520918,94.1267997 78.9835397,94.7638404 79.5128882,94.9847382 C80.1748577,95.2606466 80.9561011,94.9123407 81.2619531,94.207463 C81.6441972,93.324157 81.2824001,92.3288344 80.4565711,91.9822387 C79.4237168,91.5512743 78.1983206,92.0953954 77.7203735,93.1993141 C77.1245725,94.5791413 77.6882832,96.1345467 78.9824038,96.6746773 C80.5943039,97.3484868 82.5097842,96.4973891 83.2543934,94.7738164 C84.1864329,92.6175692 83.3038068,90.1874087 81.2852399,89.3431517 C78.7620313,88.288543 75.7719509,89.6202003 74.6061916,92.3140129 C74.3287381,92.9613146 74.1535192,93.6237229 74.0754232,94.2812856 L74.7535799,96.4147305 C75.3925467,99.3570888 73.7621875,102.463054 70.9728848,103.483744 C68.643922,104.335412 66.18461,103.049359 65.4803267,100.607513 C64.916332,98.6553465 65.9716211,96.5181962 67.8382559,95.8355508 C69.3300303,95.2900046 70.9021724,96.1137395 71.352857,97.6757005 C71.7123823,98.9255543 71.0382014,100.29227 69.8454634,100.730075 C68.8895692,101.079521 67.8836936,100.551362 67.5931767,99.5526189 C67.3645686,98.7514014 67.7967941,97.8775013 68.5609983,97.5973174 C69.1701466,97.3744244 69.815929,97.7116142 70.0002354,98.3517902 C70.1476237,98.8637029 69.8713061,99.4237857 69.3819996,99.601644 C69.3819996,99.601644 68.893261,99.6235913 68.6484658,99.0461217 C68.4042385,98.4677971 69.6131635,98.1012494 69.0823952,98.1807725 C68.5493549,98.2585856 68.2772971,98.6171525 68.2772971,98.6171525 C67.9447504,99.1344808 68.0711238,99.8014496 68.5587264,100.105576 C69.1673067,100.48381 69.9951237,100.266903 70.4088901,99.621026 C70.9285831,98.8106875 70.7312133,97.7703302 69.9724048,97.2946162 C69.0216223,96.7023252 67.7249458,97.0412251 67.0766076,98.0533644 C66.2661138,99.3174697 66.5733858,100.943847 67.7638518,101.686919 C69.2459706,102.613264 71.2741931,102.082825 72.2857484,100.502337 C73.5511865,98.524518 73.0698316,95.9843362 71.2131362,94.8236966 C68.8918411,93.3757473 65.7276778,94.2054678 64.1447442,96.6763875 C63.7667599,97.2695336 63.4881704,97.8951731 63.3044319,98.5319287 L63.2811452,101.281037 C63.0670203,104.285247 60.6292912,106.802911 57.6661895,106.991031 C55.1929622,107.148367 53.1956942,105.217008 53.2070536,102.675401 C53.2150052,100.642286 54.8288932,98.8919208 56.81111,98.7650828 C58.3951795,98.6653225 59.672545,99.9017799 59.6645934,101.527017 C59.6580618,102.828177 58.6269114,103.948057 57.3594854,104.03043 C56.3445223,104.093992 55.5277808,103.30275 55.5300527,102.261823 C55.5365843,101.428682 56.1971339,100.712974 57.0090477,100.659958 C57.655966,100.618629 58.1807707,101.125981 58.1776468,101.79238 C58.174807,102.3251 57.751669,102.784282 57.2319761,102.816205 C57.2319761,102.816205 56.7577207,102.699058 56.6855885,102.075699 C56.6137402,101.45234 57.8766225,101.442364 57.3450022,101.367401 C56.811394,101.291868 56.4495968,101.557801 56.4495968,101.557801 C55.985281,101.961117 55.9188284,102.636637 56.3005046,103.066176 C56.7781677,103.601746 57.6323952,103.627684 58.212293,103.125747 C58.9384432,102.495547 59.0418138,101.441224 58.4477168,100.769694 C57.7025396,99.9325631 56.3632653,99.8900937 55.4565005,100.67763 C54.3228315,101.660981 54.1609599,103.308736 55.0935674,104.358214 C56.2544989,105.666784 58.3491739,105.732341 59.7639883,104.503009 C61.5349201,102.964421 61.7876669,100.39089 60.3328106,98.7516864 C58.5144533,96.7048904 55.2454995,96.6042751 53.0321187,98.524518 C52.5024863,98.9871207 52.0580494,99.5090094 51.7036359,100.066527 L50.7074157,102.738962 C49.6410512,105.554197 46.5848023,107.260668 43.6924129,106.584864 C41.2791065,106.021361 39.9199533,103.594335 40.6594508,101.163605 C41.250708,99.2197046 43.2979574,98.0091849 45.2327487,98.4612415 C46.7779123,98.8220886 47.646907,100.375214 47.1737877,101.929764 C46.7946674,103.174772 45.4843596,103.948342 44.24732,103.661317 C43.2576315,103.429874 42.7027244,102.435691 43.0031808,101.439798 C43.2474081,100.643711 44.0857324,100.148045 44.8780512,100.332744 C45.5102023,100.479534 45.8674557,101.11686 45.6726418,101.754186 C45.5175859,102.264103 44.9808538,102.581626 44.4739402,102.461629 C44.4739402,102.461629 44.0533581,102.211658 44.1626924,101.594284 C44.2734466,100.976626 45.4854955,101.332342 44.997041,101.106884 C44.5085864,100.880571 44.0854484,101.031066 44.0854484,101.031066 C43.5248616,101.283032 43.268423,101.910667 43.5103784,102.431701 C43.8139586,103.082993 44.6247364,103.355196 45.3241919,103.041093 C46.2005703,102.647753 46.6015574,101.667537 46.2247091,100.853208 C45.7518737,99.8359381 44.4807559,99.4086791 43.3871288,99.9003548 C42.01974,100.515733 41.3912807,102.046341 41.9836738,103.320137 C42.7208995,104.909176 44.707944,105.577285 46.4149792,104.809131 C48.5522519,103.846586 49.5328529,101.45462 48.6093329,99.4642598 C47.4540811,96.9788037 44.3523945,95.9378764 41.6823655,97.1389902 C41.0422628,97.42801 40.4674768,97.7988332 39.9676628,98.2320778 L38.4508977,100.521719 C36.6359482,102.919956 33.2230139,103.690675 30.6398844,102.223344 C28.4824487,100.998003 27.861373,98.2848083 29.2548885,96.1630496 C30.3686785,94.4654146 32.6737865,93.8842397 34.4026885,94.866451 C35.7837086,95.6505668 36.1804359,97.3866807 35.2884384,98.7437056 C34.5747835,99.8302376 33.1006163,100.201916 31.9947778,99.5754213 C31.1095959,99.0723444 30.857417,97.9612999 31.4259554,97.0913903 C31.8845916,96.3970587 32.8279905,96.1601993 33.5362496,96.5606656 C34.1002442,96.8813236 34.2643877,97.593327 33.8986147,98.1499894 C33.605826,98.5946352 33.0017894,98.7474109 32.548833,98.4891743 C32.548833,98.4891743 32.2160023,98.1300373 32.4951598,97.5690995 C32.7743173,97.0075916 33.8372739,97.6916621 33.432879,97.3373706 C33.0282,96.9813689 32.5795034,97.0064515 32.5795034,97.0064515 C31.9700711,97.088825 31.5477851,97.6184096 31.6332647,98.1873282 C31.741463,98.8976214 32.4431905,99.388442 33.201999,99.2861165 C34.1527815,99.1567131 34.8138991,98.330413 34.681562,97.4422614 C34.5134427,96.332072 33.4149879,95.5622077 32.2270777,95.7238193 C30.742403,95.9261902 29.7089808,97.2159481 29.9182779,98.6060364 C30.1786924,100.33987 31.8970869,101.544119 33.7509424,101.291013 C36.0722376,100.97349 37.6855576,98.9574776 37.3598265,96.7864088 C36.9514558,94.0749244 34.2686475,92.1974359 31.3688744,92.5913465 C30.6733946,92.6882565 30.0173888,92.8809363 29.4164761,93.1542795 L27.9494084,94.8407983 C25.7726617,96.9146721 22.2813475,97.1230285 19.967152,95.2563711 C18.0346326,93.6981155 17.8574258,90.9205043 19.5732645,89.0515666 C20.945481,87.5560175 23.3136337,87.3556419 24.8619211,88.6037855 C26.0989608,89.6016733 26.2117029,91.3788315 25.113816,92.5748148 C24.2345978,93.5310883 22.7203886,93.6593515 21.7292802,92.8618394 C20.9372455,92.2228035 20.8653972,91.0852513 21.5671247,90.3190923 C22.1311193,89.7079893 23.1000769,89.6259008 23.7347838,90.1375286 C24.2408455,90.5445505 24.287987,91.2736557 23.8373025,91.7639062 C23.4772092,92.1549665 22.8564175,92.2071269 22.4503187,91.8801982 C22.4503187,91.8801982 22.1796808,91.4726062 22.5454537,90.9621186 C22.9112267,90.4541962 23.8506498,91.3018736 23.5078796,90.8865858 C23.1653935,90.4693028 22.7189687,90.4214178 22.7189687,90.4214178 C22.1047087,90.4043161 21.6029068,90.8580828 21.5955232,91.4335571 C21.5881396,92.1524012 22.2021156,92.7503929 22.9671718,92.771485 C23.9270418,92.7985628 24.711409,92.0891247 24.7233364,91.1918522 C24.7355477,90.0682664 23.7751097,89.1308048 22.5772601,89.0988815 C21.0792381,89.0584074 19.8524219,90.1643213 19.8353828,91.5709413 C19.8146519,93.3233019 21.3163657,94.789493 23.1878283,94.8390881 C25.5292864,94.9015096 27.4456186,93.1725214 27.4725972,90.9780802 C27.5041196,88.2349575 25.1581177,85.9478818 22.232786,85.8677885 C21.5304906,85.8512568 20.8526179,85.9353405 20.215639,86.1083533 L17.8608336,87.512408 C15.1891007,88.8845394 11.7804261,88.094438 10.0858863,85.6483159 C8.67050403,83.6060804 9.28249217,80.8906055 11.4544111,79.585171 C13.1912647,78.5382581 15.5196595,79.0173925 16.6536124,80.6540312 C17.5589573,81.962031 17.1673417,83.698715 15.777802,84.5344211 C14.665148,85.203385 13.1764975,84.8969785 12.4509152,83.8514907 C11.8698815,83.0132193 12.1220603,81.9018898 13.0100821,81.3657495 C13.723169,80.9387755 14.6756554,81.1351607 15.1411072,81.8055498 C15.5114239,82.3391248 15.3512562,83.0522683 14.7812979,83.3937335 C14.3255016,83.6679318 13.7155014,83.5428039 13.4187368,83.1126946 C13.4187368,83.1126946 13.2733364,82.6449614 13.7677547,82.2601717 C14.261321,81.8759521 14.9238585,82.9556434 14.7120055,82.4602623 C14.5007205,81.962601 14.0863861,81.7893032 14.0863861,81.7893032 C13.5022285,81.5997586 12.8925122,81.8927688 12.723825,82.4425905 C12.5142439,83.1300814 12.93511,83.8777134 13.6629641,84.1148578 C14.5756926,84.4118585 15.528179,83.9555264 15.7925693,83.097303 C16.1202882,82.0238823 15.4625785,80.8518415 14.3220938,80.4801632 C12.896772,80.0175606 11.4084055,80.7312741 10.9974789,82.0757577 C10.4840336,83.7505903 11.5126281,85.5833292 13.2926474,86.1607987 C15.5216474,86.8842033 17.8460664,85.7688833 18.4895769,83.6710671 C19.2924031,81.0490819 17.6844788,78.1902372 14.9017076,77.2841288 C14.2323545,77.0697867 13.5581736,76.9580552 12.8984759,76.9426636 L10.2054441,77.5779941 C7.25739359,78.1377918 4.20938026,76.4153593 3.27024115,73.5884379 C2.4872939,71.2286797 3.83650767,68.7970941 6.28815204,68.1580583 C8.24850199,67.6467156 10.3471527,68.7654559 10.9750441,70.6569108 C11.476562,72.1678515 10.6123949,73.7235419 9.04451256,74.1314189 C7.7892979,74.4580626 6.44718376,73.7429239 6.04420874,72.5341143 C5.72302146,71.5655845 6.27707662,70.5708319 7.2801124,70.3071798 C8.08407455,70.0999634 8.94256186,70.5582906 9.20098841,71.3332855 C9.40659371,71.9509442 9.05218016,72.5891249 8.40895364,72.7552971 C7.89522438,72.8895459 7.34429306,72.5956806 7.18156953,72.1002996 C7.18156953,72.1002996 7.17304998,71.609764 7.75607163,71.3811705 C8.33738937,71.1520068 8.66965207,72.3750679 8.60518743,71.8389276 C8.54214271,71.3030724 8.19284089,71.0206083 8.19284089,71.0206083 C7.68592728,70.6723024 7.01884601,70.7803285 6.70248647,71.260318 C6.30831499,71.8603048 6.50170893,72.6974361 7.13386002,73.1306808 C7.9256108,73.6742318 8.96755256,73.5054944 9.46282278,72.7567222 C10.0790707,71.8201157 9.77719441,70.5095506 8.78778992,69.8306106 C7.55018235,68.9829333 5.9220951,69.2454453 5.14908734,70.4194813 C4.18580948,71.881397 4.65722494,73.9299031 6.20352445,74.9887873 C8.13831573,76.3136038 10.6819713,75.9020214 11.8886245,74.0709927 C13.3954501,71.7822068 12.6576565,68.5850323 10.2412263,66.9278715 C9.6601925,66.5319657 9.04479654,66.234395 8.41633726,66.0340193 L5.67786781,65.9331189 C2.69204725,65.6349782 0.25289822,63.1181688 0.148391661,60.1404669 C0.0603562434,57.6541557 2.03944922,55.7039847 4.57032547,55.7863582 C6.59485608,55.8513449 8.29393963,57.5193368 8.36379999,59.5119772 C8.42002906,61.1030111 7.15288703,62.3508697 5.53445528,62.2981393 C4.23806276,62.2553849 3.15181931,61.1899451 3.10581371,59.9152937 C3.06974758,58.8957436 3.88166132,58.0985165 4.9173554,58.1295847 C5.74744419,58.1586577 6.44150406,58.8415881 6.47075454,59.6576272 C6.49432531,60.3083492 5.97520033,60.8208321 5.31152688,60.7974596 C4.78075851,60.7800729 4.33490172,60.3434078 4.3181466,59.8215191 C4.3181466,59.8215191 4.4487798,59.3483703 5.0709914,59.2927896 C5.69377098,59.239204 5.6684963,60.5061596 5.75795164,59.9751499 C5.84797496,59.4418599 5.5935242,59.0716068 5.5935242,59.0716068 C5.20418047,58.5941826 4.53397536,58.5083887 4.09578617,58.879497 C3.5476947,59.3432398 3.49856526,60.2008932 3.98276005,60.7963195 C4.58935248,61.5422414 5.63697394,61.6753501 6.3216623,61.0978806 C7.17674179,60.3733359 7.25597366,59.0308476 6.4983011,58.0996566 C5.54922251,56.9347415 3.91346766,56.7252449 2.84227543,57.6322084 C1.50669295,58.7612098 1.38230743,60.8610212 2.56766172,62.3155261 C4.05034854,64.1340135 6.60706744,64.4595171 8.28030834,63.0457714 C10.3690196,61.2785892 10.5604256,58.0010364 8.70912601,55.7270721 C8.26298524,55.1820959 7.75635561,54.7223435 7.20968407,54.3518053 L4.04466883,53.2008567 C1.33630182,52.2015437 -0.406515453,49.3318679 0.0819391199,46.4884149 C0.502521226,44.0365922 2.83716369,42.5344874 5.29817958,43.1341892 C7.26704908,43.6136086 8.58985222,45.5954178 8.25247779,47.5598403 C7.98240785,49.1294971 6.48864561,50.0903311 4.91451555,49.7061115 C3.65475713,49.3979948 2.80848118,48.1310392 3.02289002,46.8749147 C3.19583702,45.8696161 4.15258321,45.2553778 5.16073073,45.499933 C5.96668078,45.6980284 6.50738863,46.5083669 6.36993979,47.31386 C6.26060548,47.9554611 5.64804936,48.3499417 5.00226698,48.1926055 C4.48626584,48.0663375 4.13923591,47.5464439 4.22925922,47.0316809 C4.22925922,47.0316809 4.45303957,46.595871 5.07383126,46.6699786 C5.69405497,46.7440862 5.41120569,47.9794036 5.60687151,47.4777518 C5.80395725,46.97496 5.62959033,46.5596722 5.62959033,46.5596722 C5.34617308,46.0129859 4.7080583,45.791233 4.20256461,46.0640061 C3.5726854,46.4060414 3.34918904,47.2349068 3.70189868,47.9166971 C4.14463163,48.7732104 5.14255568,49.1180959 5.93089864,48.6928321 C6.91490742,48.158687 7.26591314,46.8615183 6.7135619,45.7937983 C6.02290985,44.4590057 4.46326304,43.9191601 3.22991525,44.5861288 C1.69241928,45.4178445 1.14347586,47.4463986 2.00735889,49.1132504 C3.08792264,51.1988104 5.52366384,52.0427823 7.45021955,51.0018551 C9.85529035,49.7004109 10.7103698,46.5317393 9.36115607,43.9254307 C9.05388407,43.3351349 8.67760366,42.8075455 8.24963793,42.3512135 L5.0076627,40.5637943 C3.40456615,39.0702403 2.69204725,36.7697682 3.37361177,34.6348982 C4.11651709,32.304783 6.65193711,31.1016741 9.03741292,31.9473562 C10.9457936,32.6231609 12.0107381,34.6847783 11.4146532,36.5517208 C10.938126,38.0424244 9.31657039,38.8125738 7.79100181,38.271018 C6.56929741,37.8372032 5.88886883,36.5195124 6.26798909,35.3255244 C6.5732732,34.3695359 7.61152315,33.8781452 8.58956824,34.2224607 C9.36995961,34.5017895 9.80559294,35.3457615 9.56278558,36.1107803 C9.3682557,36.7196031 8.70259435,37.0365557 8.07669094,36.8142328 C7.5780129,36.6363745 7.29828746,36.0962438 7.4550473,35.6068484 C7.4550473,35.6068484 7.73676063,35.2086623 8.34903276,35.3477567 C8.96016895,35.486566 8.51488013,36.6529062 8.77586254,36.1874532 C9.03968481,35.7214302 8.92012703,35.3004418 8.92012703,35.3004418 C8.70770609,34.740074 8.09742186,34.457895 7.55614604,34.6673916 C6.88026122,34.9310437 6.54771453,35.709744 6.81125281,36.408351 C7.14152762,37.2836762 8.09571795,37.7254717 8.94142592,37.3988281 C9.99728296,36.9883858 10.5192478,35.7690301 10.1060493,34.6759424 C9.58862823,33.3083715 8.09884178,32.6177453 6.77575466,33.1310832 C5.12693649,33.7706891 4.31133095,35.6772506 4.95739732,37.3834365 C5.76618722,39.5197317 8.09401404,40.5994229 10.1597225,39.7984904 C12.7391602,38.7974672 14.01113,35.8200504 13.0024145,33.1516053 C12.7590392,32.5117144 12.4281964,31.9311095 12.0306171,31.421477 L10.3491406,29.8384239 C8.85225456,28.1239722 8.34136516,25.6687291 9.23932641,23.561792 C10.2065801,21.2926731 12.8496305,20.3848545 15.144231,21.5360882 C16.9799115,22.456448 17.8409546,24.6765418 17.065675,26.4944592 C16.4463032,27.9472539 14.7554553,28.5272887 13.2872517,27.7904878 C12.1129728,27.201047 11.5626095,25.7810307 12.0564598,24.6181108 C12.4529031,23.6877749 13.5357388,23.3175218 14.4762978,23.7866801 C15.2271547,24.1660542 15.5790124,25.0747279 15.2623689,25.8197947 C15.009906,26.4132258 14.3164141,26.6523655 13.7146494,26.3496643 C13.2332945,26.1082444 13.0075263,25.5259294 13.2117116,25.0499303 C13.2117116,25.0499303 13.531195,24.6808173 14.1275639,24.8974396 C14.7236489,25.1129218 14.165902,26.239928 14.472038,25.8006977 C14.779878,25.3611824 14.7006461,24.9199569 14.7006461,24.9199569 C14.5447382,24.3256707 13.9634205,23.9642534 13.4036856,24.1101885 C12.704514,24.2937474 12.2975632,25.0416645 12.4923771,25.7821708 C12.7366044,26.7105115 13.6445051,27.2754397 14.5180436,27.0491264 C15.6102508,26.7626719 16.2489335,25.5917712 15.9433654,24.4322717 C15.5611213,22.9840374 14.1431831,22.0993062 12.7757943,22.4570181 C11.0710311,22.902234 10.0722551,24.7332627 10.5502022,26.5429142 C11.148559,28.8074726 13.3636437,30.1878699 15.4992125,29.6309225 C18.1669697,28.9334556 19.7237766,26.0737558 18.9780314,23.2439842 C18.8073563,22.6040932 18.5554614,22.0086669 18.2362621,21.4682512 C18.2362621,21.4682512 17.2374861,20.1106563 17.2451537,20.0436744 L17.2139153,20.0029152 C16.605335,18.7428003 16.1004092,17.2709086 16.4448833,15.9090382 C17.0432402,13.5421543 19.4704618,12.3430357 21.8670131,13.2311872 C23.7841973,13.9414804 24.9502406,16.0546882 24.4703055,17.9512737 C24.0866415,19.4659198 22.5340943,20.2329339 21.0011421,19.6645853 C19.774326,19.2085383 19.0288648,17.857499 19.3338649,16.644414 C19.5795121,15.673889 20.5737444,15.1842085 21.5557653,15.5461958 C22.3401324,15.839206 22.8172276,16.7045552 22.6212778,17.4815453 C22.4650859,18.100059 21.8283911,18.4161566 21.2002158,18.1827176 C20.6972779,17.9957383 20.3914259,17.4416412 20.5183673,16.94512 C20.5183673,16.94512 20.772534,16.5420885 21.3833862,16.6905888 C21.9933865,16.8388041 21.6210819,18.0228161 21.8522458,17.5508074 C22.0851137,17.0787988 21.9422691,16.6486895 21.9422691,16.6486895 C21.7023016,16.0749253 21.0843498,15.78049 20.5640889,15.9882764 C19.9137627,16.2490783 19.6309135,17.0394647 19.9299499,17.7543184 C20.3056623,18.6507358 21.2703601,19.1113433 22.0834098,18.78812 C23.0995089,18.3805279 23.5439458,17.1440705 23.0742342,16.0244751 C22.4875208,14.6255509 20.9809792,13.9044266 19.7081574,14.412919 C18.121816,15.0473944 17.4269042,16.9816038 18.161006,18.7291189 C19.0791302,20.9155792 21.4327997,22.0414453 23.4204122,21.2479235 C24.8891837,20.6601929 25.8677968,19.3627392 26.1841563,17.8346967 L26.2122709,17.3738042 C26.2122709,17.3738042 26.0055296,16.013359 25.5616607,15.2651569 C25.5616607,15.2651569 24.0335363,11.9539706 24.2385736,10.6257337 C24.5060877,8.8919 25.8808601,7.46703815 27.5251345,6.73194739 C29.7896326,5.71980807 32.3321523,6.83227773 33.2034189,9.21854367 C33.9011706,11.1271004 32.9961097,13.3323727 31.1811602,14.1435663 C29.7314157,14.791153 28.1053163,14.0794347 27.5481373,12.5522473 C27.1022805,11.3306113 27.6810424,9.92028599 28.840838,9.40039241 C29.7694697,8.98510461 30.8099915,9.4420067 31.1686648,10.4182323 C31.4520821,11.201208 31.0811974,12.103611 30.3385761,12.4365253 C29.7461829,12.7016027 29.0785336,12.4100176 28.8504935,11.7840931 C28.667891,11.2832965 28.9055866,10.7052569 29.3815459,10.4934801 C29.3815459,10.4934801 29.8668766,10.4381844 30.1508618,10.997127 C30.4342791,11.5563546 29.2534685,12.0069861 29.7782732,11.8909791 C30.3042138,11.7761123 30.550997,11.3995885 30.550997,11.3995885 C30.8469096,10.8591728 30.6742466,10.2033202 30.167617,9.9339674 C29.5343299,9.59848783 28.7238361,9.87297112 28.3549393,10.5462105 C27.8926114,11.3904675 28.1615454,12.4154332 28.9518762,12.8364215 C29.9407128,13.3611606 31.2109786,12.9327615 31.7880366,11.8781528 C32.5087911,10.5596069 32.0896289,8.95859688 30.8511694,8.30103411 C29.3079937,7.48043453 27.3220851,8.1505386 26.4224199,9.79772336 C25.2964185,11.8587708 25.9521404,14.3596185 27.8846598,15.3877195 C30.2999541,16.6706367 33.3990847,15.6225837 34.8073674,13.0479133 C35.1438899,12.4291146 35.3790297,11.7855182 35.5173305,11.1382165 L35.0385314,8.95090109 C34.6724744,5.96236807 36.5814231,3.02029485 39.4522296,2.26297179 C41.8499168,1.62992155 44.1805835,3.1391521 44.6573947,5.63515435 C45.0390708,7.6315001 43.7918077,9.66176435 41.8709317,10.1685466 C40.3359916,10.5732883 38.8450692,9.60732374 38.5403531,8.01058917 C38.2969778,6.73251745 39.0944082,5.43420864 40.3226443,5.10870509 C41.3055171,4.84961339 42.2588555,5.46812713 42.4562252,6.49024248 C42.6104292,7.30827679 42.0995398,8.13885239 41.3129008,8.34749389 C40.6858614,8.51309596 40.0735893,8.11776022 39.9492038,7.46276271 C39.8498089,6.93916375 40.1763919,6.4070139 40.6798977,6.2750453 C40.6798977,6.2750453 41.1683523,6.29870274 41.3586224,6.89669437 C41.5488925,7.49440097 40.3112849,7.74836215 40.847733,7.71843406 C41.385033,7.69021615 41.6891812,7.35844196 41.6891812,7.35844196 C42.0680175,6.87303693 42.0029848,6.19780234 41.5463366,5.8500665 C40.9749584,5.41625179 40.1309543,5.55620121 39.6589709,6.16103355 C39.0671457,6.91978175 39.1682444,7.97410541 39.8801953,8.51794146 C40.7724769,9.19602635 42.0944281,8.97826391 42.8330736,8.03054123 C43.7560256,6.84624417 43.5995497,5.19791928 42.4829199,4.34853174 C41.0916763,3.28964761 39.0239799,3.62940263 37.8715679,5.10984521 C36.429491,6.9619661 36.6748542,9.53635142 38.4176715,10.8637332 C40.5952701,12.5200389 43.8224781,11.986749 45.6252163,9.67373558 C46.0565898,9.11735824 46.3922603,8.51993667 46.6325118,7.90341813 L46.9085455,5.16742114 C47.39842,2.19684498 50.0573735,-0.0845301504 53.0244511,0.00240380942 C55.5022221,0.0748012711 57.3134798,2.18316357 57.0681166,4.71251426 C56.8733027,6.73622283 55.1052108,8.3301071 53.1201541,8.27224614 C51.5338127,8.22493126 50.375437,6.87617225 50.5324808,5.25777545 C50.6585703,3.962887 51.7888314,2.94362195 53.0582453,2.97925062 C54.0749124,3.0091787 54.8149779,3.87310274 54.716435,4.90918453 C54.6346473,5.73776492 53.910485,6.38991214 53.0974353,6.36710979 C52.449381,6.34829785 51.9731378,5.79534086 52.0378865,5.13150744 C52.0898557,4.6013528 52.5533196,4.18349973 53.0738645,4.19974641 C53.0738645,4.19974641 53.5350565,4.36078801 53.5492558,4.98785263 C53.563455,5.61520229 52.3048326,5.50803125 52.8279333,5.63144897 C53.3513181,5.75686189 53.736686,5.52513301 53.736686,5.52513301 C54.2365,5.16656605 54.3640094,4.50073743 54.0240791,4.03756469 C53.5978172,3.45952512 52.7487014,3.35463431 52.1259219,3.80099031 C51.3446785,4.36050298 51.144469,5.40114523 51.6749533,6.12426476 C52.3397627,7.02723782 53.6696655,7.19340995 54.6445868,6.49394786 C55.8637353,5.6191927 56.177255,3.9939552 55.3446103,2.8626736 C54.3089162,1.45177819 52.2290085,1.19240146 50.7071317,2.28520409 C48.8024429,3.65334509 48.3137043,6.19295684 49.6118007,7.95956891 C51.2344923,10.1662663 54.4801593,10.5692979 56.8608074,8.86168689 C57.4313337,8.4503895 57.9206402,7.97211021 58.3250352,7.44879627 L59.5629267,4.88039656 C60.883742,2.17632286 64.0839714,0.759726863 66.9013887,1.70003878 C69.2533543,2.48557974 70.3833314,5.02775675 69.4237454,7.37953413 C68.6558494,9.26101305 66.5063653,10.2771428 64.6212714,9.64722785 C63.1158658,9.14472106 62.3931234,7.51805841 63.0073834,6.01367336 C63.4995298,4.80970927 64.8748702,4.16012732 66.0806714,4.56116366 C67.0445173,4.88296182 67.5059932,5.92445917 67.1146616,6.88842852 C66.7985861,7.65829286 65.9182319,8.07358066 65.1463601,7.8167692 C64.5303961,7.61154804 64.2330636,6.94429427 64.4855265,6.32777573 C64.686872,5.83438988 65.2508666,5.56788742 65.7444329,5.73377451 C65.7444329,5.73377451 66.1403083,6.02193921 65.9747449,6.62677155 C65.8077616,7.23160389 64.6334828,6.7650108 65.0989345,7.03464859 C65.5641023,7.30542649 66.0000196,7.19455007 66.0000196,7.19455007 C66.5807694,6.99559956 66.8942891,6.39504267 66.7008951,5.85320182 C66.4592237,5.17654208 65.6765605,4.83108648 64.9509782,5.07849198 C64.0427935,5.38888897 63.552919,6.3274907 63.8530914,7.17374292 C64.2307917,8.23034682 65.4570399,8.77361281 66.5915608,8.38511777 C68.009499,7.89971274 68.7756911,6.4332366 68.3034237,5.10956018 C67.7152903,3.45924009 65.7981061,2.60985255 64.0271743,3.21753518 C61.8106697,3.97770852 60.6150919,6.26791956 61.3508976,8.33580769 C62.2727137,10.9173188 65.2659178,12.2409952 68.0347737,11.2927024 C68.6987311,11.0635388 69.3053236,10.7474412 69.8426236,10.3629366 L71.563574,8.22322109 C73.5912284,6.0034123 77.0601079,5.5522108 79.497837,7.25241103 C81.533443,8.67242738 81.9023398,11.4317968 80.3196902,13.4156012 C79.0542521,15.0029298 76.7056943,15.3683375 75.0747672,14.2299302 C73.771843,13.3206865 73.5364193,11.5557846 74.5491106,10.2868338 C75.3593204,9.2712741 76.8618862,9.03755002 77.9049639,9.76380487 C78.7404484,10.3461199 78.8889727,11.4762614 78.2431903,12.2897352 C77.7229294,12.9387471 76.7610714,13.0875324 76.0931382,12.6223645 C75.5606659,12.2509712 75.463259,11.5269966 75.8787294,11.0065329 C76.2109921,10.5909601 76.826388,10.4951902 77.2532178,10.7941861 C77.2532178,10.7941861 77.5519703,11.1826811 77.2225474,11.715401 C76.8925566,12.248976 75.8971884,11.4685656 76.2677891,11.8584858 C76.6378219,12.2506862 77.0868025,12.2677879 77.0868025,12.2677879 C77.7010625,12.2421353 78.1702061,11.75388 78.1375478,11.1798308 C78.094666,10.4621268 77.441784,9.90831476 76.6764438,9.94052308 C75.7177098,9.98071222 74.983324,10.7425957 75.0341573,11.6390131 C75.0991899,12.7600337 76.1221047,13.6285182 77.3196704,13.577783 C78.8168404,13.5139364 79.9641407,12.3245088 79.8832049,10.9204541 C79.7840941,9.17065873 78.1832694,7.81249376 76.3137947,7.8934421 C73.9737565,7.99405747 72.1815258,9.852449 72.3067633,12.0443249 C72.4640911,14.7823171 74.9623091,16.9003704 77.8862209,16.7760976 C78.5879483,16.7441743 79.2584374,16.6130608 79.881501,16.3961534 L81.4982288,14.8524343 C83.8558741,12.9900524 87.3517321,13.1054893 89.4844611,15.1779379 C91.2656164,16.9086362 91.1866685,19.691093 89.3061184,21.3932885 C87.8021327,22.7554438 85.4257444,22.7360619 83.9987187,21.3488239 C82.85937,20.2406297 82.9099193,18.4606212 84.1131647,17.371809 C85.0761586,16.5013293 86.5960475,16.5135855 87.5096279,17.3991718 C88.2394699,18.10918 88.2059596,19.2481574 87.4372117,19.9464793 C86.8192598,20.5025717 85.8468945,20.4943058 85.2621689,19.9268123 C84.7958652,19.4744707 84.8160281,18.7439404 85.3098784,18.2978694 C85.7037659,17.9410126 86.3276814,17.9461432 86.701122,18.3101257 C86.701122,18.3101257 86.9331379,18.7413751 86.5222113,19.215094 C86.1112847,19.6876727 85.2536493,18.7561967 85.5569455,19.2016976 C85.8596738,19.6483386 86.2995669,19.7372678 86.2995669,19.7372678 C86.9098511,19.8116604 87.4511269,19.4060636 87.5113318,18.8340097 C87.5846,18.118586 87.028273,17.4664387 86.2688965,17.3746593 C85.3155581,17.2592224 84.4692822,17.8919876 84.3749991,18.7852697 C84.2591331,19.9020148 85.1292638,20.9247002 86.3194459,21.0680699 C87.8072444,21.2470684 89.1306155,20.2591566 89.2765839,18.8599474 C89.4583345,17.1172778 88.0980453,15.5179779 86.239362,15.29537 C83.9132391,15.0163262 81.8463947,16.5606154 81.6175026,18.7439404 C81.3343694,21.4719566 83.4599987,23.9665337 86.3651675,24.3168348 C87.0629192,24.3986382 87.7456196,24.377546 88.3962297,24.2641043 L90.870025,23.0840827 C93.6559199,21.9659125 96.977979,23.067836 98.4402189,25.6601782 C99.6616393,27.8249763 98.802868,30.4720442 96.5201948,31.5714025 C94.6941699,32.4521432 92.4200163,31.7598069 91.4414032,30.0251181 C90.6598759,28.6390202 91.2096713,26.9459457 92.6702073,26.2424932 C93.8393744,25.6798453 95.2933787,26.1222108 95.9201341,27.2306901 C96.421936,28.1191267 96.0680904,29.2025233 95.134631,29.6545799 C94.3857619,30.0128618 93.4548584,29.7289726 93.0533033,29.0189644 C92.733536,28.452611 92.9581683,27.7577094 93.557945,27.4698297 C94.0361761,27.239241 94.6331131,27.4208047 94.8886998,27.8762816 C94.8886998,27.8762816 94.9900825,28.355701 94.4627219,28.6931758 C93.9359294,29.0300805 93.3753425,27.8939534 93.5406219,28.4067213 C93.7053334,28.9211993 94.1023447,29.131836 94.1023447,29.131836 C94.6663393,29.3752511 95.3001943,29.1398169 95.5191469,28.607952 C95.7903528,27.9426935 95.4401991,27.1597178 94.7373356,26.8555914 C93.8555615,26.4750772 92.8655891,26.842195 92.5233869,27.6719156 C92.098545,28.7105626 92.6455005,29.9384692 93.7467952,30.4138982 C95.1232716,31.0064742 96.671275,30.4341353 97.2040312,29.1332612 C97.8694086,27.5134392 97.0134772,25.5937664 95.2939467,24.8532601 C93.1416227,23.9263445 90.7243406,24.8216218 89.89056,26.851316 C88.8503221,29.3875074 90.1881765,32.3825961 92.8758126,33.5423806 C93.5230149,33.8188591 94.1838485,33.9918719 94.8390024,34.0679748 L97.5794597,33.6848953 C100.566132,33.400436 103.442902,35.3976368 104.117935,38.2995209 C104.681078,40.7225556 103.113764,43.0184673 100.613842,43.4277694 C98.6148698,43.7549832 96.6278252,42.4472684 96.1768567,40.5053632 C95.8164795,38.9545184 96.8195153,37.485762 98.418352,37.2246751 C99.6982734,37.0154636 100.968823,37.8517397 101.25934,39.0930427 C101.489936,40.0869401 100.846994,41.0261119 99.8237949,41.1954194 C99.0042135,41.3271029 98.1911639,40.7918178 98.0057215,39.9963008 C97.8574812,39.3629655 98.2686918,38.7598433 98.9249816,38.6532424 C99.4489344,38.5677335 99.9703312,38.9106239 100.087333,39.4194013 C100.087333,39.4194013 100.050131,39.9087968 99.4486504,40.0826647 C98.8485896,40.2571027 98.630205,39.0081039 98.6452562,39.5473795 C98.6583195,40.0875102 98.9803588,40.4010425 98.9803588,40.4010425 C99.4529102,40.7952381 100.127091,40.7487783 100.486616,40.3004271 C100.934177,39.7392043 100.818595,38.8883916 100.229326,38.3981411 C99.4901122,37.7830477 98.437379,37.8551601 97.8756563,38.5543372 C97.1759167,39.4302324 97.3556793,40.7630298 98.2789153,41.5306139 C99.4330312,42.4894527 101.078442,42.3785763 101.955956,41.2817833 C103.049583,39.9156375 102.768154,37.8315027 101.326077,36.6338092 C99.5213506,35.1359798 96.9504324,35.3101328 95.5807717,37.0217342 C93.8697608,39.1605946 94.3110738,42.4133499 96.5644965,44.286563 C97.1066243,44.7346291 97.6922018,45.0877805 98.2996462,45.3457321 L101.016817,45.6994536 C103.962595,46.2732177 106.160357,49.0046542 105.990818,51.9792208 C105.849677,54.4635368 103.699341,56.2218831 101.186924,55.9057855 C99.1771605,55.6529644 97.6385286,53.8356171 97.7521227,51.8446869 C97.842714,50.2547931 99.2189063,49.1303522 100.825411,49.332723 C102.112716,49.4949047 103.095873,50.6572545 103.024592,51.9299107 C102.966659,52.9486057 102.085737,53.6677348 101.056859,53.5403267 C100.233302,53.4348658 99.6048423,52.6900841 99.6502799,51.8751851 C99.687198,51.2253181 100.250909,50.7635705 100.909754,50.8470841 C101.436547,50.913781 101.840658,51.38978 101.809136,51.9113838 C101.809136,51.9113838 101.635621,52.3699961 101.010853,52.3671458 C100.385802,52.3634404 100.52751,51.1041806 100.389493,51.6252143 C100.251193,52.1471031 100.470145,52.5401586 100.470145,52.5401586 C100.813767,53.0506462 101.473749,53.1982914 101.944028,52.8696526 C102.531878,52.4580701 102.659955,51.6092527 102.232273,50.9716419 C101.696961,50.1724196 100.666379,49.9429709 99.9317092,50.4545987 C99.0133011,51.0970549 98.8111036,52.4267169 99.4798888,53.4237497 C100.317645,54.6710382 101.927557,55.0310303 103.07713,54.2275325 C104.511255,53.2270794 104.827898,51.1477901 103.781129,49.5906746 C102.471673,47.6413587 99.956416,47.0804209 98.1604934,48.3336951 C95.9175782,49.9002165 95.4262838,53.145846 97.0609027,55.5817071 C97.4545062,56.1657323 97.9165501,56.6699492 98.4268716,57.0897975 L101.472613,58.5283408 C104.077609,59.7753443 105.549221,62.7938054 104.801204,65.5796825 C104.157125,67.9819101 101.694121,69.261692 99.2989902,68.4362469 C97.3829419,67.776974 96.247285,65.681153 96.7644221,63.7563496 C97.1776206,62.2183311 98.7534546,61.3997267 100.285271,61.9284562 C101.511235,62.3517248 102.237385,63.6910779 101.90853,64.9221198 C101.643856,65.9077513 100.635141,66.4302102 99.6534037,66.0938755 C98.8693205,65.8219575 98.4050047,64.9645891 98.6162897,64.1753428 C98.784409,63.546568 99.4301914,63.2105183 100.058935,63.4271407 C100.561304,63.6004385 100.858921,64.1502602 100.72204,64.6547622 C100.72204,64.6547622 100.45907,65.0674847 99.8476496,64.9360862 C99.2370814,64.8049727 99.6321048,63.6015786 99.3912854,64.0829933 C99.149046,64.565548 99.283939,64.9948022 99.283939,64.9948022 C99.5162389,65.5654311 100.131067,65.8453299 100.659279,65.6204417 C101.318125,65.3382626 101.616594,64.5336247 101.328349,63.8219064 C100.966267,62.9286243 100.004409,62.4925293 99.1802844,62.8431155 C98.1508379,63.2832008 97.6822623,64.5427457 98.1343668,65.6572105 C98.6994974,67.049864 100.202631,67.7322244 101.491924,67.1824027 C103.099564,66.496622 103.833098,64.527069 103.125975,62.7878198 C102.241361,60.6107654 99.8933712,59.5447555 97.8799161,60.402979 C95.365227,61.4763996 94.2224704,64.5521516 95.326321,67.272472 C95.363807,67.3642514 95.403281,67.4548908 95.4438909,67.544675 L99.7624541,71.0137676 C100.947808,72.3516955 101.535942,74.1832943 101.196295,76.0040619 C100.740783,78.4450535 98.3749023,79.9417427 95.9104786,79.3480266 C93.9390532,78.8728826 92.6355611,76.9030446 93.000766,74.947173 C93.2929868,73.385212 94.8060601,72.4277983 96.38303,72.8083125 C97.6447763,73.1130089 98.4774209,74.3728388 98.245973,75.6226926 C98.0588267,76.6248559 97.0895852,77.2362439 96.0794498,76.994539 C95.2737837,76.7975837 94.7401755,75.9906655 94.8884158,75.190018 C95.0076896,74.5518372 95.6287652,74.1582117 96.2753996,74.3141227 C96.7905488,74.4395357 97.132467,74.9560089 97.03648,75.4682067 C97.03648,75.4682067 96.805032,75.9031615 96.1825364,75.8293389 C95.5603248,75.7558013 95.8607812,74.5258996 95.6577317,75.0261261 C95.4526944,75.5269227 95.6222336,75.9399303 95.6222336,75.9399303 C95.9002551,76.4837664 96.5383699,76.7029539 97.0495433,76.4307509 C97.6873741,76.0898558 97.9225138,75.2649807 97.5771878,74.5863258 C97.1443943,73.7363682 96.1467543,73.3937629 95.3484718,73.8173165 C94.3522517,74.3497514 93.982219,75.6415045 94.5226428,76.7029539 C95.1996636,78.0300507 96.7593104,78.566191 98.0074254,77.9012174 C99.5628124,77.072352 100.141574,75.0520638 99.2961503,73.394903 C98.2374534,71.3207442 95.8017122,70.483898 93.8530057,71.52226 C91.4184004,72.8188586 90.5173153,75.9727087 91.8384146,78.5639107 C92.0153373,78.9102214 92.2172508,79.2342998 92.4401792,79.5355759" id="Stroke-329" stroke="#63B9D8" stroke-width="0.1"></path>
                            <path d="M82,88 L81.0501378,87.4570961 C81.0501378,87.4570961 80.6765683,86.1807719 81.9688394,87.8936018 L82,88 Z" id="Fill-335" fill="#63B9D8"></path>
                            <path d="M82,88 C82,88 81.0986761,87.7273792 81.0129764,87.3067004 C80.9257992,86.8867675 81.2804184,86.7200623 82,88" id="Fill-337" fill="#63B9D8"></path>
                            <path d="M81.9954932,88 L81,87.3000452 C81,87.3000452 81.0610916,86.3138502 82,87.917323 L81.9954932,88 Z" id="Fill-339" fill="#63B9D8"></path>
                            <path d="M83,87 C83,87 81.930826,86.5540546 82.0035484,86.2094193 C82.0778181,85.8653871 82.6203994,85.8313156 83,87" id="Fill-341" fill="#63B9D8"></path>
                            <path d="M88,90.8697423 L86.0366846,90 L86,91.9998953 C86,91.9998953 87.5294442,92.0340315 88,90.8697423" id="Fill-347" fill="#63B9D8"></path>
                            <path d="M89,91 C89,91 89.808507,91.08178 89.9597842,91.5795922 C90.1110615,92.0783553 89.845055,92.3850304 89,91" id="Fill-349" fill="#63B9D8"></path>
                            <path d="M88,92 L88.9834254,92.6254396 C88.9834254,92.6254396 89.206188,93.7536836 88.0183932,92.0938926 L88,92 Z" id="Fill-351" fill="#63B9D8"></path>
                            <path d="M88,92 C88,92 88.9844022,92.3734469 88.9995336,92.7508247 C89.0163942,93.1272199 88.5741265,93.2173057 88,92" id="Fill-353" fill="#63B9D8"></path>
                            <path d="M72,94.1916606 L74,95 L73.9571705,93 C73.9571705,93 72.424703,93.0131675 72,94.1916606" id="Fill-363" fill="#63B9D8"></path>
                            <path d="M72,95 C72,95 71.2051226,94.9586013 71.0450236,94.4453566 C70.8852367,93.9301168 71.1386487,93.5944378 72,95" id="Fill-365" fill="#63B9D8"></path>
                            <path d="M72,94 L71.0228086,93.3890565 C71.0228086,93.3890565 70.7656112,92.2343062 71.9785669,93.9036392 L72,94 Z" id="Fill-367" fill="#63B9D8"></path>
                            <path d="M73,94 C73,94 72.0335311,93.6447343 72.0018025,93.2596396 C71.9688215,92.8748802 72.3917299,92.7709817 73,94" id="Fill-369" fill="#63B9D8"></path>
                            <path d="M78,97.9570859 L76.1460674,97 L76,98.99763 C76,98.99763 77.4799358,99.1001226 78,97.9570859" id="Fill-379" fill="#63B9D8"></path>
                            <path d="M78,99 C78,99 78.828243,99.133405 78.9663381,99.6108074 C79.1050876,100.088656 78.8210438,100.358143 78,99" id="Fill-381" fill="#63B9D8"></path>
                            <path d="M78,99 L78.991229,99.644598 C78.991229,99.644598 79.1602758,100.737212 78.0140872,99.0909284 L78,99 Z" id="Fill-383" fill="#63B9D8"></path>
                            <path d="M78,99 C78,99 79.0108547,99.3984922 78.9999118,99.7645711 C78.9917046,100.130332 78.519334,100.200561 78,99" id="Fill-385" fill="#63B9D8"></path>
                            <path d="M66,103.442488 L64.7351582,102 L64,103.854069 C64,103.854069 65.2122289,104.377212 66,103.442488" id="Fill-395" fill="#63B9D8"></path>
                            <path d="M66,104 C66,104 66.9719012,104.360592 66.9988633,104.742826 C67.0249829,105.126059 66.5982227,105.225614 66,104" id="Fill-397" fill="#63B9D8"></path>
                            <path d="M63.9999999,104 C63.9999999,104 64.0015718,104.780837 63.4702697,104.949957 C62.9410635,105.118463 62.572191,104.875986 63.9999999,104" id="Fill-409" fill="#63B9D8"></path>
                            <path d="M61,97.7545528 L62.5087503,99 L63,97.0535607 C63,97.0535607 61.6768548,96.7118698 61,97.7545528" id="Fill-411" fill="#63B9D8"></path>
                            <path d="M61,98 C61,98 60.0955177,97.7235152 60.0120441,97.3048912 C59.9281996,96.885525 60.2847244,96.7229742 61,98" id="Fill-413" fill="#63B9D8"></path>
                            <path d="M61.9944584,98 L61,97.2981779 C61,97.2981779 61.0700252,96.3154297 62,97.9181865 L61.9944584,98 Z" id="Fill-415" fill="#63B9D8"></path>
                            <path d="M49,98.3715712 L50.0039535,100 L51,98.297087 C51,98.297087 49.9062791,97.5814547 49,98.3715712" id="Fill-427" fill="#63B9D8"></path>
                            <path d="M50,99 C50,99 48.9406569,98.5620125 49.0026156,98.2140558 C49.0645744,97.865795 49.5924829,97.8259503 50,99" id="Fill-429" fill="#63B9D8"></path>
                            <path d="M51,99 L51.4449221,98.0788304 C51.4449221,98.0788304 52.8874984,97.6096735 51.1214916,98.9604365 L51,99 Z" id="Fill-439" fill="#63B9D8"></path>
                            <path d="M52,99 C52,99 52.1728326,98.1561064 52.6348519,98.0281113 C53.0960219,97.9011242 53.3367985,98.200787 52,99" id="Fill-441" fill="#63B9D8"></path>
                            <path d="M53,104.555497 L51.8880841,103 L51,104.771375 C51,104.771375 52.142757,105.408534 53,104.555497" id="Fill-443" fill="#63B9D8"></path>
                            <path d="M53,105 C53,105 54.0206062,105.407469 53.9996826,105.769 C53.978759,106.131475 53.4965865,106.194719 53,105" id="Fill-445" fill="#63B9D8"></path>
                            <path d="M51,106 C51,106 50.8913899,106.816739 50.4035649,106.962804 C49.9166604,107.108546 49.6285675,106.833828 51,106" id="Fill-457" fill="#63B9D8"></path>
                            <path d="M38,96.0443771 L38.217875,98 L40,96.9312753 C40,96.9312753 39.2630098,95.7605203 38,96.0443771" id="Fill-459" fill="#63B9D8"></path>
                            <path d="M40,96 L40.5408114,95.0507089 C40.5408114,95.0507089 41.8207924,94.6752083 40.1067031,95.9678449 L40,96 Z" id="Fill-467" fill="#63B9D8"></path>
                            <path d="M40,97 C40,97 40.2226893,96.1300105 40.6640841,96.0204303 C41.1046821,95.9119004 41.3094447,96.2353895 40,97" id="Fill-469" fill="#63B9D8"></path>
                            <path d="M40,97 L40.6792928,96.0002245 C40.6792928,96.0002245 41.7054294,95.9589386 40.0867109,96.9962467 L40,97 Z" id="Fill-471" fill="#63B9D8"></path>
                            <path d="M40,97 C40,97 40.4485243,95.9263984 40.7921324,96.0040144 C41.1348386,96.0811095 41.1667043,96.6296309 40,97" id="Fill-473" fill="#63B9D8"></path>
                            <path d="M40,102.844394 L39.405547,101 L38,102.389455 C38,102.389455 38.9079871,103.371782 40,102.844394" id="Fill-475" fill="#63B9D8"></path>
                            <path d="M39,103 C39,103 38.9881307,103.785576 38.4622674,103.951755 C37.9379522,104.11701 37.5787757,103.871594 39,103" id="Fill-485" fill="#63B9D8"></path>
                            <path d="M38,103 L37.3992921,103.972921 C37.3992921,103.972921 36.2265008,104.251177 37.9008227,103.023739 L38,103 Z" id="Fill-487" fill="#63B9D8"></path>
                            <path d="M38,103 C38,103 37.6529222,103.958344 37.2638564,103.997451 C36.8761451,104.036559 36.7657574,103.622018 38,103" id="Fill-489" fill="#63B9D8"></path>
                            <path d="M28.3452955,91 L28,93 L30,92.4290915 C30,92.4290915 29.6287696,91.065524 28.3452955,91" id="Fill-491" fill="#63B9D8"></path>
                            <path d="M29,92 C29,92 29.182194,91.1510032 29.6404244,91.027015 C30.0976565,90.9022217 30.3317633,91.2069589 29,92" id="Fill-497" fill="#63B9D8"></path>
                            <path d="M30,92 L30.6629282,91.0027624 C30.6629282,91.0027624 31.7207476,90.8972853 30.0885028,91.9898785 L30,92 Z" id="Fill-499" fill="#63B9D8"></path>
                            <path d="M30,92 C30,92 30.3914376,90.9978689 30.7607471,91.0000034 C31.1292936,91.0026715 31.2055972,91.4642494 30,92" id="Fill-501" fill="#63B9D8"></path>
                            <path d="M28,97.9756425 L27.9030047,96 L26,96.9672054 C26,96.9672054 26.6821297,98.1857749 28,97.9756425" id="Fill-507" fill="#63B9D8"></path>
                            <path d="M27.9974812,99 C27.9974812,99 28.064319,99.7650911 27.5093968,99.9433619 C26.9567214,100.122534 26.5416531,99.8946606 27.9974812,99" id="Fill-513" fill="#63B9D8"></path>
                            <path d="M27,98 L26.4260949,98.9618667 C26.4260949,98.9618667 25.2045213,99.2888269 26.8980956,98.0279612 L27,98 Z" id="Fill-515" fill="#63B9D8"></path>
                            <path d="M27,98 C27,98 26.7333784,98.896854 26.3103188,98.9862828 C25.8876352,99.0757116 25.7165311,98.725693 27,98" id="Fill-517" fill="#63B9D8"></path>
                            <path d="M26,98.0039722 L25.3024735,99 C25.3024735,99 24.3117741,98.9528302 25.9162836,98 L26,98.0039722 Z" id="Fill-519" fill="#63B9D8"></path>
                            <path d="M26,98 C26,98 25.5262825,99.114436 25.1942403,98.990358 C24.8633714,98.8668465 24.8510518,98.2685525 26,98" id="Fill-521" fill="#63B9D8"></path>
                            <path d="M17.6593964,91 L18,89 L16,89.5756147 C16,89.5756147 16.3748415,90.9378265 17.6593964,91" id="Fill-523" fill="#63B9D8"></path>
                            <path d="M18,91 L17.540494,91.9246865 C17.540494,91.9246865 16.1214156,92.3830354 17.8820548,91.038279 L18,91 Z" id="Fill-527" fill="#63B9D8"></path>
                            <path d="M18,91 C18,91 17.8195833,91.8485688 17.3603408,91.972593 C16.9027805,92.0983069 16.6672716,91.7944983 18,91" id="Fill-529" fill="#63B9D8"></path>
                            <path d="M17,91 L16.337874,91.9969705 C16.337874,91.9969705 15.2785434,92.1064049 16.9113382,91.0098268 L17,91 Z" id="Fill-531" fill="#63B9D8"></path>
                            <path d="M17,90 C17,90 16.6095966,91.0008939 16.2400618,90.9999994 C15.8708481,90.9986577 15.7934738,90.5384612 17,90" id="Fill-533" fill="#63B9D8"></path>
                            <path d="M19.3452778,84 L19,86 L21,85.4290106 C21,85.4290106 20.6286111,84.0651202 19.3452778,84" id="Fill-539" fill="#63B9D8"></path>
                            <path d="M20,84 C20,84 20.1820977,83.1506153 20.640561,83.0271022 C21.0976448,82.9021054 21.3317047,83.2066228 20,84" id="Fill-545" fill="#63B9D8"></path>
                            <path d="M21,84 L21.6629739,83.0027959 C21.6629739,83.0027959 22.7207045,82.8967939 21.0885,83.990185 L21,84 Z" id="Fill-547" fill="#63B9D8"></path>
                            <path d="M21,85 C21,85 21.3917464,83.9980363 21.7606556,84.0000029 C22.1292134,84.0029527 22.205806,84.4646033 21,85" id="Fill-549" fill="#63B9D8"></path>
                            <path d="M12.7050624,74 L12,76 L14,75.8278092 C14,75.8278092 13.9068232,74.3368364 12.7050624,74" id="Fill-555" fill="#63B9D8"></path>
                            <path d="M13.0005329,74 C13.0005329,74 12.9634854,73.2269579 13.5072111,73.0534178 C14.0514815,72.8795744 14.4442933,73.1134894 13.0005329,74" id="Fill-557" fill="#63B9D8"></path>
                            <path d="M13,75 L13.5840216,74.0340399 C13.5840216,74.0340399 14.7875741,73.7241751 13.1002612,74.9742411 L13,75 Z" id="Fill-559" fill="#63B9D8"></path>
                            <path d="M14,75 C14,75 14.3219703,74.0621578 14.721549,74.0056661 C15.1207781,73.9475941 15.249776,74.339876 14,75" id="Fill-561" fill="#63B9D8"></path>
                            <path d="M14,74.985342 L14.7212625,74 C14.7212625,74 15.6651838,74.194354 14.0789773,75 L14,74.985342 Z" id="Fill-563" fill="#63B9D8"></path>
                            <path d="M9.56615346,80 L10,78 L8,78.4792176 C8,78.4792176 8.30266617,79.8723459 9.56615346,80" id="Fill-571" fill="#63B9D8"></path>
                            <path d="M10,80 L9.50290827,80.934815 C9.50290827,80.934815 8.14747495,81.3606334 9.88704722,80.035599 L10,80 Z" id="Fill-575" fill="#63B9D8"></path>
                            <path d="M9,80 C9,80 8.7789786,80.8691535 8.33653685,80.9789339 C7.89529196,81.0894136 7.69022878,80.7656662 9,80" id="Fill-577" fill="#63B9D8"></path>
                            <path d="M9,80 L8.32162732,80.9997318 C8.32162732,80.9997318 7.29342582,81.0437275 8.91383019,80.0046804 L9,80 Z" id="Fill-579" fill="#63B9D8"></path>
                            <path d="M8,80 C8,80 7.5859422,81.0277765 7.22684229,80.999424 C6.86836691,80.9710715 6.80934962,80.4791565 8,80" id="Fill-581" fill="#63B9D8"></path>
                            <path d="M4.13425333,68 L5,66.0312155 L3.00007886,66 C3.00007886,66 2.9691158,67.5320442 4.13425333,68" id="Fill-587" fill="#63B9D8"></path>
                            <path d="M4,68 C4,68 3.92082749,68.8076226 3.42242226,68.9593693 C2.92210926,69.1114335 2.61352727,68.8463529 4,68" id="Fill-589" fill="#63B9D8"></path>
                            <path d="M4,68 L3.37559787,68.9830187 C3.37559787,68.9830187 2.24545307,69.2081749 3.90591727,68.018763 L4,68 Z" id="Fill-591" fill="#63B9D8"></path>
                            <path d="M3,68 C3,68 2.62765666,68.9831012 2.25006444,68.9994863 C1.87280026,69.0171648 1.78192881,68.576494 3,68" id="Fill-593" fill="#63B9D8"></path>
                            <path d="M9.19924726,63 L8,64.564012 L9.9605132,65 C9.9605132,65 10.2619254,63.6520794 9.19924726,63" id="Fill-603" fill="#63B9D8"></path>
                            <path d="M9,63 C9,63 9.25572052,62.1090529 9.6831688,62.0151028 C10.1110329,61.9215474 10.2894135,62.264189 9,63" id="Fill-605" fill="#63B9D8"></path>
                            <path d="M10,63.9978621 L10.6928906,63 C10.6928906,63 11.6932468,63.0229824 10.0830594,64 L10,63.9978621 Z" id="Fill-607" fill="#63B9D8"></path>
                            <path d="M7.48879538,52 L6,53.2035238 L7.82306954,54 C7.82306954,54 8.39227535,52.8156497 7.48879538,52" id="Fill-619" fill="#63B9D8"></path>
                            <path d="M8,52 C8,52 8.38005197,51.0092704 8.75366239,51.0001237 C9.1283464,50.9914584 9.21316026,51.4391642 8,52" id="Fill-621" fill="#63B9D8"></path>
                            <path d="M8,54 C8,54 8.79517032,54.0459161 8.95516781,54.5580995 C9.11482122,55.0697362 8.85985748,55.404268 8,54" id="Fill-633" fill="#63B9D8"></path>
                            <path d="M1.63544972,55 L3,53.6361562 L1.10263231,53 C1.10263231,53 0.653159278,54.2571772 1.63544972,55" id="Fill-635" fill="#63B9D8"></path>
                            <path d="M2,56 C2,56 1.67205886,56.9432015 1.27540623,56.9954023 C0.878059558,57.0476032 0.754170682,56.6515143 2,56" id="Fill-637" fill="#63B9D8"></path>
                            <path d="M2,55.0175728 L1.2757838,56 C1.2757838,56 0.337745378,55.7874794 1.92167221,55 L2,55.0175728 Z" id="Fill-639" fill="#63B9D8"></path>
                            <path d="M9.90599041,41 L8,41.4192812 L9.24106356,43 C9.24106356,43 10.3182508,42.1714204 9.90599041,41" id="Fill-651" fill="#63B9D8"></path>
                            <path d="M10,42 C10,42 10.8246724,42.1273045 10.9654701,42.6077088 C11.1058884,43.0870653 10.8246724,43.361582 10,42" id="Fill-661" fill="#63B9D8"></path>
                            <path d="M10,42 L10.9903114,42.6420616 C10.9903114,42.6420616 11.1666411,43.7388629 10.0148176,42.0925843 L10,42 Z" id="Fill-663" fill="#63B9D8"></path>
                            <path d="M10,43 C10,43 11.0100303,43.3993917 10.9999247,43.7651309 C10.9892872,44.1301305 10.5164505,44.2003939 10,43" id="Fill-665" fill="#63B9D8"></path>
                            <path d="M3.13184278,42 L5,41.4673684 L3.6623898,40 C3.6623898,40 2.64519572,40.88 3.13184278,42" id="Fill-667" fill="#63B9D8"></path>
                            <path d="M3,41 C3,41 2.20047975,40.9431161 2.04319144,40.4349176 C1.88659148,39.9277924 2.14472328,39.601515 3,41" id="Fill-677" fill="#63B9D8"></path>
                            <path d="M4,40 L3.02035521,39.3834482 C3.02035521,39.3834482 2.77610297,38.2396441 3.97979208,39.9030095 L4,40 Z" id="Fill-679" fill="#63B9D8"></path>
                            <path d="M4,40 C4,40 3.02369795,39.6333335 3.00079761,39.2529125 C2.97883199,38.8735774 3.41300365,38.7783816 4,40" id="Fill-681" fill="#63B9D8"></path>
                            <path d="M8.04119461,30 L10,29.7987163 L8.94506846,28 C8.94506846,28 7.76775794,28.7293967 8.04119461,30" id="Fill-683" fill="#63B9D8"></path>
                            <path d="M8,30 L7.04887147,29.4541119 C7.04887147,29.4541119 6.68006653,28.1830822 7.96872707,29.8938927 L8,30 Z" id="Fill-691" fill="#63B9D8"></path>
                            <path d="M8,29 C8,29 7.126322,28.7709027 7.01957828,28.332063 C6.91318685,27.8940132 7.24046381,27.6945405 8,29" id="Fill-693" fill="#63B9D8"></path>
                            <path d="M9,29 L8.00008561,28.3181081 C8.00008561,28.3181081 7.97075983,27.2969749 8.99763502,28.9137407 L9,29 Z" id="Fill-695" fill="#63B9D8"></path>
                            <path d="M9,28 C9,28 7.92136359,27.5480342 8.00457871,27.2059899 C8.08884718,26.8648441 8.64343904,26.8357913 9,28" id="Fill-697" fill="#63B9D8"></path>
                            <path d="M14.9872455,30.0024593 L13,30 L13.8858053,32 C13.8858053,32 15.1390411,31.3636643 14.9872455,30.0024593" id="Fill-699" fill="#63B9D8"></path>
                            <path d="M15,31 L15.9711722,31.5965131 C15.9711722,31.5965131 16.2576899,32.7775165 15.0241694,31.098494 L15,31 Z" id="Fill-707" fill="#63B9D8"></path>
                            <path d="M15,32 C15,32 15.9187456,32.2976045 15.9910843,32.7076829 C16.0634231,33.1169403 15.6921996,33.2651268 15,32" id="Fill-709" fill="#63B9D8"></path>
                            <path d="M14,19.7020679 L16,20 L15.3816658,18 C15.3816658,18 14.0330117,18.4079653 14,19.7020679" id="Fill-715" fill="#63B9D8"></path>
                            <path d="M14,20 L13.0799542,19.5590436 C13.0799542,19.5590436 12.6072672,18.1092408 13.9605272,19.8791371 L14,20 Z" id="Fill-719" fill="#63B9D8"></path>
                            <path d="M15,20 C15,20 14.1609609,19.839595 14.0301108,19.3721781 C13.8985948,18.9064861 14.1935902,18.6563922 15,20" id="Fill-721" fill="#63B9D8"></path>
                            <path d="M15,19 L14.0051705,18.3455505 C14.0051705,18.3455505 13.869492,17.2716192 14.9881828,18.9102655 L15,19 Z" id="Fill-723" fill="#63B9D8"></path>
                            <path d="M15,19 C15,19 14.0102313,18.6205852 14.0001806,18.2460514 C13.989693,17.8721684 14.4371646,17.7862631 15,19" id="Fill-725" fill="#63B9D8"></path>
                            <path d="M21,22.5221266 L19,22 L19.3843669,24 C19.3843669,24 20.8074935,23.765212 21,22.5221266" id="Fill-731" fill="#63B9D8"></path>
                            <path d="M21,23 C21,23 21.8904952,23.2560109 21.9844444,23.6839552 C22.0797422,24.1109549 21.7354115,24.2890289 21,23" id="Fill-737" fill="#63B9D8"></path>
                            <path d="M29,16.5106834 L27,16 L27.3963731,18 C27.3963731,18 28.8156921,17.7566661 29,16.5106834" id="Fill-747" fill="#63B9D8"></path>
                            <path d="M28,17 C28,17 28.8878146,17.2519016 28.9838361,17.6815519 C29.0808847,18.1101118 28.7394176,18.2916772 28,17" id="Fill-753" fill="#63B9D8"></path>
                            <path d="M22,12.2797837 L24,13 L23.846208,11 C23.846208,11 22.3491114,11.0814379 22,12.2797837" id="Fill-763" fill="#63B9D8"></path>
                            <path d="M23,12 L22.0325024,11.4118879 C22.0325024,11.4118879 21.7293532,10.2157186 22.9746962,11.9002743 L23,12 Z" id="Fill-767" fill="#63B9D8"></path>
                            <path d="M23,12 C23,12 22.0578301,11.6730949 22.0049691,11.2752022 C21.9505534,10.8786659 22.347011,10.7534201 23,12" id="Fill-769" fill="#63B9D8"></path>
                            <path d="M33,5.96386155 L34.7581529,7 L35,5.00859125 C35,5.00859125 33.564049,4.84319023 33,5.96386155" id="Fill-779" fill="#63B9D8"></path>
                            <path d="M32,6 C32,6 31.152869,5.82375895 31.0275179,5.3639262 C30.9018298,4.90282553 31.2034138,4.66530162 32,6" id="Fill-781" fill="#63B9D8"></path>
                            <path d="M33,6 L32.0033866,5.33890326 C32.0033866,5.33890326 31.8889408,4.2775192 32.9906484,5.91140307 L33,6 Z" id="Fill-783" fill="#63B9D8"></path>
                            <path d="M33,6 C33,6 31.9639668,5.58006531 32.000968,5.22366318 C32.0360471,4.86757096 32.538206,4.81364577 33,6" id="Fill-785" fill="#63B9D8"></path>
                            <path d="M38,11.08191 L36.296484,10 L36,11.9854072 C36,11.9854072 37.4111498,12.1881901 38,11.08191" id="Fill-795" fill="#63B9D8"></path>
                            <path d="M38,11 C38,11 38.8586188,11.1998991 38.9760295,11.6501769 C39.0934402,12.1014642 38.7813304,12.3215552 38,11" id="Fill-797" fill="#63B9D8"></path>
                            <path d="M38,12 L38.9986817,12.6701895 C38.9986817,12.6701895 39.077969,13.7143782 38.0067478,12.0868366 L38,12 Z" id="Fill-799" fill="#63B9D8"></path>
                        </g>
                        <g id="Group-850" transform="translate(16.000000, 18.000000)">
                            <path d="M47,36.5 C47,41.1917906 43.194387,45 38.5001407,45 C33.8075834,45 30,41.1917906 30,36.5 C30,31.806239 33.8075834,28 38.5001407,28 C43.194387,28 47,31.806239 47,36.5" id="Fill-812" fill="#FFFFFF"></path>
                            <path d="M33.7137438,64 C20.8271992,61.8156608 11,50.345381 11,36.5234169 C11,22.5992181 20.9729753,11.0618289 34,9" id="Stroke-814" stroke="#FFFFFF" stroke-width="0.567"></path>
                            <path d="M43,9 C56.0763226,11.3427725 66,22.76497 66,36.5030083 C66,50.2301594 56.0920959,61.6451942 43.0306862,64" id="Stroke-816" stroke="#FFFFFF" stroke-width="0.567"></path>
                            <path d="M38,9.5 C38,10.880625 36.880625,12 35.5,12 C34.119375,12 33,10.880625 33,9.5 C33,8.119375 34.119375,7 35.5,7 C36.880625,7 38,8.119375 38,9.5" id="Fill-818" fill="#FFFFFF"></path>
                            <path d="M44,9.5 C44,10.880625 42.8809375,12 41.5,12 C40.119375,12 39,10.880625 39,9.5 C39,8.119375 40.119375,7 41.5,7 C42.8809375,7 44,8.119375 44,9.5" id="Fill-820" fill="#FFFFFF"></path>
                            <path d="M38,63.5 C38,64.880625 36.880625,66 35.5,66 C34.119375,66 33,64.880625 33,63.5 C33,62.1190625 34.119375,61 35.5,61 C36.880625,61 38,62.1190625 38,63.5" id="Fill-822" fill="#FFFFFF"></path>
                            <path d="M44,63.5 C44,64.880625 42.8809375,66 41.5,66 C40.119375,66 39,64.880625 39,63.5 C39,62.1190625 40.119375,61 41.5,61 C42.8809375,61 44,62.1190625 44,63.5" id="Fill-824" fill="#FFFFFF"></path>
                            <path d="M20.4710939,38.00017 C21.8517113,37.9842336 22.9842051,39.0907208 22.99983,40.471252 C23.0157674,41.8517831 21.909211,42.9832686 20.5285936,42.99983 C19.1479762,43.0157664 18.015795,41.9092792 18.0001701,40.528748 C17.9842327,39.1482169 19.0904765,38.0161064 20.4710939,38.00017" id="Fill-826" fill="#FFFFFF"></path>
                            <path d="M20.4170502,32.0013923 C21.7972032,31.9557698 22.9526946,33.0369623 22.9986268,34.4168889 C23.0439341,35.7968156 21.9624966,36.9526917 20.582656,36.9986267 C19.2028155,37.0439368 18.047324,35.9624318 18.0013919,34.5825051 C17.9557721,33.2025785 19.0372096,32.0470149 20.4170502,32.0013923" id="Fill-828" fill="#FFFFFF"></path>
                            <path d="M56.4712484,38.00017 C57.851952,37.9842336 58.9845166,39.0907208 58.9998299,40.471252 C59.0157683,41.8517831 57.9094553,42.9838936 56.5287516,42.99983 C55.148048,43.0157664 54.015796,41.9092792 54.0001701,40.528748 C53.9842317,39.1482169 55.0905447,38.0167314 56.4712484,38.00017" id="Fill-830" fill="#FFFFFF"></path>
                            <path d="M56.4170591,32.0013923 C57.7969048,31.9557698 58.952713,33.0369623 58.9986454,34.4168889 C59.0436403,35.7968156 57.9621988,36.9526917 56.5823531,36.9986267 C55.2025075,37.0439368 54.0470118,35.9624318 54.0013919,34.5825051 C53.955772,33.2025785 55.0372135,32.0470149 56.4170591,32.0013923" id="Fill-832" fill="#FFFFFF"></path>
                            <path d="M56,42 C53.609594,49.531775 46.4395206,55 37.9662396,55 C29.5719236,55 22.4564962,49.6329761 20,42.209691" id="Stroke-834" stroke="#FFFFFF" stroke-width="0.567"></path>
                            <path d="M20,32 C22.0779688,23.9461923 29.3493101,18 38.0001409,18 C46.6506899,18 53.9217494,23.9459087 56,31.9988655" id="Stroke-836" stroke="#FFFFFF" stroke-width="0.567"></path>
                            <path d="M2.47109393,40.00017 C3.85171132,39.9842336 4.98420507,41.0907208 4.99982998,42.471252 C5.0157674,43.8517831 3.909211,44.9832686 2.52859362,44.99983 C1.14797623,45.0157664 0.015794978,43.9092792 0.000170064209,42.528748 C-0.0157673479,41.1482169 1.09047655,40.0161064 2.47109393,40.00017" id="Fill-838" fill="#FFFFFF"></path>
                            <path d="M2.41705017,29.0013923 C3.79720316,28.9557698 4.95269462,30.0369623 4.99862681,31.4168889 C5.04393408,32.7968156 3.96249656,33.9526917 2.58265603,33.9986267 C1.2028155,34.0439368 0.0473240457,32.9624318 0.00139185415,31.5825051 C-0.0442278735,30.2025785 1.03720964,29.0470149 2.41705017,29.0013923" id="Fill-840" fill="#FFFFFF"></path>
                            <path d="M74.4710973,40.00017 C75.8517128,39.9842336 76.9842051,41.0907208 76.99983,42.471252 C77.0157674,43.8517831 75.9092124,44.9832686 74.5285969,44.99983 C73.1479813,45.0157664 72.0158016,43.9092792 72.0001767,42.528748 C71.9839268,41.1482169 73.0904817,40.0161064 74.4710973,40.00017" id="Fill-842" fill="#FFFFFF"></path>
                            <path d="M74.4170591,30.0013923 C75.7969048,29.9557698 76.952713,31.0369623 76.9986454,32.4168889 C77.0436403,33.7968156 75.9621988,34.9526917 74.5823531,34.9986267 C73.2025075,35.0439368 72.0470118,33.9624318 72.0013919,32.5825051 C71.955772,31.2025785 73.0372135,30.0470149 74.4170591,30.0013923" id="Fill-844" fill="#FFFFFF"></path>
                            <path d="M74,42.7539131 C70.8268038,59.4010923 55.9457549,72 38.0675934,72 C19.9204784,72 4.86164187,59.0190684 2,42" id="Stroke-846" stroke="#FFFFFF" stroke-width="0.567"></path>
                            <path d="M2,30.9872813 C4.80085451,13.4170748 19.8193271,0 37.9264868,0 C56.3800069,0 71.6255223,13.9350213 74,32" id="Stroke-848" stroke="#FFFFFF" stroke-width="0.567"></path>
                        </g>
                    </g>
                </g>
            </g>
        </g>
    </g>
</svg>