<?xml version="1.0" encoding="UTF-8"?>
<svg width="20px" height="20px" viewBox="0 0 20 20" version="1.1" xmlns="http://www.w3.org/2000/svg" xmlns:xlink="http://www.w3.org/1999/xlink">
    <!-- Generator: Sketch 51.3 (57544) - http://www.bohemiancoding.com/sketch -->
    <title>edit (1)</title>
    <desc>Created with Sketch.</desc>
    <defs></defs>
    <g id="Profile" stroke="none" stroke-width="1" fill="none" fill-rule="evenodd">
        <g id="2" transform="translate(-586.000000, -247.000000)" fill="#000000" fill-rule="nonzero">
            <g id="edit-(1)" transform="translate(586.000000, 247.000000)">
                <path d="M19.4744999,12.1598835 C19.1842432,12.1598835 18.9489998,12.39576 18.9489998,12.6867979 L18.9489998,17.3654277 C18.9479734,18.237924 18.2428591,18.945142 17.3724995,18.9461711 L2.62750049,18.9461711 C1.75714095,18.945142 1.05202655,18.237924 1.05100019,17.3654277 L1.05100019,3.63457227 C1.05202655,2.7618702 1.75714095,2.05485802 2.62750049,2.05382891 L7.29336656,2.05382891 C7.58362328,2.05382891 7.81886665,1.81795233 7.81886665,1.52691445 C7.81886665,1.23587652 7.58362328,1 7.29336656,1 L2.62750049,1 C1.17703813,1.00164661 0.0016421878,2.18020602 0,3.63457227 L0,17.3654277 C0.0016421878,18.819794 1.17703813,19.9983534 2.62750049,20 L17.3724995,20 C18.8229619,19.9983534 19.9983578,18.819794 20,17.3654277 L20,12.6870037 C20,12.3959658 19.7647566,12.1598835 19.4744999,12.1598835 Z" id="Path"></path>
                <polygon id="Path" points="8 9.56144431 15.561395 2 18 4.43855569 10.438605 12"></polygon>
                <polygon id="Path" points="7 13 10 12.1690437 7.83095629 10"></polygon>
                <path d="M18.8280255,0.44978593 C18.2268958,-0.149928643 17.2536955,-0.149928643 16.6525658,0.44978593 L16,1.10238115 L18.8974883,4 L19.5500541,3.34740478 C20.149982,2.74624804 20.149982,1.77300381 19.5500541,1.17184707 L18.8280255,0.44978593 Z" id="Path"></path>
            </g>
        </g>
    </g>
</svg>