<?xml version="1.0" encoding="UTF-8"?>
<svg width="18px" height="18px" viewBox="0 0 18 18" version="1.1" xmlns="http://www.w3.org/2000/svg" xmlns:xlink="http://www.w3.org/1999/xlink">
    <!-- Generator: Sketch 51.3 (57544) - http://www.bohemiancoding.com/sketch -->
    <title>edit (1) copy</title>
    <desc>Created with Sketch.</desc>
    <defs></defs>
    <g id="Profile" stroke="none" stroke-width="1" fill="none" fill-rule="evenodd">
        <g id="2" transform="translate(-532.000000, -287.000000)" fill="#9B9B9B" fill-rule="nonzero">
            <g id="edit-(1)-copy" transform="translate(532.000000, 287.000000)">
                <path d="M17.5270499,11.0676864 C17.2658189,11.0676864 17.0540998,11.2762509 17.0540998,11.5335897 L17.0540998,15.6704835 C17.0531761,16.4419538 16.4185731,17.0672834 15.6352496,17.0681934 L2.36475044,17.0681934 C1.58142685,17.0672834 0.946823894,16.4419538 0.945900175,15.6704835 L0.945900175,3.52951653 C0.946823894,2.75786418 1.58142685,2.13271657 2.36475044,2.13180661 L6.5640299,2.13180661 C6.82526095,2.13180661 7.03697999,1.92324206 7.03697999,1.66590331 C7.03697999,1.4085645 6.82526095,1.2 6.5640299,1.2 L2.36475044,1.2 C1.05933432,1.20145595 0.00147796902,2.24355058 0,3.52951653 L0,15.6704835 C0.00147796902,16.9564494 1.05933432,17.9985441 2.36475044,18 L15.6352496,18 C16.9406657,17.9985441 17.998522,16.9564494 18,15.6704835 L18,11.5337717 C18,11.2764329 17.7882809,11.0676864 17.5270499,11.0676864 Z" id="Path"></path>
                <polygon id="Path" points="7.2 8.45898654 14.4589392 1.2 16.8 3.54101346 9.54106078 10.8"></polygon>
                <polygon id="Path" points="6 12 8.4 11.335235 6.66476503 9.6"></polygon>
                <path d="M16.9452229,0.404807337 C16.4042062,-0.134935779 15.5283259,-0.134935779 14.9873092,0.404807337 L14.4,0.992143032 L17.0077395,3.6 L17.5950487,3.01266431 C18.1349838,2.47162324 18.1349838,1.59570343 17.5950487,1.05466236 L16.9452229,0.404807337 Z" id="Path"></path>
            </g>
        </g>
    </g>
</svg>