<?xml version="1.0" encoding="UTF-8"?>
<svg width="33px" height="27px" viewBox="0 0 33 27" version="1.1" xmlns="http://www.w3.org/2000/svg" xmlns:xlink="http://www.w3.org/1999/xlink">
    <!-- Generator: Sketch 53 (72520) - https://sketchapp.com -->
    <title>envelope</title>
    <desc>Created with Sketch.</desc>
    <defs>
        <filter x="-4.0%" y="-24.0%" width="108.0%" height="148.0%" filterUnits="objectBoundingBox" id="filter-1">
            <feOffset dx="0" dy="2" in="SourceAlpha" result="shadowOffsetOuter1"></feOffset>
            <feGaussianBlur stdDeviation="2" in="shadowOffsetOuter1" result="shadowBlurOuter1"></feGaussianBlur>
            <feColorMatrix values="0 0 0 0 0.71263818   0 0 0 0 0.70757683   0 0 0 0 0.70757683  0 0 0 0.5 0" type="matrix" in="shadowBlurOuter1" result="shadowMatrixOuter1"></feColorMatrix>
            <feMerge>
                <feMergeNode in="shadowMatrixOuter1"></feMergeNode>
                <feMergeNode in="SourceGraphic"></feMergeNode>
            </feMerge>
        </filter>
    </defs>
    <g id="Contribute" stroke="none" stroke-width="1" fill="none" fill-rule="evenodd">
        <g id="Login" transform="translate(-473.000000, -181.000000)" fill="#63B9D8">
            <g id="Group" transform="translate(450.000000, 167.000000)">
                <g id="Group-2" filter="url(#filter-1)">
                    <g id="envelope" transform="translate(27.000000, 16.000000)">
                        <path d="M21.9480526,0 L3.0571056,0 C1.37078339,0 0,1.36895052 0,3.05301794 L0,15.9469821 C0,17.6310495 1.37078339,19 3.0571056,19 L21.9428798,19 C23.629202,19 24.9999854,17.6310495 24.9999854,15.9469821 L24.9999854,3.0581838 C25.0051582,1.37411637 23.6343748,0 21.9480526,0 Z M23.6085109,15.9469821 C23.6085109,16.8613377 22.8636324,17.6052202 21.9480526,17.6052202 L3.0571056,17.6052202 C2.14152575,17.6052202 1.39664723,16.8613377 1.39664723,15.9469821 L1.39664723,3.0581838 C1.39664723,2.14382817 2.14152575,1.39994562 3.0571056,1.39994562 L21.9428798,1.39994562 C22.8584597,1.39994562 23.6033382,2.14382817 23.6033382,3.0581838 L23.6033382,15.9469821 L23.6085109,15.9469821 Z" id="Shape" fill-rule="nonzero"></path>
                        <path d="M15.7222434,9.83261036 L21.7603223,4.24626255 C22.0412819,3.98275558 22.0668237,3.53479373 21.8114058,3.23966592 C21.555988,2.94980825 21.1217775,2.92345755 20.8357095,3.18696452 L12.5090864,10.8971785 L10.8846286,9.40045893 C10.8795203,9.39518879 10.8744119,9.38991865 10.8744119,9.38464851 C10.8386534,9.34775753 10.8028949,9.31613669 10.762028,9.28451586 L4.1518131,3.18169438 C3.86574506,2.91818741 3.43153465,2.94453811 3.17611677,3.23966592 C2.92069888,3.53479373 2.94624067,3.98275558 3.2323087,4.24626255 L9.34190457,9.88004161 L3.25785049,15.7562471 C2.98199917,16.0250242 2.9666741,16.4729861 3.22720034,16.7628437 C3.365126,16.9104076 3.54902688,16.9894597 3.73292776,16.9894597 C3.90150357,16.9894597 4.07007937,16.926218 4.20289667,16.7997347 L10.3789012,10.839207 L12.0544425,12.3833578 C12.1872598,12.5045711 12.3507273,12.5625426 12.5141947,12.5625426 C12.6776622,12.5625426 12.846238,12.4993009 12.9739469,12.3780877 L14.6954635,10.7865056 L20.8357095,16.8050048 C20.9685268,16.9367583 21.142211,17 21.3107868,17 C21.4946877,17 21.6734802,16.926218 21.8114058,16.7786541 C22.0719321,16.4940666 22.0617154,16.0408346 21.7858641,15.7720575 L15.7222434,9.83261036 Z" id="Path"></path>
                    </g>
                </g>
            </g>
        </g>
    </g>
</svg>