<svg xmlns="http://www.w3.org/2000/svg" xmlns:xlink="http://www.w3.org/1999/xlink" width="35" height="35" version="1.1" style=""><rect id="backgroundrect" width="100%" height="100%" x="0" y="0" fill="none" stroke="none"/>
    <!-- Generator: Sketch 52.6 (67491) - http://www.bohemiancoding.com/sketch -->
    <title>Shape</title>
    <desc>Created with Sketch.</desc>
    
<g class="currentLayer" style=""><title>Layer 1</title><g id="Steps" stroke="none" stroke-width="1" fill="#5e9cdb" fill-rule="evenodd" class="selected" fill-opacity="1">
        <g id="Preliminary-and-follow-up-scenarios" fill="#5e9cdb" fill-rule="nonzero">
            <g id="Group-8" fill="#5e9cdb">
                <g id="Group-6" fill="#5e9cdb">
                    <g id="Group-5" fill="#5e9cdb">
                        <g id="exclamation-mark-inside-a-circle" fill="#5e9cdb">
                            <path d="M17.5,0 C7.833848520000004,0 0,7.824363270000049 0,17.478810899999985 C0,27.133258599999976 7.833848520000004,35 17.5,35 C27.166151499999998,35 35,27.129032199999983 35,17.521189100000015 C35,7.8667414000000235 27.166151499999998,0 17.5,0 zM17.5,33.3055028 C8.796632430000003,33.3055028 1.6965514000000042,26.21401860000003 1.6965514000000042,17.521189100000015 C1.6965514000000042,8.828359569999975 8.796632430000003,1.6902708200000234 17.5,1.6902708200000234 C26.2033676,1.6902708200000234 33.3034486,8.781755050000015 33.3034486,17.521189100000015 C33.3034486,26.260623099999975 26.2033676,33.3055028 17.5,33.3055028 zM18.369461900000005,24.65927780000004 C18.369461900000005,25.163417699999968 17.9580329,25.57429149999996 17.453339,25.57429149999996 C16.9485879,25.57429149999996 16.537216099999995,25.163360600000033 16.537216099999995,24.65927780000004 C16.537216099999995,24.1551379 16.9486451,23.744264199999975 17.453339,23.744264199999975 C17.9580329,23.744264199999975 18.369461900000005,24.15519500000005 18.369461900000005,24.65927780000004 zM16.583877099999995,20.173078099999998 L16.583877099999995,9.87896040999999 C16.583877099999995,9.421425030000023 16.9486451,9.057098699999983 17.4067351,9.057098699999983 C17.8648252,9.057098699999983 18.229593199999997,9.421425030000023 18.229593199999997,9.87896040999999 L18.229593199999997,20.173078099999998 C18.229593199999997,20.630613400000016 17.8648252,20.994939799999997 17.4067351,20.994939799999997 C16.9486451,21.04577070000005 16.583877099999995,20.630613400000016 16.583877099999995,20.173078099999998 z" id="Shape" fill="#5e9cdb"/>
                        </g>
                    </g>
                </g>
            </g>
        </g>
    </g></g></svg>