<?xml version="1.0" encoding="UTF-8"?>
<svg width="35px" height="35px" viewBox="0 0 35 35" version="1.1" xmlns="http://www.w3.org/2000/svg" xmlns:xlink="http://www.w3.org/1999/xlink">
    <!-- Generator: Sketch 52.6 (67491) - http://www.bohemiancoding.com/sketch -->
    <title>Shape</title>
    <desc>Created with Sketch.</desc>
    <g id="Steps" stroke="none" stroke-width="1" fill="none" fill-rule="evenodd">
        <g id="Preliminary-and-follow-up-scenarios" transform="translate(-80.000000, -729.000000)" fill="#4A4A4A" fill-rule="nonzero">
            <g id="Group-8" transform="translate(80.000000, 729.000000)">
                <g id="Group-6">
                    <g id="Group-5">
                        <g id="exclamation-mark-inside-a-circle">
                            <path d="M17.5,0 C7.83384852,0 0,7.82436327 0,17.4788109 C0,27.1332586 7.83384852,35 17.5,35 C27.1661515,35 35,27.1290322 35,17.5211891 C35,7.8667414 27.1661515,0 17.5,0 Z M17.5,33.3055028 C8.79663243,33.3055028 1.6965514,26.2140186 1.6965514,17.5211891 C1.6965514,8.82835957 8.79663243,1.69027082 17.5,1.69027082 C26.2033676,1.69027082 33.3034486,8.78175505 33.3034486,17.5211891 C33.3034486,26.2606231 26.2033676,33.3055028 17.5,33.3055028 Z M18.3694619,24.6592778 C18.3694619,25.1634177 17.9580329,25.5742915 17.453339,25.5742915 C16.9485879,25.5742915 16.5372161,25.1633606 16.5372161,24.6592778 C16.5372161,24.1551379 16.9486451,23.7442642 17.453339,23.7442642 C17.9580329,23.7442642 18.3694619,24.155195 18.3694619,24.6592778 Z M16.5838771,20.1730781 L16.5838771,9.87896041 C16.5838771,9.42142503 16.9486451,9.0570987 17.4067351,9.0570987 C17.8648252,9.0570987 18.2295932,9.42142503 18.2295932,9.87896041 L18.2295932,20.1730781 C18.2295932,20.6306134 17.8648252,20.9949398 17.4067351,20.9949398 C16.9486451,21.0457707 16.5838771,20.6306134 16.5838771,20.1730781 Z" id="Shape"></path>
                        </g>
                    </g>
                </g>
            </g>
        </g>
    </g>
</svg>