<?xml version="1.0" encoding="UTF-8"?>
<svg width="22px" height="26px" viewBox="0 0 22 26" version="1.1" xmlns="http://www.w3.org/2000/svg" xmlns:xlink="http://www.w3.org/1999/xlink">
    <!-- Generator: Sketch 53 (72520) - https://sketchapp.com -->
    <title>garbage</title>
    <desc>Created with Sketch.</desc>
    <g id="Contribute" stroke="none" stroke-width="1" fill="none" fill-rule="evenodd">
        <g id="4" transform="translate(-875.000000, -617.000000)" fill="#64B9D8" fill-rule="nonzero">
            <g id="garbage" transform="translate(875.000000, 617.000000)">
                <path d="M11,22.4745763 C11.2478367,22.4745763 11.4489796,22.2775932 11.4489796,22.0338983 L11.4489796,7.49152542 C11.4489796,7.24783051 11.2478367,7.05084746 11,7.05084746 C10.7521633,7.05084746 10.5510204,7.24783051 10.5510204,7.49152542 L10.5510204,22.0338983 C10.5510204,22.2775932 10.7521633,22.4745763 11,22.4745763 Z" id="Shape"></path>
                <path d="M6.51020408,22.4745763 C6.75804082,22.4745763 6.95918367,22.2775932 6.95918367,22.0338983 L6.95918367,7.49152542 C6.95918367,7.24783051 6.75804082,7.05084746 6.51020408,7.05084746 C6.26236735,7.05084746 6.06122449,7.24783051 6.06122449,7.49152542 L6.06122449,22.0338983 C6.06122449,22.2775932 6.26236735,22.4745763 6.51020408,22.4745763 Z" id="Shape"></path>
                <path d="M15.4897959,22.4745763 C15.7376327,22.4745763 15.9387755,22.2775932 15.9387755,22.0338983 L15.9387755,7.49152542 C15.9387755,7.24783051 15.7376327,7.05084746 15.4897959,7.05084746 C15.2419592,7.05084746 15.0408163,7.24783051 15.0408163,7.49152542 L15.0408163,22.0338983 C15.0408163,22.2775932 15.2419592,22.4745763 15.4897959,22.4745763 Z" id="Shape"></path>
                <path d="M21.3265306,2.6440678 L15.0210612,2.6440678 C14.9716735,2.09322034 14.7988163,1.16427119 14.2070612,0.568033898 C13.8326122,0.191254237 13.3575918,0 12.7954694,0 L8.30612245,0 C7.744,0 7.26897959,0.191254237 6.89453061,0.568033898 C6.30277551,1.16427119 6.12991837,2.09322034 6.08053061,2.6440678 L0.673469388,2.6440678 C0.425632653,2.6440678 0.224489796,2.84105085 0.224489796,3.08474576 C0.224489796,3.32844068 0.425632653,3.52542373 0.673469388,3.52542373 L1.58983673,3.52542373 L2.44963265,23.8058644 C2.4662449,24.5647119 2.94755102,26 4.65322449,26 L17.3467755,26 C19.052449,26 19.5337551,24.5647119 19.5499184,23.8151186 L20.4101633,3.52542373 L21.3265306,3.52542373 C21.5743673,3.52542373 21.7755102,3.32844068 21.7755102,3.08474576 C21.7755102,2.84105085 21.5743673,2.6440678 21.3265306,2.6440678 Z M7.53926531,1.18145763 C7.74040816,0.979627119 7.99138776,0.881355932 8.30612245,0.881355932 L12.7954694,0.881355932 C13.1102041,0.881355932 13.3611837,0.979627119 13.5623265,1.18145763 C13.9237551,1.54413559 14.0687755,2.18223729 14.1190612,2.6440678 L6.98297959,2.6440678 C7.03326531,2.18223729 7.17828571,1.54413559 7.53926531,1.18145763 Z M18.6524082,23.7873559 C18.6497143,23.9235254 18.5877551,25.1186441 17.3467755,25.1186441 L4.65322449,25.1186441 C3.42571429,25.1186441 3.35208163,23.921322 3.34714286,23.7781017 L2.4882449,3.52542373 L19.5113061,3.52542373 L18.6524082,23.7873559 Z" id="Shape"></path>
            </g>
        </g>
    </g>
</svg>