<?xml version="1.0" encoding="UTF-8"?>
<svg width="203px" height="45px" viewBox="0 0 203 45" version="1.1" xmlns="http://www.w3.org/2000/svg" xmlns:xlink="http://www.w3.org/1999/xlink">
    <!-- Generator: Sketch 51.3 (57544) - http://www.bohemiancoding.com/sketch -->
    <title>github button</title>
    <desc>Created with Sketch.</desc>
    <defs></defs>
    <g id="Home" stroke="none" stroke-width="1" fill="none" fill-rule="evenodd">
        <g id="Home_SSK_2" transform="translate(-499.000000, -2297.000000)">
            <g id="Panel_4" transform="translate(0.000000, 1809.000000)">
                <g id="github-button" transform="translate(499.000000, 488.000000)">
                    <rect id="Rectangle" fill="#4A4A4A" x="0" y="0" width="203" height="45" rx="22.5"></rect>
                    <text id="CHECK-OUR-GITHUB-!" font-family="AvenirNext-Medium, Avenir Next" font-size="14" font-weight="400" letter-spacing="-0.5172221" fill="#FFFFFF">
                        <tspan x="15" y="28">CHECK OUR GITHUB !</tspan>
                    </text>
                    <g id="git" transform="translate(159.000000, 8.000000)" fill="#FFFFFE">
                        <path d="M14.5944293,0.351932 C6.66135804,0.351932 0.228450094,6.894402 0.228450094,14.965586 C0.228450094,21.422388 4.3447404,26.9003 10.0527835,28.83267 C10.7707494,28.967948 11.0343366,28.51565 11.0343366,28.12966 C11.0343366,27.78118 11.0210145,26.629986 11.0148293,25.408854 C7.01819994,26.29288 6.17486358,23.684604 6.17486358,23.684604 C5.5213671,21.995444 4.57978027,21.546292 4.57978027,21.546292 C3.27635574,20.639276 4.67803074,20.65791 4.67803074,20.65791 C6.12062361,20.76076 6.88022107,22.163876 6.88022107,22.163876 C8.1615214,24.39802 10.2409581,23.752122 11.0607429,23.378716 C11.1896818,22.434432 11.5619868,21.78926 11.9728308,21.424566 C8.78195053,21.055032 5.42763663,19.801956 5.42763663,14.202318 C5.42763663,12.606812 5.98883,11.303158 6.90781685,10.27974 C6.75865693,9.911416 6.26692879,8.425294 7.04698519,6.412338 C7.04698519,6.412338 8.25334872,6.019572 10.9986524,7.910318 C12.1445907,7.586522 13.3735542,7.42414 14.5944293,7.418574 C15.8153044,7.42414 17.0452195,7.586522 18.1932989,7.910318 C20.9352721,6.019572 22.1399703,6.412338 22.1399703,6.412338 C22.9219299,8.425294 22.4299639,9.911416 22.280804,10.27974 C23.2019319,11.303158 23.7593189,12.606812 23.7593189,14.202318 C23.7593189,19.815266 20.3985819,21.05116 17.1996131,21.41295 C17.7148928,21.866458 18.1740294,22.755808 18.1740294,24.119236 C18.1740294,26.074354 18.1573768,27.64808 18.1573768,28.12966 C18.1573768,28.518554 18.4159682,28.97424 19.1441636,28.830734 C24.8491141,26.896186 28.9601707,21.42021 28.9601707,14.965586 C28.9601707,6.894402 22.5282143,0.351932 14.5944293,0.351932" id="Fill-52"></path>
                        <path d="M5.75448352,21.3836095 C5.71586092,21.4710199 5.57879425,21.4968655 5.4539242,21.4370431 C5.32673098,21.3798343 5.25529369,21.2610607 5.29652985,21.1736503 C5.33428126,21.0839167 5.47163832,21.0592327 5.59854115,21.1187647 C5.72602476,21.1762639 5.79862363,21.2961991 5.75448352,21.3836095" id="Fill-53"></path>
                        <path d="M6.32190041,22.0502632 C6.24061019,22.1238114 6.08169911,22.0896542 5.97387667,21.9734095 C5.86238487,21.8574403 5.8414978,21.7023555 5.92391705,21.6277055 C6.00774759,21.5541573 6.16186029,21.58859 6.27363434,21.7045592 C6.38512613,21.8219057 6.40685998,21.9758886 6.32190041,22.0502632" id="Fill-54"></path>
                        <path d="M6.85668686,22.83591 C6.75983549,22.898104 6.6014704,22.839782 6.50357198,22.709828 C6.4067206,22.579874 6.4067206,22.424026 6.50566606,22.36159 C6.60382624,22.299154 6.75983549,22.355298 6.85904271,22.484284 C6.95563233,22.616174 6.95563233,22.772264 6.85668686,22.83591" id="Fill-55"></path>
                        <path d="M7.59390488,23.64903 C7.51516177,23.73736 7.34744607,23.713644 7.22469246,23.593128 C7.09908411,23.475274 7.0641136,23.308052 7.14309461,23.219722 C7.2227893,23.13115 7.39145657,23.156076 7.51516177,23.275624 C7.63981854,23.393236 7.67788168,23.561668 7.59390488,23.64903" id="Fill-56"></path>
                        <path d="M8.66443059,24.1525483 C8.62969798,24.2782664 8.46816754,24.3354109 8.30544764,24.2819874 C8.14296562,24.2269692 8.03662674,24.0797222 8.06945619,23.9526752 C8.10323722,23.8261598 8.26548134,23.7666231 8.42939072,23.8237677 C8.59163484,23.8785202 8.69821163,24.0247039 8.66443059,24.1525483" id="Fill-57"></path>
                        <path d="M9.84010572,24.24019 C9.84414992,24.378456 9.70617106,24.4931225 9.53536273,24.4953436 C9.36360283,24.5000636 9.22467238,24.3881735 9.22276922,24.2521286 C9.22276922,24.1124743 9.35765546,23.9989184 9.52941537,23.9955867 C9.70022369,23.9916997 9.84010572,24.1027568 9.84010572,24.24019" id="Fill-58"></path>
                        <path d="M10.934183,24.0400829 C10.9546419,24.1723302 10.8359325,24.3081151 10.6663137,24.3440341 C10.4995496,24.3791368 10.345156,24.2975027 10.3239833,24.1663437 C10.3032865,24.030831 10.424137,23.8950462 10.5906632,23.8599435 C10.7605199,23.8262013 10.9125346,23.9056586 10.934183,24.0400829" id="Fill-59"></path>
                    </g>
                </g>
            </g>
        </g>
    </g>
</svg>