<?xml version="1.0" encoding="UTF-8" standalone="no"?>
<svg width="130px" height="130px" viewBox="0 0 130 130" version="1.1" xmlns="http://www.w3.org/2000/svg" xmlns:xlink="http://www.w3.org/1999/xlink">
    <!-- Generator: Sketch 46.2 (44496) - http://www.bohemiancoding.com/sketch -->
    <title>hand-shake</title>
    <desc>Created with Sketch.</desc>
    <defs></defs>
    <g id="Home-+-navigation" stroke="none" stroke-width="1" fill="none" fill-rule="evenodd">
        <g id="Home" transform="translate(-255.000000, -1033.000000)" fill-rule="nonzero">
            <g id="Panel-2" transform="translate(0.000000, 655.000000)">
                <g id="hand-shake" transform="translate(255.000000, 378.000000)">
                    <circle id="Oval" fill="#3EE0BA" cx="65" cy="65" r="65"></circle>
                    <path d="M29.9152344,92.4492969 C28.2719531,89.9183594 28.9910156,86.5342969 31.5219531,84.8910156 L35.595625,82.2463281 C33.0646875,83.890625 29.680625,83.1705469 28.0373438,80.6396094 C26.3940625,78.1096875 27.113125,74.7266406 29.6440625,73.0823438 L32.6990625,71.0988281 L32.7041406,71.1059375 C38.1753125,67.5563281 49.1989062,60.3839844 51.5378906,58.8646094 C56.0899219,55.908125 62.4782031,52.316875 61.4686719,47.2580469 C73.8542187,38.1489062 78.1401562,46.678125 86.1575,46.5176563 L90.2819531,43.8394531 L105.824062,67.770625 L101.652891,70.4803125 C103.662812,75.4335156 98.1489844,80.7178125 96.1319531,82.0269531 C94.1778906,83.2964844 74.433125,96.11875 64.6536719,102.470469 C62.1440625,104.099531 60.2905469,105.303047 59.5623437,105.775313 L56.5073437,107.760859 L56.4870312,107.731406 C54.03125,108.965391 50.9884375,108.181328 49.456875,105.823047 C47.9253125,103.464766 48.4473437,100.367109 50.5740625,98.6263281 L50.5547656,98.596875 L46.9899219,100.911484 C44.4589844,102.55375 41.0749219,101.835703 39.4316406,99.3047656 C37.7873437,96.7738281 38.5074219,93.3907813 41.0383594,91.7464844 L37.4745312,94.0610938 C34.9425781,95.6992969 31.5585156,94.98125 29.9152344,92.4492969 Z" id="Shape" fill="#F7EAC6"></path>
                    <path d="M96.2792187,73.0803125 L93.2242187,71.0967969 L93.2191406,71.1039063 C87.7479687,67.5553125 76.724375,60.3819531 74.384375,58.8625781 C69.8333594,55.9060938 63.4450781,52.3148438 64.4546094,47.2560156 C63.9508594,46.8863281 63.4552344,46.548125 62.9616406,46.223125 C62.4761719,46.5420313 61.9815625,46.8782031 61.4686719,47.2560156 C62.4782031,52.3148438 56.0899219,55.9071094 51.5378906,58.8625781 C49.1989062,60.3819531 38.1753125,67.5553125 32.7041406,71.1039063 L32.6990625,71.0967969 L29.6440625,73.0803125 C27.145625,74.7042969 26.4164063,78.0203125 27.9804688,80.5410938 C28.6792188,81.2103906 29.3282031,81.7232813 29.7923438,82.0239063 C30.0228906,82.1732031 30.5083594,82.4890625 31.1878125,82.9308594 C32.6360938,83.3249219 34.2377344,83.1289062 35.5966406,82.2463281 L32.865625,84.0196094 C39.2234375,88.148125 53.4391406,97.3801563 61.2716406,102.467422 C61.8769531,102.860469 62.440625,103.225078 62.9626562,103.564297 C63.4857031,103.225078 64.049375,102.860469 64.6546875,102.467422 C72.4861719,97.3801563 86.7028906,88.148125 93.0607031,84.0196094 L90.3296875,82.2463281 C91.6885937,83.1289062 93.29125,83.3239063 94.7395312,82.9288281 C95.4179687,82.4880469 95.9034375,82.1742188 96.1339844,82.0228906 C96.598125,81.7222656 97.2471094,81.209375 97.9448437,80.5410938 C99.506875,78.0203125 98.7776562,74.7042969 96.2792187,73.0803125 Z" id="Shape" fill="#E6D9B8"></path>
                    <rect id="Rectangle-path" fill="#E6E6E6" transform="translate(99.327621, 54.980432) rotate(147.007600) translate(-99.327621, -54.980432) " x="96.5958566" y="39.5003042" width="5.46352977" height="30.9602559"></rect>
                    <path d="M91.5291406,37.9579688 L111.700469,69.0167969 L129.546016,57.4275 C128.031719,44.3746875 122.652969,32.5071094 114.580781,22.9886719 L91.5291406,37.9579688 Z" id="Shape" fill="#805026"></path>
                    <path d="M93.5786719,92.4492969 C95.2219531,89.9183594 94.5028906,86.5342969 91.9719531,84.8910156 L87.8982812,82.2463281 C90.4282031,83.890625 93.8122656,83.1705469 95.4565625,80.6396094 C97.0988281,78.1096875 96.3807812,74.7266406 93.8498437,73.0823437 L90.7948437,71.0988281 L90.7907812,71.1059375 C85.3185937,67.5563281 74.295,60.3839844 71.955,58.8646094 C67.4039844,55.908125 61.0146875,52.316875 62.0242187,47.2580469 C49.6386719,38.1489063 40.1466406,43.2910156 37.3353906,46.5176563 L33.2109375,43.8394531 L17.6708594,67.7696094 L21.8420313,70.4792969 C19.833125,75.4325 25.3459375,80.7167969 27.3619531,82.0259375 C29.3160156,83.2954687 49.0607812,96.1177344 58.8402344,102.469453 C61.3498437,104.098516 63.2033594,105.302031 63.9315625,105.774297 L66.9855469,107.759844 L67.0058594,107.730391 C69.4616406,108.964375 72.5044531,108.180312 74.0360156,105.822031 C75.5675781,103.46375 75.0455469,100.366094 72.9188281,98.6253125 L72.9391406,98.5958594 L76.5039844,100.910469 C79.0349219,102.552734 82.4189844,101.834687 84.06125,99.30375 C85.7045312,96.7728125 84.9854687,93.3897656 82.4545312,91.7454687 L86.019375,94.0600781 C88.5513281,95.6992969 91.9353906,94.98125 93.5786719,92.4492969 Z" id="Shape" fill="#FFF4D9"></path>
                    <g id="Group" transform="translate(17.519531, 43.671875)" fill="#F2E4C2">
                        <path d="M50.5039844,63.0378125 L50.4846875,63.0672656 L47.4296875,61.08375 C46.7014844,60.6114844 44.8479687,59.4069531 42.3383594,57.776875 C32.5589062,51.4261719 12.8141406,38.6039062 10.8600781,37.334375 C8.8440625,36.02625 3.33125,30.7419531 5.34015625,25.7867187 L1.16898437,23.0790625 L15.9442969,0.32703125 L15.6934375,0.16453125 L0.15234375,24.0957031 L4.32351562,26.8053906 C2.31460937,31.7585937 7.82742187,37.0428906 9.8434375,38.3520312 C11.7975,39.6215625 31.5422656,52.4438281 41.3217187,58.7955469 C43.8313281,60.4246094 45.6848437,61.628125 46.4130469,62.1003906 L49.4680469,64.0859375 L49.4873437,64.0564844 C51.7999219,65.2183594 54.6182812,64.5734375 56.2189062,62.5269531 C54.5939062,63.7396094 52.3798437,63.9823437 50.5039844,63.0378125 Z" id="Shape"></path>
                        <path d="M59.9990625,56.2189062 L38.6303125,42.485625 C37.9660937,42.2286719 37.188125,42.8319531 37.8899219,43.5225781 L58.9854687,57.2335156 C61.3874219,58.7945312 64.5429687,58.2034375 66.2634375,55.9761719 C64.48,57.3249219 61.9825781,57.5067187 59.9990625,56.2189062 Z" id="Shape"></path>
                        <path d="M69.5540625,49.4264062 L42.1829687,31.5148437 C41.51875,31.2578906 40.7407812,31.8611719 41.4425781,32.5517969 L68.5394531,50.4410156 C70.9424219,52.0020312 74.0979688,51.4109375 75.8194531,49.1826562 C74.0329688,50.5334375 71.5385938,50.7142187 69.5540625,49.4264062 Z" id="Shape"></path>
                        <path d="M71.394375,37.65125 L50.3282812,23.7635937 C49.6650781,23.5076562 48.8860937,24.1109375 49.5878906,24.8015625 L70.3797656,38.6658594 C72.7827344,40.226875 75.9372656,39.6357812 77.65875,37.4075 C75.8742969,38.7582812 73.3778906,38.9390625 71.394375,37.65125 Z" id="Shape"></path>
                    </g>
                    <rect id="Rectangle-path" fill="#E6E6E6" transform="translate(24.175718, 54.964577) rotate(32.997206) translate(-24.175718, -54.964577) " x="21.4436774" y="39.482844" width="5.46408121" height="30.9634654"></rect>
                    <path d="M0.102578125,61.4239844 L11.7944531,69.0167969 L31.96375,37.9579687 L13.1858594,25.7633594 C5.58796875,35.7804687 0.82671875,48.0634375 0.102578125,61.4239844 Z" id="Shape" fill="#406A80"></path>
                    <path d="M62.505625,40.9083594 C58.7874219,40.8321875 48.3904687,43.1092188 45.8859375,42.8817188 C43.3814062,42.6532031 36.8763281,53.535625 34.6429687,56.1508594 C34.62875,56.168125 34.6165625,56.1884375 34.6023437,56.2057031 C34.5434375,56.2686719 34.4855469,56.3194531 34.4266406,56.3885156 C32.35375,58.8067188 28.689375,62.6264844 30.4240625,65.2975781 C31.57375,67.0678125 33.5308594,67.9910156 35.4971094,67.9138281 C35.498125,67.916875 35.5011719,67.925 35.5011719,67.925 C35.5478906,67.9209375 35.5986719,67.9148438 35.6484375,67.9097656 C36.27,67.868125 36.8895312,67.7228906 37.4836719,67.4750781 C40.7011719,66.3436719 45.7528906,62.7960938 51.1986719,53.1263281 C56.3590625,57.0730469 71.5365625,62.3847656 85.8792188,46.3724219 C79.6564844,43.1092188 66.2248438,40.9845313 62.505625,40.9083594 Z" id="Shape" fill="#F7EAC6"></path>
                    <g id="Group" transform="translate(65.000000, 74.140625)" fill="#FFFFFF">
                        <path d="M5.29140625,25.5602344 L3.69992188,24.5253125 C3.52523438,24.4125781 3.28960938,24.4613281 3.17484375,24.6370312 L0.281328125,29.0935937 C0.167578125,29.2682812 0.21734375,29.5039062 0.393046875,29.6186719 L1.98351563,30.6535937 C3.39015625,31.565625 5.27007813,31.1675 6.183125,29.7598437 C7.0971875,28.3532031 6.69703125,26.4732812 5.29140625,25.5602344 Z" id="Shape"></path>
                        <path d="M14.3985156,18.2751562 L12.8070313,17.24125 C12.6323438,17.1275 12.3967188,17.1772656 12.2819531,17.3519531 L9.3884375,21.8075 C9.2746875,21.9821875 9.32445313,22.2188281 9.49914063,22.3335937 L11.090625,23.3664844 C12.49625,24.2795312 14.3761719,23.8814062 15.2902344,22.4747656 C16.2022656,21.068125 15.8041406,19.1882031 14.3985156,18.2751562 Z" id="Shape"></path>
                        <path d="M24.1109375,11.5974219 L22.5204688,10.5625 C22.3457813,10.4497656 22.1091406,10.4985156 21.994375,10.6732031 L19.1008594,15.12875 C18.9871094,15.3054687 19.036875,15.5400781 19.2125781,15.6548437 L20.8030469,16.68875 C22.2096875,17.6017969 24.0885938,17.2026562 25.0026563,15.7960156 C25.9167188,14.3903906 25.5175781,12.5104687 24.1109375,11.5974219 Z" id="Shape"></path>
                        <path d="M27.1476563,1.27664063 L25.5571875,0.242734375 C25.3825,0.128984375 25.1458594,0.17875 25.0310938,0.352421875 L22.1375781,4.80796875 C22.0238281,4.9846875 22.0746094,5.2203125 22.2492969,5.3340625 L23.8397656,6.36796875 C25.2464063,7.28101563 27.1253125,6.881875 28.039375,5.47523438 C28.9534375,4.06960938 28.5522656,2.1896875 27.1476563,1.27664063 Z" id="Shape"></path>
                    </g>
                </g>
            </g>
        </g>
    </g>
</svg>