<?xml version="1.0" encoding="UTF-8"?>
<svg width="25px" height="25px" viewBox="0 0 25 25" version="1.1" xmlns="http://www.w3.org/2000/svg" xmlns:xlink="http://www.w3.org/1999/xlink">
    <!-- Generator: Sketch 51.3 (57544) - http://www.bohemiancoding.com/sketch -->
    <title>vector_iD_icon</title>
    <desc>Created with Sketch.</desc>
    <defs></defs>
    <g id="Scenario-cards" stroke="none" stroke-width="1" fill="none" fill-rule="evenodd">
        <g id="Hover_author" transform="translate(-502.000000, -32.000000)" fill-rule="nonzero">
            <g id="vector_iD_icon" transform="translate(502.000000, 32.000000)">
                <path d="M25,12.5 C25,19.4042969 19.4042969,25 12.5,25 C5.59570312,25 0,19.4042969 0,12.5 C0,5.59570312 5.59570312,0 12.5,0 C19.4042969,0 25,5.59570312 25,12.5 Z" id="Shape" fill="#A6CE39"></path>
                <g id="Group" transform="translate(6.640625, 4.492188)" fill="#FFFFFF">
                    <polygon id="Shape" points="1.78710938 13.6914062 0.283203125 13.6914062 0.283203125 3.23242188 1.78710938 3.23242188 1.78710938 7.95898438 1.78710938 13.6914062"></polygon>
                    <path d="M3.99414062,3.23242188 L8.05664062,3.23242188 C11.9238281,3.23242188 13.6230469,5.99609375 13.6230469,8.46679688 C13.6230469,11.1523438 11.5234375,13.7011719 8.07617187,13.7011719 L3.99414062,13.7011719 L3.99414062,3.23242188 Z M5.49804688,12.34375 L7.890625,12.34375 C11.2988281,12.34375 12.0800781,9.75585938 12.0800781,8.46679687 C12.0800781,6.3671875 10.7421875,4.58984375 7.8125,4.58984375 L5.49804688,4.58984375 L5.49804688,12.34375 Z" id="Shape"></path>
                    <path d="M2.02148438,1.0546875 C2.02148438,1.59179688 1.58203125,2.04101562 1.03515625,2.04101562 C0.48828125,2.04101562 0.048828125,1.59179687 0.048828125,1.0546875 C0.048828125,0.5078125 0.48828125,0.068359375 1.03515625,0.068359375 C1.58203125,0.068359375 2.02148438,0.517578125 2.02148438,1.0546875 Z" id="Shape"></path>
                </g>
            </g>
        </g>
    </g>
</svg>