<?xml version="1.0" encoding="UTF-8"?>
<svg width="40px" height="37px" viewBox="0 0 40 37" version="1.1" xmlns="http://www.w3.org/2000/svg" xmlns:xlink="http://www.w3.org/1999/xlink">
    <!-- Generator: Sketch 48.2 (47327) - http://www.bohemiancoding.com/sketch -->
    <title>padlock</title>
    <desc>Created with Sketch.</desc>
    <defs></defs>
    <g id="Home_aliens" stroke="none" stroke-width="1" fill="none" fill-rule="evenodd" transform="translate(-625.000000, -920.000000)">
        <g id="Why-standards-?" transform="translate(120.000000, 690.000000)" fill="#656565" fill-rule="nonzero">
            <g id="Text" transform="translate(500.000000, 78.000000)">
                <g id="padlock" transform="translate(5.000000, 152.000000)">
                    <path d="M34.6257909,5.41969493 C31.1609485,1.92552714 26.5521321,0 21.6552646,0 C16.6678669,0 12.0014403,1.98362494 8.52013785,5.58568865 C8.1415565,5.97577389 8.14978653,6.60655002 8.53659791,6.99663526 C8.92340929,7.37842082 9.54889152,7.37012113 9.9357029,6.98003589 C13.046654,3.76805742 17.2028188,2.00022432 21.6552646,2.00022432 C30.6836068,1.99192463 38.024793,9.3952445 38.024793,18.5 C38.024793,27.6047555 30.6836068,35.0080754 21.6552646,35.0080754 C12.6269225,35.0080754 5.28573633,27.6047555 5.28573633,18.5 L5.28573633,18.2925079 L6.91528214,19.9358457 C7.10457281,20.1267384 7.35970372,20.2263347 7.61483463,20.2263347 C7.86996554,20.2263347 8.11686642,20.1267384 8.31438712,19.9358457 C8.7011985,19.5457604 8.7011985,18.9149843 8.31438712,18.5248991 L5.00591533,15.1801256 C4.61910396,14.7900404 3.99362173,14.7900404 3.60681035,15.1801256 L0.290108534,18.5248991 C-0.0967028445,18.9149843 -0.0967028445,19.5457604 0.290108534,19.9358457 C0.479399208,20.1267384 0.734530117,20.2263347 0.989661026,20.2263347 C1.24479193,20.2263347 1.49169281,20.1267384 1.68921352,19.9358457 L3.31875932,18.2925079 L3.31875932,18.5 C3.31875932,23.4383131 5.22812613,28.0861373 8.69296847,31.5803051 C12.1578108,35.0744729 16.7666272,37 21.6634947,37 C26.5603621,37 31.1691785,35.0744729 34.6340209,31.5803051 C38.0988632,28.0861373 40,23.4383131 40,18.5 C40,13.5616869 38.0906332,8.91386272 34.6257909,5.41969493 Z" id="Shape"></path>
                    <path d="M21.9957041,8 C18.6448687,8 15.9212411,10.6788732 15.9212411,13.9746479 L15.9212411,16.856338 L14.0310263,16.856338 C13.4639618,16.856338 13,17.3126761 13,17.8704225 L13,27.9859155 C13,28.543662 13.4639618,29 14.0310263,29 L29.9689737,29 C30.5360382,29 31,28.543662 31,27.9859155 L31,17.8788732 C31,17.3211268 30.5360382,16.8647887 29.9689737,16.8647887 L28.0787589,16.8647887 L28.0787589,13.9830986 C28.0787589,10.6873239 25.3465394,8 21.9957041,8 Z M18,14.0457921 C18,11.8106436 19.7987152,10 22,10 C24.2012848,10 26,11.8193069 26,14.0457921 L26,17 L18,17 L18,14.0457921 Z M29,27 L15,27 L15,19 L29,19 L29,27 Z" id="Shape"></path>
                </g>
            </g>
        </g>
    </g>
</svg>