<?xml version="1.0" encoding="UTF-8"?>
<svg width="28px" height="34px" viewBox="0 0 28 34" version="1.1" xmlns="http://www.w3.org/2000/svg" xmlns:xlink="http://www.w3.org/1999/xlink">
    <!-- Generator: Sketch 53 (72520) - https://sketchapp.com -->
    <title>padlock</title>
    <desc>Created with Sketch.</desc>
    <defs>
        <filter x="-4.0%" y="-24.0%" width="108.0%" height="148.0%" filterUnits="objectBoundingBox" id="filter-1">
            <feOffset dx="0" dy="2" in="SourceAlpha" result="shadowOffsetOuter1"></feOffset>
            <feGaussianBlur stdDeviation="2" in="shadowOffsetOuter1" result="shadowBlurOuter1"></feGaussianBlur>
            <feColorMatrix values="0 0 0 0 0.71372549   0 0 0 0 0.705882353   0 0 0 0 0.705882353  0 0 0 0.5 0" type="matrix" in="shadowBlurOuter1" result="shadowMatrixOuter1"></feColorMatrix>
            <feMerge>
                <feMergeNode in="shadowMatrixOuter1"></feMergeNode>
                <feMergeNode in="SourceGraphic"></feMergeNode>
            </feMerge>
        </filter>
    </defs>
    <g id="Contribute" stroke="none" stroke-width="1" fill="none" fill-rule="evenodd">
        <g id="Login" transform="translate(-476.000000, -247.000000)" fill="#63B9D8">
            <g id="Group" transform="translate(450.000000, 167.000000)">
                <g id="Group-3" filter="url(#filter-1)" transform="translate(0.000000, 70.000000)">
                    <g id="padlock" transform="translate(30.000000, 12.000000)">
                        <path d="M17.0588235,9.546875 L15.2923039,9.546875 L15.2923039,5.37113281 C15.2923039,2.40946875 12.9173529,0 9.99818627,0 C7.07901961,0 4.70406863,2.40946875 4.70406863,5.37113281 L4.70406863,9.546875 L2.94117647,9.546875 C1.31941176,9.546875 0,10.9137031 0,12.59375 L0,22.953125 C0,24.6331719 1.31941176,26 2.94117647,26 L17.0588235,26 C18.6805882,26 20,24.6331719 20,22.953125 L20,12.59375 C20,10.9137031 18.6805882,9.546875 17.0588235,9.546875 Z M6.66485294,5.37113281 C6.66485294,3.5295 8.16019608,2.03125 9.99818627,2.03125 C11.8361765,2.03125 13.3315196,3.5295 13.3315196,5.37113281 L13.3315196,9.546875 L6.66485294,9.546875 L6.66485294,5.37113281 Z M18.0392157,22.953125 C18.0392157,23.5131406 17.5994118,23.96875 17.0588235,23.96875 L2.94117647,23.96875 C2.40058824,23.96875 1.96078431,23.5131406 1.96078431,22.953125 L1.96078431,12.59375 C1.96078431,12.0337344 2.40058824,11.578125 2.94117647,11.578125 L17.0588235,11.578125 C17.5994118,11.578125 18.0392157,12.0337344 18.0392157,12.59375 L18.0392157,22.953125 Z" id="Shape" fill-rule="nonzero"></path>
                        <path d="M10,15 C8.89540541,15 8,15.878447 8,16.9621212 C8,17.6540606 8.36540541,18.2618939 8.91691892,18.6112576 L8.91691892,20.9393939 C8.91691892,21.5251136 9.40091892,22 9.998,22 C10.595027,22 11.0790811,21.5251136 11.0790811,20.9393939 L11.0790811,18.61375 C11.6328108,18.2648106 12,17.6557576 12,16.9621212 C12,15.878447 11.1045946,15 10,15 Z" id="Path"></path>
                    </g>
                </g>
            </g>
        </g>
    </g>
</svg>