<?xml version="1.0" encoding="UTF-8"?>
<svg width="24px" height="24px" viewBox="0 0 24 24" version="1.1" xmlns="http://www.w3.org/2000/svg" xmlns:xlink="http://www.w3.org/1999/xlink">
    <!-- Generator: Sketch 51.3 (57544) - http://www.bohemiancoding.com/sketch -->
    <title>Shape</title>
    <desc>Created with Sketch.</desc>
    <defs></defs>
    <g id="Profile" stroke="none" stroke-width="1" fill="none" fill-rule="evenodd">
        <g id="2" transform="translate(-392.000000, -447.000000)" fill="#FFFFFF" fill-rule="nonzero">
            <g id="Button" transform="translate(380.000000, 435.000000)">
                <path d="M24,12 C17.3722353,12 12,17.3722353 12,24 C12,30.6277647 17.3722353,36 24,36 C30.6277647,36 36,30.6269804 36,24 C36,17.3730196 30.6277647,12 24,12 Z M24,34.5 C18.2009804,34.5 13.5,29.7990196 13.5,24 C13.5,18.2009804 18.2009804,13.5 24,13.5 C29.7990196,13.5 34.5,18.2009804 34.5,24 C34.5,29.7990196 29.7990196,34.5 24,34.5 Z M28.5,23.25 L24.75,23.25 L24.75,19.5 C24.75,19.086 24.414,18.75 24,18.75 C23.586,18.75 23.25,19.086 23.25,19.5 L23.25,23.25 L19.5,23.25 C19.086,23.25 18.75,23.586 18.75,24 C18.75,24.414 19.086,24.75 19.5,24.75 L23.25,24.75 L23.25,28.5 C23.25,28.914 23.586,29.25 24,29.25 C24.414,29.25 24.75,28.914 24.75,28.5 L24.75,24.75 L28.5,24.75 C28.914,24.75 29.25,24.414 29.25,24 C29.25,23.586 28.914,23.25 28.5,23.25 Z" id="Shape"></path>
            </g>
        </g>
    </g>
</svg>