<?xml version="1.0" encoding="UTF-8"?>
<svg width="59px" height="59px" viewBox="0 0 59 59" version="1.1" xmlns="http://www.w3.org/2000/svg" xmlns:xlink="http://www.w3.org/1999/xlink">
    <!-- Generator: Sketch 51.3 (57544) - http://www.bohemiancoding.com/sketch -->
    <title>Group 18</title>
    <desc>Created with Sketch.</desc>
    <defs></defs>
    <g id="Contribute" stroke="none" stroke-width="1" fill="none" fill-rule="evenodd">
        <g id="Contribute_steps-filled" transform="translate(-105.000000, -522.000000)">
            <g id="Group-10" transform="translate(80.000000, 433.000000)">
                <g id="Group-18" transform="translate(25.000000, 89.000000)">
                    <g id="list-(1)" fill="#63B9D8" fill-rule="nonzero">
                        <path d="M16.0098167,11.6166667 L32.1166667,11.6166667 C32.4938667,11.6166667 32.8,11.3112167 32.8,10.9333333 C32.8,10.55545 32.4938667,10.25 32.1166667,10.25 L16.0098167,10.25 C15.6326167,10.25 15.3264833,10.55545 15.3264833,10.9333333 C15.3264833,11.3112167 15.6326167,11.6166667 16.0098167,11.6166667 Z" id="Path"></path>
                        <path d="M16.0098167,21.8666667 L32.1166667,21.8666667 C32.4938667,21.8666667 32.8,21.5612167 32.8,21.1833333 C32.8,20.80545 32.4938667,20.5 32.1166667,20.5 L16.0098167,20.5 C15.6326167,20.5 15.3264833,20.80545 15.3264833,21.1833333 C15.3264833,21.5612167 15.6326167,21.8666667 16.0098167,21.8666667 Z" id="Path"></path>
                        <path d="M16.0098167,32.1166667 L32.1166667,32.1166667 C32.4938667,32.1166667 32.8,31.8112167 32.8,31.4333333 C32.8,31.05545 32.4938667,30.75 32.1166667,30.75 L16.0098167,30.75 C15.6326167,30.75 15.3264833,31.05545 15.3264833,31.4333333 C15.3264833,31.8112167 15.6326167,32.1166667 16.0098167,32.1166667 Z" id="Path"></path>
                        <path d="M40.3166667,0 L0.683333333,0 C0.306133333,0 0,0.30545 0,0.683333333 L0,40.3166667 C0,40.69455 0.306133333,41 0.683333333,41 L40.3166667,41 C40.6938667,41 41,40.69455 41,40.3166667 L41,0.683333333 C41,0.30545 40.6938667,0 40.3166667,0 Z M39.6333333,39.6333333 L1.36666667,39.6333333 L1.36666667,1.36666667 L39.6333333,1.36666667 L39.6333333,39.6333333 Z" id="Shape"></path>
                        <polygon id="Path" points="8.54235 12.6239 10.2014833 11.7512833 11.8606167 12.6239 11.5442333 10.7761667 12.8863 9.4669 11.03105 9.19766667 10.2014833 7.51666667 9.37191667 9.19766667 7.51666667 9.4669 8.85941667 10.7761667"></polygon>
                        <polygon id="Path" points="8.54235 22.9306167 10.2014833 22.058 11.8606167 22.9306167 11.5442333 21.0828833 12.8863 19.7743 11.03105 19.5043833 10.2014833 17.8233833 9.37191667 19.5043833 7.51666667 19.7743 8.85941667 21.0828833"></polygon>
                        <polygon id="Path" points="8.54235 33.4833333 10.2014833 32.6107167 11.8606167 33.4833333 11.5442333 31.6356 12.8863 30.3270167 11.03105 30.0571 10.2014833 28.3761 9.37191667 30.0571 7.51666667 30.3270167 8.85941667 31.6356"></polygon>
                    </g>
                    <g id="Group-17" transform="translate(24.000000, 24.000000)">
                        <circle id="Oval" fill="#FFFFFF" cx="17.5" cy="17.5" r="17.5"></circle>
                        <g id="reload" transform="translate(6.730769, 5.384615)" fill="#63B9D8" fill-rule="nonzero">
                            <path d="M4.56231221,4.7222962 C8.18019515,1.54204111 13.5945096,1.49341336 17.2624324,4.39649025 L14.3551157,4.50347131 C13.9798166,4.51805963 13.6895854,4.81955171 13.7045973,5.18425986 C13.7196093,5.53924246 14.0198485,5.81642066 14.3801356,5.81642066 C14.3901436,5.81642066 14.3951476,5.81642066 14.4051556,5.81642066 L18.8687124,5.65594907 C19.2340035,5.64136074 19.5192308,5.354457 19.5192308,4.99947439 L19.5192308,4.95084664 C19.5192308,4.94112109 19.5192308,4.93625831 19.5192308,4.92653276 L19.5192308,4.92166999 L19.3540992,0.632702116 C19.3390872,0.267993964 19.023836,-0.0140470076 18.6535409,0.000541318505 C18.2782419,0.0151296446 17.9880106,0.316621717 18.0030226,0.68132987 L18.1081063,3.37044465 C16.2916588,1.92620036 14.0548764,1.089803 11.6629704,0.973096392 C8.70060985,0.827213131 5.85334098,1.81435653 3.65659048,3.74974113 C0.634182044,6.40967925 -0.646838749,10.4555084 0.313926846,14.3068264 C0.388986658,14.6083185 0.664205969,14.8076923 0.969449205,14.8076923 C1.02449307,14.8076923 1.07453294,14.8028295 1.1295768,14.7882412 C1.4898639,14.7007112 1.71504334,14.3457286 1.62497156,13.9956088 C0.784301668,10.6111172 1.90519486,7.05642837 4.56231221,4.7222962 Z" id="Path"></path>
                            <path d="M21.8987024,9.92381594 C21.8089436,9.57367976 21.4449217,9.35484465 21.0858865,9.44237869 C20.7268512,9.52991274 20.5024542,9.88491192 20.592213,10.2350481 C21.4349485,13.6196978 20.3129634,17.1745526 17.6650784,19.5087938 C15.8050764,21.1476257 13.4713473,21.9548841 11.1475913,21.9548841 C8.92855405,21.9548841 6.71450335,21.2205707 4.92930031,19.771396 L7.8614215,19.5136568 C8.23042995,19.4796158 8.50469299,19.1635206 8.46978679,18.7987955 C8.43488058,18.4340703 8.11075154,18.1714681 7.73675649,18.2055092 L3.30366849,18.5945494 C2.93466005,18.6285904 2.66039701,18.9446855 2.69530321,19.3094107 L3.09423127,23.6326199 C3.12415087,23.9730301 3.41836031,24.2307692 3.76243576,24.2307692 C3.78238216,24.2307692 3.80232856,24.2307692 3.82227496,24.2259062 C4.19128341,24.1918652 4.46554645,23.87577 4.43064025,23.5110449 L4.19128341,20.8801605 C6.00141946,22.3098833 8.22045675,23.1414567 10.5890921,23.2581687 C10.7785829,23.2678947 10.9680737,23.2727577 11.1525779,23.2727577 C13.9001949,23.2727577 16.5131737,22.2904312 18.5676531,20.4813943 C21.5795599,17.821332 22.8561297,13.7801769 21.8987024,9.92381594 Z" id="Path"></path>
                        </g>
                    </g>
                </g>
            </g>
        </g>
    </g>
</svg>