<?xml version="1.0" encoding="UTF-8"?>
<svg width="93px" height="82px" viewBox="0 0 93 82" version="1.1" xmlns="http://www.w3.org/2000/svg" xmlns:xlink="http://www.w3.org/1999/xlink">
    <!-- Generator: Sketch 51.3 (57544) - http://www.bohemiancoding.com/sketch -->
    <title>Screen</title>
    <desc>Created with Sketch.</desc>
    <defs></defs>
    <g id="Home" stroke="none" stroke-width="1" fill="none" fill-rule="evenodd">
        <g id="New-Home" transform="translate(-520.000000, -2039.000000)">
            <g id="Panel_4" transform="translate(0.000000, 1809.000000)">
                <g id="Group-4" transform="translate(220.000000, 220.000000)">
                    <g id="Screen" transform="translate(300.000000, 10.000000)">
                        <rect id="Rectangle" stroke="#3E6477" stroke-width="3" fill="#C0D7DE" x="1.5" y="1.5" width="90" height="65" rx="5"></rect>
                        <g id="Group-2" transform="translate(27.000000, 65.000000)" fill="#3E6477">
                            <path d="M37.3409091,16.8275862 L1.40909091,16.8275862 C0.631272727,16.8275862 3.55271368e-15,16.1942069 3.55271368e-15,15.4137931 C3.55271368e-15,14.6333793 0.631272727,14 1.40909091,14 L37.3409091,14 C38.1187273,14 38.75,14.6333793 38.75,15.4137931 C38.75,16.1942069 38.1187273,16.8275862 37.3409091,16.8275862 Z" id="Path-Copy-3"></path>
                            <path d="M19.4090909,16.3462759 C18.6312727,16.3462759 18,15.7128966 18,14.9324828 L18,1.4137931 C18,0.63337931 18.6312727,8.8817842e-15 19.4090909,8.8817842e-15 C20.1869091,8.8817842e-15 20.8181818,0.63337931 20.8181818,1.4137931 L20.8181818,14.9324828 C20.8181818,15.7157241 20.1869091,16.3462759 19.4090909,16.3462759 Z" id="Path-Copy-4"></path>
                        </g>
                        <g id="Group-3" transform="translate(26.000000, 16.000000)">
                            <ellipse id="Oval" stroke="#979797" stroke-width="1.2" fill="#FFFFFF" cx="6.03448276" cy="19.0967742" rx="3.62068966" ry="3.58064516"></ellipse>
                            <ellipse id="Oval-Copy" stroke="#979797" stroke-width="1.2" fill="#FFFFFF" cx="28.9655172" cy="5.96774194" rx="3.62068966" ry="3.58064516"></ellipse>
                            <ellipse id="Oval-Copy-2" stroke="#979797" stroke-width="1.2" fill="#FFFFFF" cx="28.9655172" cy="31.0322581" rx="3.62068966" ry="3.58064516"></ellipse>
                            <path d="M28.6893574,11.4205295 C25.5125862,11.4205295 22.9310345,8.85901001 22.9310345,5.71026474 C22.9310345,2.56151947 25.5125862,1.11910481e-13 28.6893574,1.11910481e-13 C31.8627273,1.11910481e-13 34.444279,2.56151947 34.444279,5.71026474 C34.444279,8.85901001 31.8627273,11.4205295 28.6893574,11.4205295 Z M28.6893574,3.3714861 C27.3900784,3.3714861 26.3322884,4.42106785 26.3322884,5.70688988 C26.3322884,6.9927119 27.3900784,8.04229366 28.6893574,8.04229366 C29.9886364,8.04229366 31.0430251,6.9927119 31.0430251,5.70688988 C31.0430251,4.42106785 29.9886364,3.3714861 28.6893574,3.3714861 Z" id="Shape-Copy" fill="#63B9D8" fill-rule="nonzero"></path>
                            <path d="M28.6893574,36.4884205 C25.5125862,36.4884205 22.9310345,33.926901 22.9310345,30.7781557 C22.9310345,27.6294105 25.5125862,25.0645161 28.6893574,25.0645161 C31.8627273,25.0645161 34.444279,27.6294105 34.444279,30.7781557 C34.444279,33.926901 31.8627273,36.4884205 28.6893574,36.4884205 Z M28.6893574,28.4360022 C27.3900784,28.4360022 26.3322884,29.4889588 26.3322884,30.7747809 C26.3322884,32.0606029 27.3900784,33.1101846 28.6893574,33.1101846 C29.9886364,33.1101846 31.0430251,32.0606029 31.0430251,30.7747809 C31.0430251,29.4889588 29.9886364,28.4360022 28.6893574,28.4360022 Z" id="Shape-Copy-2" fill="#63B9D8" fill-rule="nonzero"></path>
                            <path d="M5.75492163,24.5495617 C2.58155172,24.5495617 -6.75015599e-14,21.9880423 -6.75015599e-14,18.839297 C-6.75015599e-14,15.6905517 2.58155172,13.1290323 5.75492163,13.1290323 C8.92829154,13.1290323 11.5098433,15.6905517 11.5098433,18.839297 C11.5098433,21.9880423 8.92829154,24.5495617 5.75492163,24.5495617 Z M5.75492163,16.5005184 C4.45564263,16.5005184 3.40125392,17.5501001 3.40125392,18.8359221 C3.40125392,20.1217442 4.45904389,21.1713259 5.75492163,21.1713259 C7.05079937,21.1713259 8.10858934,20.1217442 8.10858934,18.8359221 C8.10858934,17.5501001 7.05420063,16.5005184 5.75492163,16.5005184 Z" id="Shape-Copy-3" fill="#63B9D8" fill-rule="nonzero"></path>
                            <path d="M8.94569567,18.0986621 C8.35387749,18.0986621 7.77566432,17.7915498 7.46274896,17.2414474 C7.00017843,16.4314808 7.28588375,15.4021482 8.1021847,14.9397923 L23.6731251,6.18877781 C24.4962286,5.72642186 25.5302098,6.01328504 25.9927803,6.82662653 C26.4553508,7.63659316 26.1696455,8.66592576 25.3533446,9.12828171 L9.78240413,17.8792962 C9.51710633,18.0311649 9.22799974,18.0986621 8.94569567,18.0986621 Z" id="Path-Copy-5" fill="#63B9D8"></path>
                            <path d="M24.6232201,31.2228204 C24.3588679,31.2228204 24.0881458,31.1589242 23.8397184,31.028089 L9.25575697,23.1384237 C8.49136502,22.7215767 8.22064287,21.7966025 8.65698328,21.0633169 C9.09013871,20.3300314 10.0583685,20.0744464 10.8291304,20.4882507 L25.4130918,28.3779161 C26.1774838,28.794763 26.4482059,29.7197373 26.0118655,30.4530228 C25.7188486,30.9489794 25.1774043,31.2228204 24.6232201,31.2228204 Z" id="Path-Copy-6" fill="#63B9D8"></path>
                        </g>
                    </g>
                </g>
            </g>
        </g>
    </g>
</svg>