<?xml version="1.0" encoding="UTF-8"?>
<svg width="20px" height="20px" viewBox="0 0 20 20" version="1.1" xmlns="http://www.w3.org/2000/svg" xmlns:xlink="http://www.w3.org/1999/xlink">
    <!-- Generator: Sketch 46.2 (44496) - http://www.bohemiancoding.com/sketch -->
    <title>spain</title>
    <desc>Created with Sketch.</desc>
    <defs></defs>
    <g id="Home-+-navigation" stroke="none" stroke-width="1" fill="none" fill-rule="evenodd">
        <g id="Home-Copy" transform="translate(-1033.000000, -249.000000)" fill-rule="nonzero">
            <g id="spain" transform="translate(1033.000000, 249.000000)">
                <path d="M15.625,0 L4.375,0 C1.95875,0 0,1.95875 0,4.375 L0,15.625 C0,18.04125 1.95875,20 4.375,20 L15.625,20 C18.04125,20 20,18.04125 20,15.625 L20,4.375 C20,1.95875 18.04125,0 15.625,0 Z" id="Shape" fill="#C8414B"></path>
                <rect id="Rectangle-path" fill="#FFD250" x="0" y="4.21052632" width="20" height="11.5789474"></rect>
                <path d="M8.68419916,9.47368421 L8.94320778,8.58120342 C8.96705352,8.49902043 8.88538187,8.42105263 8.77544048,8.42105263 L8.59298922,8.42105263 C8.48304783,8.42105263 8.40134481,8.49902043 8.42522192,8.58120342 L8.68419916,9.47368421 Z" id="Shape" fill="#C8414B"></path>
                <rect id="Rectangle-path" fill="#F5F5F5" x="8.42105263" y="8.42105263" width="1" height="3.15789474"></rect>
                <rect id="Rectangle-path" fill="#FAB446" x="8.42105263" y="8.42105263" width="1.05263158" height="1"></rect>
                <g id="Group" transform="translate(3.157895, 8.421053)" fill="#C8414B">
                    <rect id="Rectangle-path" x="4.99525284" y="1.49252078" width="2.0095356" height="1"></rect>
                    <polygon id="Shape" points="7.00499484 2.84613112 5.79925697 2.49523404 5.79925697 2.14437673 7.00499484 2.49523404"></polygon>
                    <path d="M0.378111509,1.49259464 L0.723456332,0.249196676 C0.755250646,0.134699908 0.64635512,0.0260757156 0.499766596,0.0260757156 L0.256498257,0.0260757156 C0.109909734,0.0260757156 0.000972372374,0.134699908 0.0328085214,0.249196676 L0.378111509,1.49259464 Z" id="Shape"></path>
                </g>
                <path d="M4.63156165,8.42105263 C4.39903217,8.42105263 4.21052632,8.59240798 4.21052632,8.80384747 L4.21052632,11.2918838 C4.21052632,11.7569726 4.68799664,12.6315789 6.31578947,12.6315789 C7.9435823,12.6315789 8.42105263,11.7569292 8.42105263,11.2918838 L8.42105263,8.80384747 C8.42105263,8.59245136 8.23254678,8.42105263 8.0000173,8.42105263 L4.63156165,8.42105263 L4.63156165,8.42105263 Z" id="Shape" fill="#F5F5F5"></path>
                <g id="Group" transform="translate(4.210526, 8.421053)" fill="#C8414B">
                    <path d="M2.10822771,1.40534893 L0.0166272825,1.40534893 L0.0166272825,0.318440546 C0.0166272825,0.158783626 0.194930183,0.0293489279 0.414865736,0.0293489279 L2.10822771,0.0293489279 L2.10822771,1.40534893 Z" id="Shape"></path>
                    <path d="M2.10822771,1.40534893 L4.19982814,1.40534893 L4.19982814,2.05863548 C4.19982814,2.45776218 3.75411386,2.78134893 3.20425349,2.78134893 L3.10380236,2.78134893 C2.55398496,2.78134893 2.10822771,2.45779337 2.10822771,2.05863548 L2.10822771,1.40534893 L2.10822771,1.40534893 Z" id="Shape"></path>
                </g>
                <path d="M4.21052632,11.5789474 L5.26315789,11.5789474 L5.26315789,12.0787076 C5.26315789,12.3840371 5.03884501,12.6315789 4.76211893,12.6315789 L4.71156528,12.6315789 C4.43486083,12.6315789 4.21052632,12.3840609 4.21052632,12.0787076 C4.21052632,12.0787076 4.21052632,11.5789474 4.21052632,11.5789474 Z" id="Shape" fill="#FAB446"></path>
                <g id="Group" transform="translate(4.210526, 11.578947)" fill="#C8414B">
                    <path d="M1.20003509,1.42338517 L1.20003509,0.00211722488 L0.687614035,0.00211722488 L0.687614035,1.56933014 C0.878140351,1.54539474 1.05040351,1.49325359 1.20003509,1.42338517 Z" id="Shape"></path>
                    <path d="M0.51677193,1.56933014 L0.51677193,0.00211722488 L0.00435087719,0.00211722488 L0.00435087719,1.42338517 C0.153982456,1.49325359 0.326192982,1.54539474 0.51677193,1.56933014 Z" id="Shape"></path>
                </g>
                <rect id="Rectangle-path" fill="#FFB441" x="4.21052632" y="10.5263158" width="1.05263158" height="1"></rect>
                <g id="Group" transform="translate(4.210526, 8.421053)" fill="#FAB446">
                    <rect id="Rectangle-path" x="0.00631578947" y="0.0545454545" width="1.53736842" height="1"></rect>
                    <rect id="Rectangle-path" x="0.262631579" y="0.431339713" width="1.02489474" height="1.1472488"></rect>
                </g>
                <rect id="Rectangle-path" fill="#F5F5F5" x="3.15789474" y="8.42105263" width="1" height="3.15789474"></rect>
                <g id="Group" transform="translate(3.157895, 8.421053)" fill="#FAB446">
                    <rect id="Rectangle-path" x="0.0231578947" y="3.02067669" width="1.53736842" height="1"></rect>
                    <rect id="Rectangle-path" x="0.0231578947" y="0.0353383459" width="1.53736842" height="1"></rect>
                </g>
                <rect id="Rectangle-path" fill="#5064AA" x="3.15789474" y="12.6315789" width="1.05263158" height="1"></rect>
                <rect id="Rectangle-path" fill="#FAB446" x="8.42105263" y="11.5789474" width="1.05263158" height="1"></rect>
                <rect id="Rectangle-path" fill="#5064AA" x="8.42105263" y="12.6315789" width="1.05263158" height="1"></rect>
                <rect id="Rectangle-path" fill="#FAB446" x="4.21052632" y="8.42105263" width="3.15789474" height="1"></rect>
                <rect id="Rectangle-path" fill="#FFB441" x="5.26315789" y="7.36842105" width="1" height="1.05263158"></rect>
                <g id="Group" transform="translate(4.210526, 7.368421)" fill="#F5F5F5">
                    <path d="M1.09515152,1.17903509 C0.838277512,1.17903509 0.629314195,0.918640351 0.629314195,0.598552632 C0.629314195,0.278464912 0.838277512,0.0180701754 1.09515152,0.0180701754 C1.35202552,0.0180701754 1.56098884,0.278464912 1.56098884,0.598552632 C1.56098884,0.918640351 1.35202552,1.17903509 1.09515152,1.17903509 Z M1.09515152,0.40504386 C1.00947368,0.40504386 0.939872408,0.491798246 0.939872408,0.598552632 C0.939872408,0.705307018 1.00947368,0.792061404 1.09515152,0.792061404 C1.18082935,0.792061404 1.25043062,0.705307018 1.25043062,0.598552632 C1.25043062,0.491798246 1.18082935,0.40504386 1.09515152,0.40504386 Z" id="Shape"></path>
                    <path d="M1.71626794,1.17903509 C1.45939394,1.17903509 1.25043062,0.918640351 1.25043062,0.598552632 C1.25043062,0.278464912 1.45939394,0.0180701754 1.71626794,0.0180701754 C1.97314195,0.0180701754 2.18210526,0.278464912 2.18210526,0.598552632 C2.18210526,0.918640351 1.97317384,1.17903509 1.71626794,1.17903509 Z M1.71626794,0.40504386 C1.63059011,0.40504386 1.56098884,0.491798246 1.56098884,0.598552632 C1.56098884,0.705307018 1.63059011,0.792061404 1.71626794,0.792061404 C1.80194577,0.792061404 1.87154705,0.705307018 1.87154705,0.598552632 C1.87154705,0.491798246 1.80194577,0.40504386 1.71626794,0.40504386 Z" id="Shape"></path>
                    <path d="M2.33741627,1.56605263 C2.08054226,1.56605263 1.87157895,1.30565789 1.87157895,0.985570175 C1.87157895,0.665482456 2.08054226,0.405087719 2.33741627,0.405087719 C2.59429027,0.405087719 2.80328549,0.665482456 2.80328549,0.985570175 C2.80328549,1.30565789 2.59429027,1.56605263 2.33741627,1.56605263 Z M2.33741627,0.792061404 C2.25173844,0.792061404 2.18213716,0.878815789 2.18213716,0.985570175 C2.18213716,1.09232456 2.25173844,1.17907895 2.33741627,1.17907895 C2.4230941,1.17907895 2.49269537,1.09232456 2.49269537,0.985570175 C2.49269537,0.87877193 2.4230941,0.792061404 2.33741627,0.792061404 Z" id="Shape"></path>
                    <path d="M0.47400319,1.56605263 C0.217129187,1.56605263 0.00816586922,1.30565789 0.00816586922,0.985570175 C0.00816586922,0.665482456 0.217129187,0.405087719 0.47400319,0.405087719 C0.730877193,0.405087719 0.93984051,0.665482456 0.93984051,0.985570175 C0.93984051,1.30565789 0.730877193,1.56605263 0.47400319,1.56605263 Z M0.47400319,0.792061404 C0.388325359,0.792061404 0.318724083,0.878815789 0.318724083,0.985570175 C0.318724083,1.09232456 0.388325359,1.17907895 0.47400319,1.17907895 C0.559681021,1.17907895 0.629282297,1.09232456 0.629282297,0.985570175 C0.629282297,0.87877193 0.559681021,0.792061404 0.47400319,0.792061404 Z" id="Shape"></path>
                </g>
                <path d="M5.96492429,11.9298511 L5.96492429,12.1053029 C5.96492429,12.202056 5.88621748,12.2807548 5.7894917,12.2807548 C5.69276593,12.2807548 5.61405911,12.202056 5.61405911,12.1053029 L5.61405911,11.9298511 L5.96492429,11.9298511 L5.96492429,11.9298511 Z M6.31578947,11.5789474 L5.26315789,11.5789474 L5.26315789,12.1052632 C5.26315789,12.3954825 5.49927834,12.6315789 5.78945567,12.6315789 C6.07966903,12.6315789 6.31578947,12.3954427 6.31578947,12.1052632 L6.31578947,11.5789474 L6.31578947,11.5789474 Z" id="Shape" fill="#FAB446"></path>
                <path d="M5.53895137,9.47368421 L5.51368021,9.47368421 C5.375324,9.47368421 5.26315789,9.30865754 5.26315789,9.10509813 L5.26315789,8.78963871 C5.26315789,8.5860793 5.375324,8.42105263 5.51368021,8.42105263 L5.53895137,8.42105263 C5.67730758,8.42105263 5.78947368,8.5860793 5.78947368,8.78963871 L5.78947368,9.10509813 C5.78947368,9.3086973 5.67730758,9.47368421 5.53895137,9.47368421 Z" id="Shape" fill="#FFA0D2"></path>
                <circle id="Oval" fill="#5064AA" cx="5.78947368" cy="11.0526316" r="1"></circle>
                <rect id="Rectangle-path" fill="#FAB446" x="5.26315789" y="7.36842105" width="1" height="1.05263158"></rect>
                <path d="M4.60525302,8.42105263 L4.21052632,8.07016218 L4.44174308,7.8646145 C4.79917022,7.54688845 5.28398349,7.36842105 5.78947368,7.36842105 L5.78947368,7.36842105 C6.29496388,7.36842105 6.77977715,7.54692822 7.13720429,7.8646145 L7.36842105,8.07016218 L6.97369435,8.42105263 L4.60525302,8.42105263 Z" id="Shape" fill="#C8414B"></path>
                <g id="Group" transform="translate(5.263158, 8.421053)" fill="#FFD250">
                    <ellipse id="Oval" cx="1.05557895" cy="0.417631579" rx="1" ry="1"></ellipse>
                    <ellipse id="Oval" cx="0.235789474" cy="0.417631579" rx="1" ry="1"></ellipse>
                    <ellipse id="Oval" cx="1.87536842" cy="0.417631579" rx="1" ry="1"></ellipse>
                </g>
                <g id="Group" transform="translate(3.157895, 10.526316)" fill="#C8414B">
                    <rect id="Rectangle-path" x="0.0138947368" y="0.0119883041" width="1.53729474" height="1"></rect>
                    <polygon id="Shape" points="0.0139578947 1.30203216 0.936347368 0.91501462 0.936347368 0.528040936 0.0139578947 0.91501462"></polygon>
                </g>
            </g>
        </g>
    </g>
</svg>