<?xml version="1.0" encoding="UTF-8"?>
<svg width="250px" height="102px" viewBox="0 0 250 102" version="1.1" xmlns="http://www.w3.org/2000/svg" xmlns:xlink="http://www.w3.org/1999/xlink">
    <!-- Generator: Sketch 48.2 (47327) - http://www.bohemiancoding.com/sketch -->
    <title>Logo</title>
    <desc>Created with Sketch.</desc>
    <defs>
        <linearGradient x1="187.873264%" y1="45.996958%" x2="-22.7604167%" y2="45.996958%" id="linearGradient-1">
            <stop stop-color="#085078" offset="0%"></stop>
            <stop stop-color="#4290A0" offset="100%"></stop>
        </linearGradient>
        <linearGradient x1="1.8736318%" y1="46.7444041%" x2="80.5976971%" y2="50%" id="linearGradient-2">
            <stop stop-color="#085078" offset="0%"></stop>
            <stop stop-color="#4290A0" offset="100%"></stop>
        </linearGradient>
    </defs>
    <g id="Home_aliens" stroke="none" stroke-width="1" fill="none" fill-rule="evenodd" transform="translate(-120.000000, -213.000000)">
        <g id="Home" transform="translate(0.000000, 115.000000)">
            <g id="Logo" transform="translate(120.000000, 100.000000)">
                <polyline id="Line-Copy-3" stroke="url(#linearGradient-1)" stroke-width="3.84" stroke-linecap="round" stroke-linejoin="round" points="168.96 12.6707071 140.8 44.8213889 169.6 84.260202"></polyline>
                <polyline id="Line-Copy-4" stroke="url(#linearGradient-1)" stroke-width="3.84" stroke-linecap="round" stroke-linejoin="round" transform="translate(233.280000, 48.465455) scale(-1, 1) translate(-233.280000, -48.465455) " points="247.04 12.6707071 218.88 44.8213889 247.68 84.260202"></polyline>
                <path d="M174.72,97.5644444 L205.44,0.633535354 L174.72,97.5644444 Z" id="Line-Copy-5" stroke="url(#linearGradient-1)" stroke-width="3.84" stroke-linecap="round" stroke-linejoin="round"></path>
                <path d="M57.8304,29.9788929 C57.8304,30.967213 57.331205,31.4613657 56.3328,31.4613657 C55.2575946,31.4613657 54.72,30.967213 54.72,29.9788929 C54.72,26.5577849 53.5296119,23.6688926 51.1488,21.3121293 L49.9968,20.3998384 C47.8463892,18.6512721 45.3504142,17.777002 42.5088,17.777002 L16.128,17.777002 C13.2863858,17.777002 10.7520111,18.6512721 8.5248,20.3998384 L7.488,21.3121293 C5.1071881,23.6688926 3.9168,26.5577849 3.9168,29.9788929 C3.9168,33.0959025 4.70399213,35.5666656 6.2784,37.3912566 C7.85280787,39.2158475 9.90718733,40.6792995 12.4416,41.7816566 C14.9760127,42.8840136 17.8751837,43.701266 21.1392,44.2334384 C24.4032163,44.7656107 27.7439829,45.2597634 31.1616,45.7159111 C34.5792171,46.1720588 37.9199837,46.7042232 41.184,47.3124202 C44.4480163,47.9206172 47.3471873,48.8519048 49.8816,50.1063111 C52.4160127,51.3607174 54.4703921,53.0142281 56.0448,55.0668929 C57.6192079,57.1195577 58.4064,59.8564031 58.4064,63.2775111 C58.4064,65.4062005 58.003204,67.4018169 57.1968,69.2644202 C56.390396,71.1270235 55.2768071,72.7425225 53.856,74.1109657 C52.4351929,75.4794089 50.8032092,76.5627435 48.96,77.361002 C47.1167908,78.1592606 45.1584104,78.5583838 43.0848,78.5583838 L15.3216,78.5583838 C11.0975789,78.5583838 7.48801498,77.0759259 4.4928,74.1109657 L4.1472,73.6548202 C1.53598694,70.9179338 0.153600768,67.6489241 0,63.8476929 L0,63.2775111 C0,62.289191 0.499195008,61.7950384 1.4976,61.7950384 C2.57280538,61.7950384 3.1104,62.289191 3.1104,63.2775111 C3.1104,66.3945206 4.18558925,69.131366 6.336,71.4881293 L6.6816,71.9442747 C9.0624119,74.301038 11.9423831,75.479402 15.3216,75.479402 L43.0848,75.479402 C44.7744084,75.479402 46.3487927,75.1563022 47.808,74.5100929 C49.2672073,73.8638836 50.5535944,72.9896136 51.6672,71.8872566 C52.7808056,70.7848995 53.6639967,69.4925003 54.3168,68.0100202 C54.9696033,66.5275401 55.296,64.9500528 55.296,63.2775111 C55.296,59.6283292 54.3360096,56.8914839 52.416,55.0668929 C50.4959904,53.242302 48.1536138,51.9118911 45.3888,51.0756202 C42.6239862,50.2393494 39.7056154,49.6691732 36.6336,49.3650747 C33.5615846,49.0609763 30.9120111,48.6428471 28.6848,48.1106747 C24.7679804,47.654527 21.1200169,47.0463392 17.7408,46.2860929 C14.3615831,45.5258467 11.4048127,44.461518 8.8704,43.0930747 C6.33598733,41.7246315 4.3584071,39.9950973 2.9376,37.9044202 C1.5167929,35.8137431 0.8064,33.1719271 0.8064,29.9788929 C0.8064,25.8735633 2.30398502,22.2624479 5.2992,19.1454384 L5.6448,18.8033293 C8.64001498,16.0664429 12.13438,14.6980202 16.128,14.6980202 L42.5088,14.6980202 C46.50242,14.6980202 49.996785,16.0664429 52.992,18.8033293 L53.3376,19.1454384 C56.332815,22.1103987 57.8304,25.6835023 57.8304,29.8648566 L57.8304,29.9788929 Z M121.6896,29.9788929 C121.6896,30.967213 121.190405,31.4613657 120.192,31.4613657 C119.116795,31.4613657 118.5792,30.967213 118.5792,29.9788929 C118.5792,26.5577849 117.388812,23.6688926 115.008,21.3121293 L113.856,20.3998384 C111.705589,18.6512721 109.209614,17.777002 106.368,17.777002 L79.9872,17.777002 C77.1455858,17.777002 74.6112111,18.6512721 72.384,20.3998384 L71.3472,21.3121293 C68.9663881,23.6688926 67.776,26.5577849 67.776,29.9788929 C67.776,33.0959025 68.5631921,35.5666656 70.1376,37.3912566 C71.7120079,39.2158475 73.7663873,40.6792995 76.3008,41.7816566 C78.8352127,42.8840136 81.7343837,43.701266 84.9984,44.2334384 C88.2624163,44.7656107 91.6031829,45.2597634 95.0208,45.7159111 C98.4384171,46.1720588 101.779184,46.7042232 105.0432,47.3124202 C108.307216,47.9206172 111.206387,48.8519048 113.7408,50.1063111 C116.275213,51.3607174 118.329592,53.0142281 119.904,55.0668929 C121.478408,57.1195577 122.2656,59.8564031 122.2656,63.2775111 C122.2656,65.4062005 121.862404,67.4018169 121.056,69.2644202 C120.249596,71.1270235 119.136007,72.7425225 117.7152,74.1109657 C116.294393,75.4794089 114.662409,76.5627435 112.8192,77.361002 C110.975991,78.1592606 109.01761,78.5583838 106.944,78.5583838 L79.1808,78.5583838 C74.9567789,78.5583838 71.347215,77.0759259 68.352,74.1109657 L68.0064,73.6548202 C65.3951869,70.9179338 64.0128008,67.6489241 63.8592,63.8476929 L63.8592,63.2775111 C63.8592,62.289191 64.358395,61.7950384 65.3568,61.7950384 C66.4320054,61.7950384 66.9696,62.289191 66.9696,63.2775111 C66.9696,66.3945206 68.0447892,69.131366 70.1952,71.4881293 L70.5408,71.9442747 C72.9216119,74.301038 75.8015831,75.479402 79.1808,75.479402 L106.944,75.479402 C108.633608,75.479402 110.207993,75.1563022 111.6672,74.5100929 C113.126407,73.8638836 114.412794,72.9896136 115.5264,71.8872566 C116.640006,70.7848995 117.523197,69.4925003 118.176,68.0100202 C118.828803,66.5275401 119.1552,64.9500528 119.1552,63.2775111 C119.1552,59.6283292 118.19521,56.8914839 116.2752,55.0668929 C114.35519,53.242302 112.012814,51.9118911 109.248,51.0756202 C106.483186,50.2393494 103.564815,49.6691732 100.4928,49.3650747 C97.4207846,49.0609763 94.7712111,48.6428471 92.544,48.1106747 C88.6271804,47.654527 84.9792169,47.0463392 81.6,46.2860929 C78.2207831,45.5258467 75.2640127,44.461518 72.7296,43.0930747 C70.1951873,41.7246315 68.2176071,39.9950973 66.7968,37.9044202 C65.3759929,35.8137431 64.6656,33.1719271 64.6656,29.9788929 C64.6656,25.8735633 66.163185,22.2624479 69.1584,19.1454384 L69.504,18.8033293 C72.499215,16.0664429 75.99358,14.6980202 79.9872,14.6980202 L106.368,14.6980202 C110.36162,14.6980202 113.855985,16.0664429 116.8512,18.8033293 L117.1968,19.1454384 C120.192015,22.1103987 121.6896,25.6835023 121.6896,29.8648566 L121.6896,29.9788929 Z M130.8288,77.0759111 C130.8288,78.0642312 130.291205,78.5583838 129.216,78.5583838 C128.217595,78.5583838 127.7184,78.0642312 127.7184,77.0759111 L127.7184,16.2945293 C127.7184,15.3062092 128.217595,14.8120566 129.216,14.8120566 C130.291205,14.8120566 130.8288,15.3062092 130.8288,16.2945293 L130.8288,77.0759111 Z" id="Combined-Shape" fill="url(#linearGradient-2)" fill-rule="evenodd"></path>
            </g>
        </g>
    </g>
</svg>