<?xml version="1.0" encoding="UTF-8"?>
<svg width="25px" height="25px" viewBox="0 0 25 25" version="1.1" xmlns="http://www.w3.org/2000/svg" xmlns:xlink="http://www.w3.org/1999/xlink">
    <!-- Generator: Sketch 51.3 (57544) - http://www.bohemiancoding.com/sketch -->
    <title>tick-inside-circle</title>
    <desc>Created with Sketch.</desc>
    <defs></defs>
    <g id="Home" stroke="none" stroke-width="1" fill="none" fill-rule="evenodd">
        <g id="Home_SSK_2" transform="translate(-520.000000, -2073.000000)" fill="#40474C" fill-rule="nonzero">
            <g id="Panel_4" transform="translate(0.000000, 1809.000000)">
                <g id="Group-3" transform="translate(520.000000, 264.000000)">
                    <g id="tick-inside-circle">
                        <path d="M7.375,10.125 L5.625,11.875 L11.25,17.5 L23.75,5 L22,3.25 L11.25,14 L7.375,10.125 Z M22.5,12.5 C22.5,18 18,22.5 12.5,22.5 C7,22.5 2.5,18 2.5,12.5 C2.5,7 7,2.5 12.5,2.5 C13.5,2.5 14.375,2.625 15.25,2.875 L17.250049,0.875 C15.75,0.375 14.125,0 12.5,0 C5.625,0 0,5.625 0,12.5 C0,19.375 5.625,25 12.5,25 C19.375,25 25,19.375 25,12.5 L22.5,12.5 Z" id="Shape"></path>
                    </g>
                </g>
            </g>
        </g>
    </g>
</svg>