<?xml version="1.0" encoding="UTF-8"?>
<svg width="18px" height="17px" viewBox="0 0 18 17" version="1.1" xmlns="http://www.w3.org/2000/svg" xmlns:xlink="http://www.w3.org/1999/xlink">
    <!-- Generator: Sketch 53 (72520) - https://sketchapp.com -->
    <title>university copy</title>
    <desc>Created with Sketch.</desc>
    <g id="Contribute" stroke="none" stroke-width="1" fill="none" fill-rule="evenodd">
        <g id="4" transform="translate(-490.000000, -621.000000)" fill="#3E3E3E" fill-rule="nonzero">
            <g id="university-copy" transform="translate(490.000000, 621.000000)">
                <path d="M18,7.12903578 L18,5.48385687 L9,0 L0,5.48385687 L0,7.12903578 L1.58821875,7.12903578 L1.58821875,15.3548211 L0.529417969,15.3548211 L0.529417969,17 L17.470582,17 L17.470582,15.3548211 L16.4117461,15.3548211 L16.4117461,7.12903578 L18,7.12903578 Z M5.82352734,13.7096786 L3.70589062,13.7096786 L3.70589062,7.12903578 L5.82352734,7.12903578 L5.82352734,13.7096786 Z M10.0588359,13.7096786 L7.94119922,13.7096786 L7.94119922,7.12903578 L10.0588359,7.12903578 L10.0588359,13.7096786 Z M9,5.48385687 C8.12288672,5.48385687 7.41178125,4.74726449 7.41178125,3.83871438 C7.41178125,2.93016426 8.12288672,2.19357188 9,2.19357188 C9.87711328,2.19357188 10.5882187,2.93016426 10.5882187,3.83871438 C10.5882187,4.74726449 9.87711328,5.48385687 9,5.48385687 Z M14.2941094,13.7096786 L12.1764727,13.7096786 L12.1764727,7.12903578 L14.2941094,7.12903578 L14.2941094,13.7096786 Z" id="Shape"></path>
            </g>
        </g>
    </g>
</svg>