<?xml version="1.0" encoding="UTF-8" standalone="no"?>
<svg width="130px" height="130px" viewBox="0 0 130 130" version="1.1" xmlns="http://www.w3.org/2000/svg" xmlns:xlink="http://www.w3.org/1999/xlink">
    <!-- Generator: Sketch 46.2 (44496) - http://www.bohemiancoding.com/sketch -->
    <title>world+book</title>
    <desc>Created with Sketch.</desc>
    <defs></defs>
    <g id="Home-+-navigation" stroke="none" stroke-width="1" fill="none" fill-rule="evenodd">
        <g id="Home" transform="translate(-535.000000, -1033.000000)">
            <g id="Panel-2" transform="translate(0.000000, 655.000000)">
                <g id="world+book" transform="translate(535.000000, 378.000000)">
                    <circle id="Oval-2" fill="#50E3C2" cx="65" cy="65" r="65"></circle>
                    <g id="learning" transform="translate(19.000000, 27.000000)" fill-rule="nonzero">
                        <path d="M84.0000293,72.9734858 L30.0039551,72.9734858 C28.3472168,72.9734858 27.0041543,71.6128278 27.0041543,69.934 L27.0041543,38.0195708 C27.0041543,36.3407429 28.3470469,34.9800849 30.0039551,34.9800849 L84.0001992,34.9800849 C85.6569375,34.9800849 87,36.3407429 87,38.0195708 L87,69.934 C86.9998301,71.6126557 85.6569375,72.9734858 84.0000293,72.9734858 Z" id="Shape" fill="#959CB5"></path>
                        <path d="M45.1949707,34.9802571 L30.0037852,34.9802571 C28.3472168,34.9802571 27.0039844,36.3409151 27.0039844,38.0197429 L27.0039844,49.9517995 C35.4669434,48.8061816 42.4252441,42.9066108 45.1949707,34.9802571 Z" id="Shape" fill="#7F8499"></path>
                        <path d="M66.1883086,31.9407712 C59.0517598,31.9407712 57.0128672,34.1424788 57.0128672,34.1424788 C57.0128672,34.1424788 54.9739746,31.9407712 47.8374258,31.9407712 C41.5202402,31.9407712 34.177916,33.5264552 32.0996016,34.0064646 C31.7585684,34.0853184 31.5257754,34.3909198 31.5257754,34.7454175 L31.5257754,68.1415401 C31.5257754,68.628092 31.9617949,68.9906816 32.4306094,68.8847972 C34.8725566,68.3333373 41.8203223,66.8946863 47.8377656,66.8946863 C52.6939629,66.8946863 55.1899453,67.9142759 56.289,68.5657665 C56.7357246,68.8305637 57.2905195,68.8305637 57.7374141,68.5657665 C58.8364688,67.9141038 61.3322813,66.8946863 66.1886484,66.8946863 C72.2060918,66.8946863 79.1536875,68.3333373 81.5958047,68.8847972 C82.0642793,68.9906816 82.5006387,68.6279198 82.5006387,68.1415401 L82.5006387,34.7454175 C82.5006387,34.3909198 82.2678457,34.0853184 81.9268125,34.0064646 C79.8479883,33.5261108 72.5056641,31.9407712 66.1883086,31.9407712 Z" id="Shape" fill="#E4EAF8"></path>
                        <path d="M46.0435605,31.9838137 C40.1926406,32.2312217 33.9836953,33.5710472 32.0996016,34.0061203 C31.7585684,34.0849741 31.5254355,34.3905755 31.5254355,34.7450731 L31.5254355,48.8445755 C38.8594336,46.2046958 44.4530918,39.8435377 46.0435605,31.9838137 Z" id="Shape" fill="#D5DCED"></path>
                        <path d="M51.0039199,59.4591887 C50.9497148,59.4591887 50.8939805,59.4560896 50.838416,59.4502358 C49.1466738,59.2617099 47.1208652,59.258783 45.0950566,59.3879104 C44.2748438,59.4147689 43.5555645,58.8047712 43.504418,57.9661321 C43.4532715,57.1292146 44.0799434,56.4078231 44.9076328,56.3544505 C47.1047227,56.2149929 49.2989238,56.2223962 51.1665352,56.4286557 C51.9898066,56.5205943 52.5845332,57.2702217 52.493625,58.1057618 C52.4084941,58.8832807 51.7595625,59.4591887 51.0039199,59.4591887 Z" id="Shape" fill="#707487"></path>
                        <g id="Group" transform="translate(35.853516, 44.075472)" fill="#7F8499">
                            <path d="M1.64688281,16.2163302 C0.926244141,16.2163302 0.290566406,15.6894906 0.168902344,14.9458892 C0.032625,14.1177524 0.584871094,13.3355849 1.40219531,13.1976769 C1.89428906,13.1145189 2.40405469,13.0329104 2.92860352,12.9544009 C3.76801758,12.8416297 4.51193555,13.4070354 4.63207031,14.2351722 C4.75356445,15.0662358 4.186875,15.8379009 3.36802148,15.9611745 C2.86131445,16.0367571 2.36905078,16.1156108 1.89462891,16.1956698 C1.81085742,16.2101321 1.72895508,16.2163302 1.64688281,16.2163302 Z" id="Shape"></path>
                            <path d="M1.64688281,10.1373585 C0.926244141,10.1373585 0.290566406,9.61051887 0.168902344,8.86691745 C0.032625,8.03878066 0.584871094,7.25523585 1.40219531,7.11870519 C6.9871875,6.17779717 11.6568105,5.86754717 15.3128496,6.27438443 C16.1361211,6.36632311 16.7308477,7.11595047 16.6399395,7.95149057 C16.5492012,8.78410377 15.816668,9.37929481 14.9847305,9.29613679 C11.6202773,8.92356132 7.19092383,9.22640802 1.89445898,10.1168703 C1.81085742,10.1313325 1.72742578,10.1373585 1.64688281,10.1373585 Z" id="Shape"></path>
                            <path d="M15.1504043,3.22577358 C15.0977285,3.22577358 15.0435234,3.22267453 14.9893184,3.21682075 C14.5483711,3.16930189 14.0768379,3.13073585 13.5713203,3.10404953 C12.7438008,3.05962972 12.1079531,2.34564151 12.1506035,1.50717453 C12.1944434,0.668707547 12.8873848,0.0142900943 13.7266289,0.0676627358 C14.2905996,0.0972759434 14.8178672,0.141867925 15.3086016,0.195240566 C16.131873,0.284252358 16.727959,1.03370755 16.6401094,1.86787028 C16.5580371,2.64693868 15.9075762,3.22577358 15.1504043,3.22577358 Z" id="Shape"></path>
                        </g>
                        <path d="M37.5003984,48.1338585 C36.7797598,48.1338585 36.144082,47.6070189 36.022418,46.8620401 C35.8861406,46.0339033 36.439916,45.2517358 37.2572402,45.1152052 C39.4149082,44.7531321 41.4713027,44.4829976 43.3710293,44.3137547 C44.2162207,44.2424764 44.9236055,44.8583278 44.9968418,45.6940401 C45.0700781,46.5309575 44.4593789,47.2687052 43.6345781,47.3413608 C41.8109766,47.5045778 39.8291777,47.7643821 37.7464453,48.1131981 C37.664373,48.1278325 37.5809414,48.1338585 37.5003984,48.1338585 Z" id="Shape" fill="#707487"></path>
                        <path d="M37.5003984,42.0548868 C36.7797598,42.0548868 36.144082,41.5280472 36.022418,40.7846179 C35.8861406,39.9564811 36.4383867,39.1729363 37.2557109,39.0364057 C42.8407031,38.0970472 47.5103262,37.7852476 51.1663652,38.1920849 C51.9896367,38.2840236 52.5843633,39.0336509 52.4934551,39.869191 C52.4027168,40.7018042 51.6701836,41.29975 50.8382461,41.2138373 C47.473793,40.8412618 43.0444395,41.145658 37.7479746,42.0345708 C37.664373,42.0488608 37.5809414,42.0548868 37.5003984,42.0548868 Z" id="Shape" fill="#7F8499"></path>
                        <path d="M63.0000645,59.4591887 C62.244252,59.4591887 61.5954902,58.8834528 61.5105293,58.1042123 C61.4211504,57.2700495 62.0145176,56.5205943 62.8389785,56.4286557 C64.7081191,56.2223962 66.9036797,56.2165425 69.0963516,56.3544505 C69.9238711,56.4078231 70.5524121,57.1292146 70.4995664,57.9661321 C70.4468906,58.8045991 69.726252,59.4176958 68.9089277,59.3879104 C66.8890664,59.2572335 64.8618984,59.2617099 63.164209,59.4502358 C63.109834,59.4560896 63.0542695,59.4591887 63.0000645,59.4591887 Z" id="Shape" fill="#707487"></path>
                        <g id="Group" transform="translate(61.341797, 44.075472)" fill="#7F8499">
                            <path d="M15.1617891,16.2163302 C15.0797168,16.2163302 14.9978145,16.2104764 14.9143828,16.1956698 C14.439791,16.1154387 13.9476973,16.0369292 13.4409902,15.9611745 C12.6223066,15.8380731 12.0552773,15.0662358 12.1769414,14.2351722 C12.2970762,13.405658 13.058666,12.8221745 13.8804082,12.9544009 C14.4047871,13.0330825 14.9145527,13.114691 15.4068164,13.1976769 C16.2241406,13.3357571 16.7763867,14.1179245 16.6401094,14.9458892 C16.5181055,15.6893184 15.8822578,16.2163302 15.1617891,16.2163302 Z" id="Shape"></path>
                            <path d="M15.1617891,10.1373585 C15.0812461,10.1373585 14.9978145,10.1315047 14.9143828,10.1166981 C9.62369531,9.22606368 5.20470703,8.92201179 1.82258203,9.29596462 C1.01392383,9.3805 0.259640625,8.7839316 0.168902344,7.94994104 C0.0795234375,7.1157783 0.672890625,6.36632311 1.49735156,6.27438443 C5.1562793,5.86926887 9.82743164,6.1793467 15.4066465,7.11870519 C16.2239707,7.25523585 16.7762168,8.03895283 16.6399395,8.86691745 C16.5181055,9.6103467 15.8822578,10.1373585 15.1617891,10.1373585 Z" id="Shape"></path>
                            <path d="M1.65826758,3.22577358 C0.900925781,3.22577358 0.250634766,2.64693868 0.168732422,1.86787028 C0.0808828125,1.03233019 0.67696875,0.284252358 1.50024023,0.195240566 C1.99386328,0.141867925 2.51824219,0.0972759434 3.08221289,0.0676627358 C3.91126172,0.012740566 4.61439844,0.668707547 4.65823828,1.50717453 C4.70071875,2.34564151 4.06504102,3.05962972 3.23752148,3.10404953 C2.73217383,3.13090802 2.2604707,3.16947406 1.81952344,3.21682075 C1.76531836,3.22267453 1.71094336,3.22577358 1.65826758,3.22577358 Z" id="Shape"></path>
                        </g>
                        <path d="M76.5035859,48.1338585 C76.423043,48.1338585 76.3396113,48.1280047 76.2573691,48.1131981 C74.1746367,47.7643821 72.1941973,47.50475 70.3705957,47.3413608 C69.5459648,47.2671557 68.9352656,46.5309575 69.008332,45.6940401 C69.0815684,44.8585 69.793541,44.2397217 70.6341445,44.3137547 C72.5325117,44.4829976 74.5889062,44.7531321 76.7465742,45.1152052 C77.5638984,45.2517358 78.1176738,46.0339033 77.9813965,46.8618679 C77.8599023,47.6068467 77.2240547,48.1338585 76.5035859,48.1338585 Z" id="Shape" fill="#707487"></path>
                        <path d="M76.5035859,42.0548868 C76.423043,42.0548868 76.3396113,42.049033 76.2561797,42.0342264 C70.9654922,41.1451415 66.5465039,40.8410896 63.1643789,41.2134929 C62.3557207,41.3011274 61.6014375,40.7014599 61.5106992,39.8674693 C61.4213203,39.0333066 62.0146875,38.2838514 62.8391484,38.1919127 C66.4980762,37.7867972 71.1692285,38.096875 76.7484434,39.0362335 C77.5657676,39.1727642 78.1180137,39.9564811 77.9817363,40.7844458 C77.8599023,41.527875 77.2240547,42.0548868 76.5035859,42.0548868 Z" id="Shape" fill="#7F8499"></path>
                        <path d="M51.6147891,17.2805118 C50.8268613,17.0298325 49.9816699,17.4630118 49.7267871,18.2615354 L49.5928887,18.6828349 C45.9827285,7.74282075 35.8066172,0.0261698113 24.0045234,0.0261698113 C14.017875,0.0261698113 4.88661328,5.575375 0.177568359,14.5068561 C-0.213591797,15.2473585 0.0633808594,16.1689835 0.792685547,16.5637689 C1.52657812,16.9585542 2.43464062,16.679467 2.82274219,15.9405142 C7.0104668,7.99900943 15.1266152,3.06582783 24.0045234,3.06582783 C34.693459,3.06582783 43.893709,10.1797123 46.9361602,20.1955189 L46.0311562,19.3687594 C45.4175684,18.8078302 44.4697441,18.8553491 43.9130801,19.4786038 C43.3579453,20.1018585 43.406373,21.0637712 44.0214902,21.6247005 L48.3337676,25.5649788 C48.613459,25.8203066 48.972334,25.9566651 49.3385156,25.9566651 C49.4688457,25.9566651 49.5993457,25.9387594 49.7281465,25.904842 C50.2188809,25.7712382 50.6098711,25.3941863 50.766709,24.903158 L52.5830039,19.1936627 C52.8361875,18.3951392 52.4027168,17.5387665 51.6147891,17.2805118 Z" id="Shape" fill="#E4EAF8"></path>
                        <ellipse id="Oval" fill="#00C3FF" cx="24.0036738" cy="27.382059" rx="17.9988047" ry="18.2369151"></ellipse>
                        <path d="M31.5038555,41.0590566 C20.7352266,41.0590566 12.0053203,32.2138325 12.0053203,21.3025708 C12.0053203,17.958 12.8323301,14.8115967 14.2800645,12.0503373 C9.30713086,15.295566 6.00571875,20.9427358 6.00571875,27.3813703 C6.00571875,37.4533042 14.0639238,45.6181132 24.0045234,45.6181132 C28.9433027,45.6181132 33.4147969,43.5997665 36.6669316,40.3362877 C35.0198789,40.7940873 33.2941523,41.0590566 31.5038555,41.0590566 Z" id="Shape" fill="#00AAF0"></path>
                        <path d="M24.0043535,7.62488443 C13.2530566,7.62488443 4.50581836,16.4880142 4.50581836,27.3813703 C4.50581836,38.2747264 13.2532266,47.1378561 24.0043535,47.1378561 C34.7554805,47.1378561 43.5028887,38.2747264 43.5028887,27.3813703 C43.5028887,16.4880142 34.7554805,7.62488443 24.0043535,7.62488443 Z M37.0993828,37.5099481 C36.2910645,37.1785212 35.4776484,36.8680991 34.6545469,36.5998585 C35.3824922,34.280559 35.8351641,31.6795896 35.9583574,28.9011132 L40.4271328,28.9011132 C40.1387754,32.1229269 38.9387871,35.0746061 37.0993828,37.5099481 Z M7.5814043,28.9012854 L12.0501797,28.9012854 C12.173373,31.679934 12.6262148,34.2809033 13.3541602,36.600375 C12.5310586,36.8686156 11.7176426,37.1788656 10.9096641,37.510809 C9.07008984,35.0751226 7.86976172,32.1232712 7.5814043,28.9012854 Z M10.9084746,17.2538255 C11.7171328,17.5866297 12.5305488,17.8984292 13.3528008,18.167875 C12.6257051,20.4857972 12.173373,23.085217 12.0503496,25.8614552 L7.5814043,25.8614552 C7.8695918,22.6403302 9.06941016,19.6889953 10.9084746,17.2538255 Z M22.5044531,16.7820802 C20.803875,16.7001274 19.1077148,16.4825047 17.4312656,16.1224976 C18.7592051,13.4571368 20.5311504,11.5732547 22.5044531,10.9267571 L22.5044531,16.7820802 Z M22.5044531,19.8349953 L22.5044531,25.8616274 L15.0479414,25.8616274 C15.174873,23.3820377 15.6124219,21.0472429 16.2790254,18.9777618 C18.3247148,19.4543278 20.4028594,19.7430566 22.5044531,19.8349953 Z M22.5044531,28.9012854 L22.5044531,34.9432406 C20.4162832,35.0348349 18.33525,35.3204646 16.2822539,35.795309 C15.6137812,33.7234175 15.174873,31.3851792 15.0477715,28.9014575 L22.5044531,28.9014575 L22.5044531,28.9012854 Z M22.5044531,37.9816934 L22.5044531,43.8361557 C20.5311504,43.1898302 18.7590352,41.3057759 17.4312656,38.6404151 C19.1077148,38.2802358 20.803875,38.0633019 22.5044531,37.9816934 Z M25.5042539,34.9413467 L25.5042539,28.9011132 L32.9607656,28.9011132 C32.8334941,31.3853514 32.3945859,33.7237618 31.7259434,35.7961698 C29.6726074,35.3214976 27.5919141,35.0331132 25.5042539,34.9413467 Z M30.576252,38.6421368 C29.2484824,41.3066368 27.476877,43.1898302 25.5042539,43.8358113 L25.5042539,37.979283 C27.2043223,38.061408 28.8998027,38.2819575 30.576252,38.6421368 Z M25.5042539,25.8617995 L25.5042539,19.8353396 C27.6056777,19.7434009 29.6836523,19.4545 31.7296816,18.9777618 C32.3961152,21.0472429 32.833834,23.3820377 32.9607656,25.8617995 L25.5042539,25.8617995 L25.5042539,25.8617995 Z M25.5042539,16.7825967 L25.5042539,10.9267571 C27.4773867,11.5730825 29.249332,13.4567925 30.5771016,16.121809 C28.9004824,16.4819882 27.2044922,16.700816 25.5042539,16.7825967 Z M32.237918,12.9165236 C33.1889707,13.4746981 34.0774922,14.1260165 34.8968555,14.8584269 C34.4523398,15.0225047 34.0066348,15.1803844 33.5577012,15.3238019 C33.1585547,14.4603703 32.7181172,13.6561651 32.237918,12.9165236 Z M14.4508359,15.3234575 C14.0017324,15.1800401 13.5560273,15.0225047 13.1115117,14.8584269 C13.9310449,14.1258443 14.8193965,13.4745259 15.7706191,12.9163514 C15.2904199,13.6561651 14.8501523,14.4603703 14.4508359,15.3234575 Z M14.4513457,39.4397995 C14.8504922,40.3028868 15.2907598,41.1067476 15.7706191,41.8463892 C14.8195664,41.2882146 13.9312148,40.6370684 13.1120215,39.904658 C13.5563672,39.7407524 14.0022422,39.583217 14.4513457,39.4397995 Z M33.558041,39.4385943 C34.0068047,39.5820118 34.4525098,39.7402358 34.8970254,39.9043137 C34.0776621,40.6368962 33.1894805,41.2882146 32.2380879,41.8463892 C32.7182871,41.1065755 33.1587246,40.3020259 33.558041,39.4385943 Z M35.9581875,25.8617995 C35.8351641,23.0853892 35.383002,20.4863137 34.6559062,18.1683915 C35.4779883,17.8987736 36.2908945,17.5864575 37.0995527,17.2534811 C38.9387871,19.6888231 40.1387754,22.6403302 40.4271328,25.8617995 L35.9581875,25.8617995 L35.9581875,25.8617995 Z" id="Shape" fill="#E4EAF8"></path>
                        <path d="M33.6202324,40.9378491 C33.1757168,41.2630778 32.7148887,41.566441 32.237918,41.846217 C32.4142969,41.5741887 32.5796309,41.2844269 32.7454746,40.9953538 C32.3327344,41.0216958 31.9230527,41.0588844 31.5036855,41.0588844 C30.7189863,41.0588844 29.9494102,40.9984528 29.1891797,40.907375 C28.105248,42.3616934 26.8541133,43.3938514 25.504084,43.8359835 L25.504084,40.0961108 C24.462293,39.7548703 23.4612832,39.3242736 22.5042832,38.8184387 L22.5042832,43.8359835 C20.5309805,43.189658 18.7588652,41.3056038 17.4310957,38.6402429 C18.698543,38.3680425 19.9787344,38.2032759 21.2619844,38.0913656 C20.0672637,37.341566 18.9547852,36.473658 17.950207,35.4883302 C17.3937129,35.5887052 16.8346699,35.6672146 16.2819141,35.7951368 C15.9500566,34.7667665 15.6758027,33.6726274 15.4671387,32.5278703 C13.7527969,30.0186675 12.6100723,27.0866156 12.195293,23.9185189 C12.1297031,24.5558915 12.0790664,25.2029057 12.0500098,25.8616274 L7.5814043,25.8616274 C7.8695918,22.6403302 9.06941016,19.6889953 10.9084746,17.2538255 C11.3793281,17.4475165 11.8566387,17.6105613 12.3310605,17.7860024 C12.8836465,14.6752382 14.1551719,11.8258278 15.9643301,9.40374292 C9.21707227,12.5145071 4.50530859,19.3942406 4.50530859,27.3817146 C4.50530859,38.2752429 13.2527168,47.1382005 24.0038437,47.1382005 C30.3351328,47.1382005 35.9542793,44.0508514 39.5185605,39.2989646 C37.6842539,40.1393255 35.704834,40.7097241 33.6202324,40.9378491 Z M7.5814043,28.9012854 L12.0501797,28.9012854 C12.173373,31.679934 12.6262148,34.2809033 13.3541602,36.600375 C12.5310586,36.8686156 11.7176426,37.1788656 10.9096641,37.510809 C9.07008984,35.0751226 7.86976172,32.1232712 7.5814043,28.9012854 Z M13.1120215,39.904658 C13.5563672,39.7407524 14.0024121,39.583217 14.4511758,39.4397995 C14.8503223,40.3028868 15.2905898,41.1067476 15.7704492,41.8463892 C14.8195664,41.2883868 13.9312148,40.6370684 13.1120215,39.904658 Z" id="Shape" fill="#D5DCED"></path>
                    </g>
                </g>
            </g>
        </g>
    </g>
</svg>