<?xml version="1.0" encoding="UTF-8" standalone="no"?>
<svg width="130px" height="130px" viewBox="0 0 130 130" version="1.1" xmlns="http://www.w3.org/2000/svg" xmlns:xlink="http://www.w3.org/1999/xlink">
    <!-- Generator: Sketch 46.2 (44496) - http://www.bohemiancoding.com/sketch -->
    <title>wrench</title>
    <desc>Created with Sketch.</desc>
    <defs></defs>
    <g id="Home-+-navigation" stroke="none" stroke-width="1" fill="none" fill-rule="evenodd">
        <g id="Home" transform="translate(-815.000000, -1033.000000)" fill-rule="nonzero">
            <g id="Panel-2" transform="translate(0.000000, 655.000000)">
                <g id="wrench" transform="translate(815.000000, 378.000000)">
                    <circle id="Oval" fill="#50E3C2" cx="65" cy="65" r="65"></circle>
                    <path d="M97.4488189,67.6614173 L97.4488189,62.1338583 L92.7401575,61.1102362 C92.6377953,60.1889764 92.4330709,59.2677165 92.2283465,58.3464567 C89.5669291,58.5511811 86.9055118,58.1417323 84.4488189,57.2204724 C85.3700787,59.6771654 85.984252,62.2362205 85.984252,65 C85.984252,76.5669291 76.5669291,85.984252 65,85.984252 C53.4330709,85.984252 44.015748,76.5669291 44.015748,65 C44.015748,53.4330709 53.4330709,44.015748 65,44.015748 C67.7637795,44.015748 70.4251969,44.5275591 72.7795276,45.5511811 C71.8582677,42.992126 71.4488189,40.3307087 71.6535433,37.7716535 C70.6299213,37.5669291 69.6062992,37.3622047 68.5826772,37.1574803 L67.5590551,32.4488189 L61.9291339,32.4488189 L60.9055118,37.1574803 C59.7795276,37.3622047 58.5511811,37.5669291 57.5275591,37.8740157 L54.8661417,33.8818898 L49.7480315,36.0314961 L50.6692913,40.8425197 C49.7480315,41.3543307 48.8267717,41.9685039 48.007874,42.6850394 L44.5275591,40.023622 L40.2283465,43.6062992 L42.5826772,47.9055118 C41.8661417,48.8267717 41.1496063,49.8503937 40.6377953,50.8740157 L36.5433071,49.7480315 L33.984252,54.6614173 L37.7716535,57.7322835 C37.4645669,58.8582677 37.2598425,59.984252 37.0551181,61.2125984 L32.7559055,61.7244094 L32.2440945,67.2519685 L36.9527559,68.6850394 C37.0551181,69.9133858 37.3622047,71.0393701 37.6692913,72.1653543 L33.8818898,74.3149606 L35.519685,79.6377953 L40.4330709,79.1259843 C41.0472441,80.1496063 41.6614173,81.1732283 42.3779528,82.0944882 L39.8188976,85.4724409 L43.4015748,89.7716535 L47.7007874,87.4173228 C48.6220472,88.1338583 49.6456693,88.8503937 50.6692913,89.3622047 L49.5433071,93.4566929 L54.4566929,96.015748 L57.5275591,92.2283465 C58.6535433,92.5354331 59.7795276,92.7401575 61.007874,92.9448819 L61.519685,97.2440945 L67.0472441,97.7559055 L68.480315,93.0472441 C69.7086614,92.9448819 70.8346457,92.6377953 71.9606299,92.3307087 L74.1102362,96.1181102 L79.4330709,94.480315 L78.9212598,89.5669291 C80.0472441,88.9527559 81.0708661,88.2362205 82.0944882,87.4173228 L86.0866142,90.0787402 L89.976378,86.1889764 L87.3149606,82.0944882 C88.0314961,81.1732283 88.6456693,80.1496063 89.2598425,79.2283465 L93.9685039,80.1496063 L96.1181102,75.0314961 L92.1259843,72.1653543 C92.4330709,71.0393701 92.6377953,69.9133858 92.7401575,68.6850394 L97.4488189,67.6614173 Z" id="Shape" fill="#FFFFFF"></path>
                    <g id="Group" transform="translate(19.448819, 19.448819)" fill="#324A5E">
                        <path d="M38.1811024,72.7795276 C38.488189,72.8818898 38.6929134,72.8818898 39,72.984252 C38.6929134,77.488189 36.7480315,81.8897638 33.3700787,85.2677165 C28.1496063,90.488189 20.6771654,92.1259843 14.1259843,90.1811024 L24.8740157,79.4330709 L21.0866142,69.9133858 L11.5669291,66.1259843 L0.818897638,76.976378 C-1.12598425,70.4251969 0.511811024,62.9527559 5.73228346,57.7322835 C9.21259843,54.2519685 13.511811,52.4094488 18.015748,52.1023622 C18.015748,52.3070866 18.1181102,52.511811 18.2204724,52.8188976 L14.4330709,54.9685039 L16.0708661,60.2913386 L20.984252,59.7795276 C21.5984252,60.8031496 22.2125984,61.8267717 22.9291339,62.7480315 L20.3700787,66.023622 L23.9527559,70.3228346 L28.2519685,67.9685039 C29.1732283,68.6850394 30.1968504,69.4015748 31.2204724,69.9133858 L30.0944882,74.007874 L35.007874,76.5669291 L38.1811024,72.7795276 Z" id="Shape"></path>
                        <path d="M85.3700787,33.3700787 C79.5354331,39.2047244 70.9370079,40.5354331 63.7716535,37.4645669 L37.3622047,63.7716535 C37.5669291,64.2834646 37.7716535,64.7952756 37.976378,65.3070866 C32.4488189,63.1574803 27.9448819,58.7559055 25.7952756,53.1259843 C26.3070866,53.3307087 26.8188976,53.4330709 27.3307087,53.7401575 L53.7401575,27.3307087 C50.6692913,20.1653543 52,11.5669291 57.8346457,5.73228346 C63.0551181,0.511811024 70.5275591,-1.12598425 77.0787402,0.818897638 L66.2283465,11.5669291 L70.015748,21.0866142 L79.5354331,24.8740157 L90.2834646,14.1259843 C92.2283465,20.6771654 90.5905512,28.1496063 85.3700787,33.3700787 Z" id="Shape"></path>
                    </g>
                </g>
            </g>
        </g>
    </g>
</svg>