<?xml version="1.0" encoding="UTF-8"?>
<svg width="87px" height="87px" viewBox="0 0 87 87" version="1.1" xmlns="http://www.w3.org/2000/svg" xmlns:xlink="http://www.w3.org/1999/xlink">
    <!-- Generator: Sketch 51.3 (57544) - http://www.bohemiancoding.com/sketch -->
    <title>Add Scenario</title>
    <desc>Created with Sketch.</desc>
    <defs></defs>
    <g id="Home" stroke="none" stroke-width="1" fill="none" fill-rule="evenodd">
        <g id="New-Home" transform="translate(-218.000000, -2037.000000)">
            <g id="Panel_4" transform="translate(0.000000, 1809.000000)">
                <g id="Group-4" transform="translate(220.000000, 220.000000)">
                    <g id="Add-Scenario" transform="translate(0.000000, 10.000000)">
                        <rect id="Rectangle" stroke="#3E6477" stroke-width="3" fill="#C0D7DE" x="0" y="0" width="73.9454545" height="73.9454545" rx="4.5"></rect>
                        <path d="M4.50909091,64.8909091 L69.4363636,64.8909091 C71.0932179,64.8909091 72.4363636,66.2340548 72.4363636,67.8909091 L72.4363636,72.4363636 L1.50909091,72.4363636 L1.50909091,67.8909091 C1.50909091,66.2340548 2.85223666,64.8909091 4.50909091,64.8909091 Z" id="Rectangle-Copy" fill="#FFFFFF" transform="translate(36.972727, 68.663636) scale(1, -1) translate(-36.972727, -68.663636) "></path>
                        <circle id="Oval" stroke="#3E6477" stroke-width="3" fill="#63B9D8" cx="64.8909091" cy="64.8909091" r="18.1090909"></circle>
                        <path d="M64.8909091,55.8363636 L64.8909091,73.9454545" id="Line-8" stroke="#3E6477" stroke-width="3" stroke-linecap="square"></path>
                        <path d="M73.9454545,64.8909091 L55.8363636,64.8909091" id="Line-8-Copy" stroke="#3E6477" stroke-width="3" stroke-linecap="square"></path>
                        <path d="M4.50909091,1.50909091 L69.4363636,1.50909091 C71.0932179,1.50909091 72.4363636,2.85223666 72.4363636,4.50909091 L72.4363636,9.05454545 L1.50909091,9.05454545 L1.50909091,4.50909091 C1.50909091,2.85223666 2.85223666,1.50909091 4.50909091,1.50909091 Z" id="Rectangle" fill="#FFFFFF"></path>
                        <path d="M12.8272727,27.9181818 L38.4818182,27.9181818" id="Line-9" stroke="#3E6477" stroke-width="3" stroke-linecap="square"></path>
                        <path d="M12.8272727,36.9727273 L42.2545455,36.9727273" id="Line-9-Copy-2" stroke="#3E6477" stroke-width="3" stroke-linecap="square"></path>
                        <path d="M12.8272727,46.0272727 L48.2909091,46.0272727" id="Line-9-Copy-3" stroke="#3E6477" stroke-width="3" stroke-linecap="square"></path>
                        <path d="M45.2727273,27.9181818 L57.3454545,27.9181818" id="Line-9-Copy" stroke="#3E6477" stroke-width="3" stroke-linecap="square"></path>
                    </g>
                </g>
            </g>
        </g>
    </g>
</svg>