<?xml version="1.0" encoding="UTF-8"?>
<svg width="50px" height="50px" viewBox="0 0 50 50" version="1.1" xmlns="http://www.w3.org/2000/svg" xmlns:xlink="http://www.w3.org/1999/xlink">
    <!-- Generator: Sketch 51.3 (57544) - http://www.bohemiancoding.com/sketch -->
    <title>by</title>
    <desc>Created with Sketch.</desc>
    <defs></defs>
    <g id="Symbols" stroke="none" stroke-width="1" fill="none" fill-rule="evenodd">
        <g id="Footer" transform="translate(-310.000000, -116.000000)" fill="#FFFFFF" fill-rule="nonzero">
            <g id="Group" transform="translate(120.000000, 40.000000)">
                <g id="by" transform="translate(190.000000, 76.000000)">
                    <path d="M24.9561538,0.384615385 C31.87,0.384615385 37.7023077,2.75769231 42.45,7.50538462 C47.2253846,12.2823077 49.6153846,18.1138462 49.6153846,25 C49.6153846,31.9161538 47.27,37.6738462 42.5807692,42.2738462 C37.5992308,47.1684615 31.7246154,49.6153846 24.9561538,49.6153846 C18.3030769,49.6153846 12.5307692,47.1969231 7.63769231,42.3615385 C2.80307692,37.5261538 0.384615385,31.74 0.384615385,25 C0.384615385,18.2607692 2.80307692,12.4292308 7.63769231,7.50615385 C12.3853846,2.75769231 18.1569231,0.384615385 24.9561538,0.384615385 Z M25.0438462,4.82461538 C19.4469231,4.82461538 14.7146154,6.78846154 10.8461538,10.7146154 C6.83076923,14.8176923 4.82384615,19.58 4.82384615,25.0007692 C4.82384615,30.4515385 6.81615385,35.17 10.8007692,39.1530769 C14.7861538,43.1392308 19.5330769,45.1307692 25.0423077,45.1307692 C30.5215385,45.1307692 35.2992308,43.1253846 39.3723077,39.1092308 C43.2407692,35.3876923 45.1746154,30.6846154 45.1746154,24.9992308 C45.1746154,19.4023077 43.2107692,14.6415385 39.2853846,10.7138462 C35.3592308,6.78769231 30.6115385,4.82461538 25.0438462,4.82461538 Z M31.6376923,18.89 L31.6376923,28.9553846 L28.8253846,28.9553846 L28.8253846,40.9107692 L21.1761538,40.9107692 L21.1761538,28.9561538 L18.3638462,28.9561538 L18.3638462,18.89 C18.3638462,18.45 18.5176923,18.0769231 18.8246154,17.7692308 C19.1330769,17.4623077 19.5069231,17.3076923 19.9453846,17.3076923 L30.0561538,17.3076923 C30.4661538,17.3076923 30.8330769,17.4615385 31.1546154,17.7692308 C31.4753846,18.0769231 31.6376923,18.4507692 31.6376923,18.89 Z M21.5707692,12.5607692 C21.5707692,10.2469231 22.7130769,9.08846154 25,9.08846154 C27.2869231,9.08846154 28.4284615,10.2453846 28.4284615,12.5607692 C28.4284615,14.8461538 27.2853846,15.9892308 25,15.9892308 C22.7146154,15.9892308 21.5707692,14.8461538 21.5707692,12.5607692 Z" id="Shape"></path>
                </g>
            </g>
        </g>
    </g>
</svg>