<?xml version="1.0" encoding="UTF-8"?>
<svg width="50px" height="50px" viewBox="0 0 50 50" version="1.1" xmlns="http://www.w3.org/2000/svg" xmlns:xlink="http://www.w3.org/1999/xlink">
    <!-- Generator: Sketch 51.3 (57544) - http://www.bohemiancoding.com/sketch -->
    <title>creative-commons-license-symbol</title>
    <desc>Created with Sketch.</desc>
    <defs></defs>
    <g id="Symbols" stroke="none" stroke-width="1" fill="none" fill-rule="evenodd">
        <g id="Footer" transform="translate(-250.000000, -116.000000)" fill="#FFFFFF" fill-rule="nonzero">
            <g id="Group" transform="translate(120.000000, 40.000000)">
                <g id="creative-commons-license-symbol" transform="translate(130.000000, 76.000000)">
                    <path d="M25.2051186,25 C25.2051186,20.1261049 28.4494684,17.2466625 32.5261499,17.2466625 C35.3266669,17.2466625 37.7388013,18.2712651 39.1537651,20.8461399 L35.8269959,22.5906612 C35.049998,20.9289079 33.7186161,20.5688904 33.0529833,20.5688904 C30.5860963,20.5688904 29.6975009,22.4798776 29.6975009,25 C29.6975009,27.5207036 30.7520977,29.4314583 33.0529833,29.4314583 C34.3849464,29.4314583 35.438497,28.932293 36.1308667,27.2705397 L39.2380445,28.8497575 C37.9072438,31.2027165 35.493947,32.7533375 32.665763,32.7533375 C28.2553352,32.7539187 25.2051186,29.9577093 25.2051186,25 Z M18.2227161,32.7539187 C21.0506676,32.7539187 23.4644294,31.2032977 24.7949976,28.8497575 L21.6894473,27.2710047 C20.9955663,28.932293 19.941667,29.4314583 18.6110988,29.4314583 C16.3088183,29.4314583 15.2555002,27.5210524 15.2555002,25.0005812 C15.2555002,22.4810401 16.1433982,20.5693554 18.6110988,20.5693554 C19.2760342,20.5693554 20.6070674,20.9293729 21.3845303,22.5911262 L24.710602,20.8466049 C23.2972656,18.2712651 20.8838525,17.2472438 18.0832192,17.2472438 C14.006654,17.2472438 10.762188,20.1268024 10.762188,25.0005812 C10.7627692,29.9577093 13.8115908,32.7539187 18.2227161,32.7539187 Z M7.33823588,42.6042388 C2.53605414,37.8082294 0,31.6438745 0,25 C0,18.4249439 2.60498888,12.1239985 7.40612438,7.26044946 C12.0711341,2.53500202 18.1071662,0 24.9656489,0 C31.8241316,0 37.9971031,2.53500202 42.7995173,7.32880279 C47.5326481,12.0556452 50,18.2198838 50,25 C50,31.850097 47.5325318,37.9448198 42.8674058,42.534723 C37.9287496,47.3968771 31.5506013,50 24.9656489,50 C18.3816264,50 12.1389064,47.3968771 7.33823588,42.6042388 Z M4.52551283,25 C4.52551283,30.3434174 6.72061323,35.4795661 10.6293171,39.3847735 C14.5388348,43.2882372 19.6161742,45.4112592 25.0346999,45.4112592 C30.3841745,45.4112592 35.597291,43.2882372 39.6452593,39.3153739 C43.4842148,35.5480357 45.4742547,30.6163657 45.4742547,25 C45.4742547,19.4523363 43.4170237,14.384541 39.5758596,10.5476869 C35.6652957,6.64445571 30.6599135,4.52120116 25.0348161,4.52120116 C19.4106487,4.52120116 14.4710625,6.57610237 10.6298984,10.4793336 C6.72119447,14.4523131 4.52551283,19.5892755 4.52551283,25 Z" id="Creative_Commons"></path>
                </g>
            </g>
        </g>
    </g>
</svg>