<?xml version="1.0" encoding="UTF-8"?>
<svg width="40px" height="40px" viewBox="0 0 40 40" version="1.1" xmlns="http://www.w3.org/2000/svg" xmlns:xlink="http://www.w3.org/1999/xlink">
    <!-- Generator: Sketch 52.6 (67491) - http://www.bohemiancoding.com/sketch -->
    <title>icons/comment_hover</title>
    <desc>Created with Sketch.</desc>
    <g id="icons/comment_hover" stroke="none" stroke-width="1" fill="none" fill-rule="evenodd">
        <g id="Group-5-Copy" stroke="#4A4A4A">
            <circle id="Oval" stroke-width="2" fill="#FFFFFF" cx="20" cy="20" r="19"></circle>
            <g id="chat" transform="translate(10.000000, 10.000000)" fill-rule="nonzero">
                <path d="M10.5000141,0 C4.71032189,0 2.82203973e-05,4.24982456 2.82203973e-05,9.47368421 C2.82203973e-05,11.3 0.576477446,13.0687719 1.66882598,14.5978947 C1.46197626,16.8915789 0.907577001,18.594386 0.102578083,19.4010526 C-0.00382177443,19.5077193 -0.0304217387,19.6708772 0.036778171,19.805614 C0.0966280906,19.9259649 0.218777926,20 0.35002775,20 C0.366127728,20 0.382577706,19.9989474 0.399027684,19.9964912 C0.540777494,19.9764912 3.83357307,19.5010526 6.21496987,18.1235088 C7.56771805,18.6705263 9.00831611,18.9473684 10.5000141,18.9473684 C16.2897063,18.9473684 21,14.6975439 21,9.47368421 C21,4.24982456 16.2897063,0 10.5000141,0 Z M10.5000141,18.245614 C9.27956575,18.245614 8.09726734,18.045614 6.97376885,17.6561404 C8.40001693,16.762807 8.40351693,16.6992982 8.40211693,16.4926316 C8.40141693,16.3701754 8.33491702,16.2533333 8.22991716,16.1905263 C8.07031738,16.094386 7.86521765,16.1407018 7.76196779,16.2922807 C7.56981805,16.4449123 6.74486916,16.9754386 6.00637015,17.4322807 C4.44397225,18.3782456 2.34012508,18.9063158 1.17322664,19.1445614 C1.94392561,17.857193 2.25507519,15.9915789 2.37757503,14.5270175 C2.38457502,14.4424561 2.36077505,14.3578947 2.31037512,14.2894737 C1.25687653,12.857193 0.70002728,11.1922807 0.70002728,9.47368421 C0.70002728,4.63684211 5.09637137,0.701754386 10.5000141,0.701754386 C15.9036568,0.701754386 20.3000009,4.63684211 20.3000009,9.47368421 C20.3000009,14.3105263 15.9040068,18.245614 10.5000141,18.245614 Z" id="Shape"></path>
            </g>
        </g>
    </g>
</svg>