<?xml version="1.0" encoding="UTF-8"?>
<svg width="38px" height="47px" viewBox="0 0 38 47" version="1.1" xmlns="http://www.w3.org/2000/svg" xmlns:xlink="http://www.w3.org/1999/xlink">
    <!-- Generator: Sketch 48.2 (47327) - http://www.bohemiancoding.com/sketch -->
    <title>file</title>
    <desc>Created with Sketch.</desc>
    <defs></defs>
    <g id="Home_aliens" stroke="none" stroke-width="1" fill="none" fill-rule="evenodd" transform="translate(-126.000000, -1340.000000)">
        <g id="What-is-the-SSK-?" transform="translate(120.000000, 1131.000000)" fill="#656565" fill-rule="nonzero">
            <g id="Text" transform="translate(0.000000, 106.000000)">
                <g id="file" transform="translate(6.000000, 103.000000)">
                    <path d="M31.1851852,20 L10.8148148,20 C10.365037,20 10,20.447 10,21 C10,21.553 10.365037,22 10.8148148,22 L31.1851852,22 C31.634963,22 32,21.553 32,21 C32,20.447 31.634963,20 31.1851852,20 Z" id="Shape"></path>
                    <path d="M10.8333333,15 L19.1666667,15 C19.6266667,15 20,14.553 20,14 C20,13.447 19.6266667,13 19.1666667,13 L10.8333333,13 C10.3733333,13 10,13.447 10,14 C10,14.553 10.3733333,15 10.8333333,15 Z" id="Shape"></path>
                    <path d="M31.1851852,26 L10.8148148,26 C10.365037,26 10,26.447 10,27 C10,27.553 10.365037,28 10.8148148,28 L31.1851852,28 C31.634963,28 32,27.553 32,27 C32,26.447 31.634963,26 31.1851852,26 Z" id="Shape"></path>
                    <path d="M31.1851852,32 L10.8148148,32 C10.365037,32 10,32.447 10,33 C10,33.553 10.365037,34 10.8148148,34 L31.1851852,34 C31.634963,34 32,33.553 32,33 C32,32.447 31.634963,32 31.1851852,32 Z" id="Shape"></path>
                    <path d="M31.1851852,39 L10.8148148,39 C10.365037,39 10,39.447 10,40 C10,40.553 10.365037,41 10.8148148,41 L31.1851852,41 C31.634963,41 32,40.553 32,40 C32,39.447 31.634963,39 31.1851852,39 Z" id="Shape"></path>
                    <path d="M34.0416667,11.4257 L34.0416667,0 L0,0 L0,43.0833333 L3.95833333,43.0833333 L3.95833333,47 L38,47 L38,15.3423667 L34.0416667,11.4257 Z M26.9166667,6.59096667 L34.0416667,13.6409667 L35.29725,14.8833333 L26.9166667,14.8833333 L26.9166667,6.59096667 Z M1.58333333,41.5166667 L1.58333333,1.56666667 L32.4583333,1.56666667 L32.4583333,9.85903333 L26.45275,3.91666667 L3.95833333,3.91666667 L3.95833333,41.5166667 L1.58333333,41.5166667 Z M5.54166667,45.4333333 L5.54166667,43.0833333 L5.54166667,5.48333333 L25.3333333,5.48333333 L25.3333333,16.45 L36.4166667,16.45 L36.4166667,45.4333333 L5.54166667,45.4333333 Z" id="Shape"></path>
                </g>
            </g>
        </g>
    </g>
</svg>