<?xml version="1.0" encoding="UTF-8"?>
<svg width="40px" height="40px" viewBox="0 0 40 40" version="1.1" xmlns="http://www.w3.org/2000/svg" xmlns:xlink="http://www.w3.org/1999/xlink">
    <!-- Generator: Sketch 52.6 (67491) - http://www.bohemiancoding.com/sketch -->
    <title>icons/github_hover</title>
    <desc>Created with Sketch.</desc>
    <g id="icons/github_hover" stroke="none" stroke-width="1" fill="none" fill-rule="evenodd">
        <g id="github-logo" transform="translate(1.000000, 1.000000)" fill="#FFFFFF" stroke="#4A4A4A" stroke-width="1.8424">
            <path d="M35.4512776,9.46919525 C33.7522449,6.55615698 31.4476155,4.24990052 28.5367829,2.54990563 C25.625517,0.84982403 22.4472826,0 18.9998267,0 C15.552804,0 12.3735298,0.850084154 9.46287049,2.54990563 C6.55177792,4.24981381 4.24723518,6.55615698 2.54820247,9.46919525 C0.849429706,12.3821468 0,15.5631125 0,19.0120055 C0,23.1549085 1.20790065,26.880313 3.62430851,30.1891728 C6.04045642,33.4982927 9.16176182,35.7880746 12.9879648,37.0587788 C13.4333456,37.1414981 13.7630488,37.0833171 13.9774208,36.8857098 C14.1918795,36.6878424 14.2989789,36.4400313 14.2989789,36.1433169 C14.2989789,36.0938067 14.294733,35.6483882 14.2865013,34.8065413 C14.2780096,33.9646944 14.2740237,33.2302786 14.2740237,32.6036407 L13.7049933,32.7021408 C13.3421899,32.7686458 12.8845047,32.7968259 12.3319378,32.7888487 C11.7796309,32.7811317 11.206268,32.7232109 10.612629,32.6155197 C10.0187301,32.5087822 9.46633648,32.2612312 8.95501498,31.8733868 C8.44395343,31.4855424 8.08114998,30.9778677 7.86669129,30.3511431 L7.61930561,29.7814723 C7.45441071,29.402212 7.19480739,28.9808983 6.84014904,28.5190921 C6.48549069,28.0568523 6.12684644,27.74349 5.764043,27.5784849 L5.5908297,27.4544059 C5.47541193,27.3719467 5.36831256,27.2724928 5.26927164,27.1570846 C5.17031737,27.0416764 5.09623164,26.9261815 5.0467545,26.8105131 C4.99719072,26.6947581 5.0382628,26.599813 5.17040402,26.5253309 C5.30254523,26.4508488 5.54135256,26.4146916 5.88786581,26.4146916 L6.38246387,26.4886534 C6.71234032,26.5548116 7.12037506,26.7524188 7.60708797,27.0826892 C8.09354093,27.4126994 8.49343056,27.8417301 8.80684352,28.3696077 C9.18637041,29.0464495 9.64362233,29.562188 10.179899,29.9170834 C10.7157425,30.2719788 11.2560051,30.449123 11.8001669,30.449123 C12.3443288,30.449123 12.8143182,30.4078501 13.2103086,30.3257377 C13.6058657,30.2431918 13.9769876,30.1191128 14.3235008,29.9541944 C14.4719322,28.8479751 14.8760677,27.9981511 15.5355607,27.4041153 C14.5955818,27.3052683 13.7504846,27.1563909 12.9998358,26.9584368 C12.2496203,26.7602226 11.474363,26.4385363 10.6745837,25.9925109 C9.87437122,25.5470925 9.21054576,24.9939828 8.68293406,24.3341358 C8.15523571,23.6739419 7.72215913,22.8072098 7.38431088,21.73472 C7.04628933,20.6617965 6.87723523,19.4241281 6.87723523,18.0213679 C6.87723523,16.0240516 7.52884304,14.3244036 8.83179872,12.9214699 C8.22143629,11.4198627 8.27905853,9.73651568 9.00483872,7.87160238 C9.48314658,7.72289835 10.1924633,7.8344914 11.1324422,8.20568788 C12.0725944,8.57705777 12.7609418,8.89518902 13.1981776,9.15895442 C13.6354134,9.42263311 13.9857392,9.64607935 14.2496751,9.82729884 C15.7838129,9.39835491 17.3669946,9.18383959 18.9996534,9.18383959 C20.6323122,9.18383959 22.2158405,9.39835491 23.750065,9.82729884 L24.6901306,9.2334365 C25.3329867,8.83718144 26.0921272,8.4740488 26.9657322,8.14395186 C27.8398572,7.81402834 28.5082751,7.72315847 28.9702927,7.8718625 C29.7121898,9.73686251 29.7783038,11.4201228 29.167768,12.92173 C30.4706371,14.3246637 31.1225048,16.0247453 31.1225048,18.021628 C31.1225048,19.4243882 30.9528442,20.6659585 30.6153425,21.7471192 C30.2774076,22.8284533 29.8406051,23.6943183 29.3047616,24.346535 C28.7683116,24.9986651 28.1002403,25.5474393 27.3004611,25.992771 C26.5005085,26.4384496 25.7249912,26.7601358 24.9747757,26.9583501 C24.2242137,27.1565643 23.3791164,27.3055285 22.4391375,27.4045489 C23.2964524,28.1469418 23.7251964,29.318799 23.7251964,30.9196 L23.7251964,36.1426232 C23.7251964,36.4393376 23.8283099,36.687062 24.0347102,36.8850162 C24.2408504,37.0826234 24.5663944,37.1408044 25.0117753,37.0579984 C28.8384981,35.7874677 31.9598035,33.497599 34.3758648,30.1884791 C36.7916661,26.8796193 38,23.1542148 38,19.0113118 C37.9991335,15.5628523 37.1492705,12.3821468 35.4512776,9.46919525 Z" id="Path"></path>
        </g>
    </g>
</svg>