<?xml version="1.0" encoding="UTF-8"?>
<svg width="40px" height="40px" viewBox="0 0 40 40" version="1.1" xmlns="http://www.w3.org/2000/svg" xmlns:xlink="http://www.w3.org/1999/xlink">
    <!-- Generator: Sketch 52.6 (67491) - http://www.bohemiancoding.com/sketch -->
    <title>icons/github_hover</title>
    <desc>Created with Sketch.</desc>
    <g id="icons/github_hover" stroke="none" stroke-width="1" fill="none" fill-rule="evenodd">
        <g id="github-logo" stroke="#4A4A4A" stroke-width="2">
            <path d="M37.3171343,9.96757395 C35.5286789,6.90121787 33.1027532,4.4735795 30.0387189,2.68411119 C26.9742285,0.89455161 23.6287185,0 19.9998176,0 C16.3713727,0 13.0247682,0.894825425 9.9609163,2.68411119 C6.89660834,4.47348822 4.47077388,6.90121787 2.68231839,9.96757395 C0.894136533,13.0338388 0,16.3822237 0,20.0126374 C0,24.3735879 1.27147437,28.2950663 3.81506159,31.7780766 C6.35837518,35.2613607 9.64395981,37.6716575 13.6715419,39.0092408 C14.1403638,39.0963138 14.4874198,39.0350706 14.7130746,38.827063 C14.9388206,38.6187815 15.0515567,38.3579277 15.0515567,38.0455967 C15.0515567,37.9934807 15.0470874,37.5246192 15.0384224,36.6384646 C15.0294838,35.7523099 15.0252881,34.9792406 15.0252881,34.3196218 L14.4263088,34.4233061 C14.0444104,34.4933114 13.5626365,34.5229746 12.9809872,34.5145776 C12.3996114,34.5064544 11.7960716,34.4454851 11.1711884,34.332126 C10.5460317,34.2197708 9.96456472,33.9591908 9.42633156,33.5509335 C8.88837203,33.1426762 8.50647367,32.6082818 8.28072768,31.9485717 L8.0203217,31.3489182 C7.84674812,30.9496968 7.57348146,30.5062088 7.20015688,30.0200969 C6.8268323,29.5335288 6.44931204,29.2036737 6.06741368,29.0299841 L5.88508389,28.8993747 C5.7635915,28.8125755 5.65085533,28.7078871 5.54660172,28.5864048 C5.44243933,28.4649225 5.36445436,28.3433489 5.31237316,28.2215928 C5.26020075,28.0997454 5.30343453,27.9998031 5.44253054,27.9214009 C5.58162656,27.8429987 5.8330027,27.8049385 6.19775349,27.8049385 L6.71838302,27.8827931 C7.06562139,27.9524332 7.49513164,28.1604409 8.00746102,28.5080939 C8.51951677,28.8554731 8.94045322,29.3070843 9.2703616,29.8627449 C9.66986359,30.57521 10.1511814,31.1180926 10.7156832,31.4916667 C11.2797289,31.8652408 11.8484264,32.0517084 12.4212283,32.0517084 C12.9940303,32.0517084 13.488756,32.0082632 13.905588,31.9218292 C14.3219639,31.8349387 14.7126185,31.7043293 15.0773693,31.5307309 C15.2336129,30.3662896 15.6590187,29.471738 16.3532218,28.8464372 C15.3637703,28.7423877 14.4741943,28.5856746 13.6840377,28.3773019 C12.8943372,28.1686553 12.0782769,27.8300382 11.2364039,27.3605378 C10.394075,26.8916763 9.69531132,26.3094556 9.13993059,25.6148798 C8.58445864,24.9199389 8.12858856,24.0075893 7.77295882,22.8786526 C7.41714666,21.7492595 7.23919498,20.4464506 7.23919498,18.9698609 C7.23919498,16.8674227 7.92509794,15.0783195 9.29663023,13.6015473 C8.65414346,12.0209081 8.71479845,10.2489639 9.4787776,8.28589724 C9.98225956,8.12936668 10.7289087,8.24683305 11.7183602,8.63756619 C12.7079941,9.02848186 13.4325704,9.36335686 13.8928185,9.64100465 C14.3530667,9.91856117 14.7218308,10.1537677 14.999658,10.3445251 C16.6145399,9.89300516 18.2810469,9.66719956 19.9996352,9.66719956 C21.7182234,9.66719956 23.3850953,9.89300516 25.0000684,10.3445251 L25.9896111,9.71940684 C26.6663018,9.30229625 27.465397,8.92005137 28.3849813,8.57258091 C29.3051128,8.22529299 30.0087106,8.1296405 30.495045,8.28617105 C31.2759893,10.249329 31.3455829,12.0211819 30.7029137,13.6018211 C32.0743548,15.0785933 32.7605314,16.8681529 32.7605314,18.9701347 C32.7605314,20.4467244 32.5819412,21.7536405 32.2266763,22.8917044 C31.8709554,24.0299508 31.4111633,24.9413877 30.8471175,25.6279316 C30.2824333,26.3143843 29.5792004,26.8920414 28.7373274,27.3608116 C27.8952721,27.8299469 27.0789381,28.168564 26.2892376,28.3772106 C25.4991723,28.5858572 24.6095963,28.7426615 23.6201448,28.8468936 C24.5225814,29.6283598 24.973891,30.8618937 24.973891,32.5469474 L24.973891,38.0448665 C24.973891,38.3571975 25.0824315,38.61796 25.2996949,38.8263328 C25.5166847,39.0343405 25.8593625,39.0955836 26.3281845,39.0084194 C30.3563138,37.6710186 33.6418985,35.2606305 36.1851208,31.7773464 C38.7280696,28.2943361 40,24.3728577 40,20.0119072 C39.9990879,16.3819498 39.1044953,13.0338388 37.3171343,9.96757395 Z" id="Path"></path>
        </g>
    </g>
</svg>