<?xml version="1.0" encoding="UTF-8"?>
<svg width="160px" height="105px" viewBox="0 0 160 105" version="1.1" xmlns="http://www.w3.org/2000/svg" xmlns:xlink="http://www.w3.org/1999/xlink">
    <!-- Generator: Sketch 51.3 (57544) - http://www.bohemiancoding.com/sketch -->
    <title>hands</title>
    <desc>Created with Sketch.</desc>
    <defs></defs>
    <g id="Home" stroke="none" stroke-width="1" fill="none" fill-rule="evenodd">
        <g id="Home_SSK_2" transform="translate(-220.000000, -907.000000)" fill-rule="nonzero">
            <g id="Panel_2" transform="translate(0.000000, 650.000000)">
                <g id="hand-shake" transform="translate(220.000000, 229.000000)">
                    <g id="hands" transform="translate(0.000000, 28.000000)">
                        <path d="M36.4030116,85.5572454 C34.3768155,82.4548445 35.2634328,78.3066906 38.3841256,76.292371 L43.4070383,73.0505364 C40.2863456,75.066101 36.113734,74.1834356 34.0875378,71.0810348 C32.0613416,67.9798789 32.947959,63.83297 36.0686517,61.8174054 L39.8355232,59.3860295 L39.8417846,59.3947441 C46.5878407,55.0436643 60.1801356,46.2518687 63.0641465,44.3894323 C68.6768852,40.7653999 76.5537541,36.3632773 75.3089834,30.1622105 C90.5805917,18.9963065 95.8652318,29.4513474 105.750765,29.2546463 L110.836292,25.9717285 L130,55.3063475 L124.856868,58.6278585 C127.335139,64.6994511 120.536487,71.1768955 118.04945,72.7816285 C115.640055,74.3378087 91.2943938,90.0552286 79.2361473,97.8411093 C76.1417525,99.8379997 73.8563335,101.313259 72.9584456,101.892158 L69.1915741,104.326023 L69.1665284,104.28992 C66.1385047,105.802527 62.3866607,104.84143 60.4982158,101.95067 C58.6097709,99.0599096 59.2534451,95.2628299 61.8757286,93.1289957 L61.8519352,93.0928923 L57.456417,95.93012 C54.3357243,97.9431947 50.1631126,97.0630192 48.1369165,93.9606184 C46.109468,90.8582175 46.9973377,86.7113086 50.1180304,84.695744 L45.7237644,87.5329717 C42.6018194,89.5410666 38.4292078,88.6608911 36.4030116,85.5572454 Z" id="Shape" fill="#F7EAC6"></path>
                        <path d="M117.944544,61.254645 L114.190171,58.7986503 L114.18393,58.8074532 C107.460258,54.4135745 93.9130642,45.5315007 91.0373746,43.6502063 C85.4445077,39.9894791 77.5937751,35.5427833 78.8344155,29.2789281 C78.2153434,28.82118 77.6062564,28.4024159 76.9996656,28 C76.4030599,28.3948706 75.795221,28.8111196 75.1649157,29.2789281 C76.4055561,35.5427833 68.5548235,39.9907366 62.9607085,43.6502063 C60.086267,45.5315007 46.5390728,54.4135745 39.8154009,58.8074532 L39.8091602,58.7986503 L36.0547876,61.254645 C32.9843898,63.265467 32.0882331,67.3713668 34.010352,70.4926053 C34.8690649,71.3213305 35.6666195,71.9563931 36.2370145,72.3286279 C36.5203398,72.5134877 37.1169456,72.9045856 37.951944,73.4516198 C39.7317762,73.9395491 41.7000759,73.696842 43.3700728,72.6040312 L40.0138534,74.7997131 C47.8271421,79.9116527 65.2972064,91.3427797 74.9227787,97.6418463 C75.6666636,98.128518 76.3593753,98.5799784 77.0009137,99 C77.6437003,98.5799784 78.336412,98.128518 79.080297,97.6418463 C88.7046211,91.3427797 106.175934,79.9116527 113.989222,74.7997131 L110.633003,72.6040312 C112.303,73.696842 114.272548,73.9382915 116.05238,73.4491047 C116.88613,72.9033281 117.482736,72.5147452 117.766061,72.3273703 C118.336456,71.9551356 119.134011,71.320073 119.991475,70.4926053 C121.911098,67.3713668 121.014941,63.265467 117.944544,61.254645 Z" id="Shape" fill="#E6D9B8"></path>
                        <rect id="Rectangle-path" fill="#E6E6E6" transform="translate(123.500000, 40.500000) rotate(147.007600) translate(-123.500000, -40.500000) " x="120" y="21" width="7" height="39"></rect>
                        <path d="M113,18.2123566 L137.937674,56 L160,41.8999117 C158.127885,26.019241 151.478174,11.5805825 141.498584,0 L113,18.2123566 Z" id="Shape" fill="#805026"></path>
                        <path d="M116.597478,85.5894454 C118.623712,82.4919842 117.737078,78.3504351 114.616328,76.3393227 L109.593321,73.1026498 C112.71282,75.1150052 116.885509,74.2337452 118.912995,71.136284 C120.937977,68.0400659 120.052595,63.8997597 116.931844,61.8874043 L113.164903,59.4598997 L113.159894,59.4686004 C106.41246,55.1244485 92.8199118,46.3466513 89.9345949,44.4871803 C84.323004,40.8689181 76.4447362,36.4738047 77.6895301,30.2826113 C62.4176375,19.1344858 50.7135697,25.427602 47.2471819,29.3764921 L42.1615603,26.0988015 L23,55.3854705 L28.1432278,58.7016929 C25.6661631,64.7636182 32.4636894,71.2307491 34.9495202,72.8329271 C37.3589602,74.3866295 61.7050744,90.0790239 73.7635454,97.8525078 C76.8579977,99.8462187 79.1434593,101.319129 80.0413639,101.897106 L83.8070532,104.327096 L83.8320994,104.291051 C86.8601794,105.801249 90.6120933,104.841683 92.5005734,101.955525 C94.3890534,99.0693675 93.7453672,95.2783336 91.1230349,93.1478969 L91.148081,93.111851 L95.5436811,95.9445612 C98.6644319,97.9544306 102.837121,97.0756566 104.862103,93.9781954 C106.888337,90.8807343 106.001703,86.7404281 102.880952,84.7280727 L107.276552,87.560783 C110.398555,89.5669235 114.571244,88.6881495 116.597478,85.5894454 Z" id="Shape" fill="#FFF4D9"></path>
                        <g id="Group" transform="translate(23.000000, 25.000000)" fill="#F2E4C2">
                            <path d="M62.15875,77.585 L62.135,77.62125 L58.375,75.18 C57.47875,74.59875 55.1975,73.11625 52.10875,71.11 C40.0725,63.29375 15.77125,47.5125 13.36625,45.95 C10.885,44.34 4.1,37.83625 6.5725,31.7375 L1.43875,28.405 L19.62375,0.4025 L19.315,0.2025 L0.1875,29.65625 L5.32125,32.99125 C2.84875,39.0875 9.63375,45.59125 12.115,47.2025 C14.52,48.765 38.82125,64.54625 50.8575,72.36375 C53.94625,74.36875 56.2275,75.85 57.12375,76.43125 L60.88375,78.875 L60.9075,78.83875 C63.75375,80.26875 67.2225,79.475 69.1925,76.95625 C67.1925,78.44875 64.4675,78.7475 62.15875,77.585 Z" id="Shape"></path>
                            <path d="M73.845,69.1925 L47.545,52.29 C46.7275,51.97375 45.77,52.71625 46.63375,53.56625 L72.5975,70.44125 C75.55375,72.3625 79.4375,71.635 81.555,68.89375 C79.36,70.55375 76.28625,70.7775 73.845,69.1925 Z" id="Shape"></path>
                            <path d="M85.605,60.8325 L51.9175,38.7875 C51.1,38.47125 50.1425,39.21375 51.00625,40.06375 L84.35625,62.08125 C87.31375,64.0025 91.1975,63.275 93.31625,60.5325 C91.1175,62.195 88.0475,62.4175 85.605,60.8325 Z" id="Shape"></path>
                            <path d="M87.87,46.34 L61.9425,29.2475 C61.12625,28.9325 60.1675,29.675 61.03125,30.525 L86.62125,47.58875 C89.57875,49.51 93.46125,48.7825 95.58,46.04 C93.38375,47.7025 90.31125,47.925 87.87,46.34 Z" id="Shape"></path>
                        </g>
                        <rect id="Rectangle-path" fill="#E6E6E6" transform="translate(30.555104, 39.260687) rotate(32.997206) translate(-30.555104, -39.260687) " x="27.0551036" y="19.7606875" width="7" height="39"></rect>
                        <path d="M0,47.6962525 L14.6785248,57 L40,18.9424955 L16.425361,4 C6.88661503,16.2743261 0.909119888,31.3250916 0,47.6962525 Z" id="Shape" fill="#406A80"></path>
                        <path d="M77.1529623,23.0022844 C72.5640596,22.9092493 59.73243,25.6903807 56.6414073,25.4125157 C53.5503847,25.1334102 45.5219986,38.4250354 42.7656488,41.619243 C42.7481004,41.640331 42.7330589,41.6651404 42.7155105,41.6862283 C42.6428101,41.7631374 42.5713631,41.8251609 42.4986626,41.9095128 C39.9403588,44.8630694 35.4178893,49.5284733 37.5587923,52.7909067 C38.9777045,54.9530442 41.3931144,56.0806305 43.8198053,55.9863548 C43.8210588,55.9900762 43.8248191,56 43.8248191,56 C43.8824781,55.9950381 43.9451509,55.9875953 44.0065702,55.981393 C44.7736854,55.9305337 45.5382936,55.7531467 46.2715653,55.4504722 C50.2425141,54.0685898 56.4772046,49.7356316 63.198236,37.9251264 C69.5670462,42.7455889 88.2986935,49.2332417 106,29.6760076 C98.3200747,25.6903807 81.7431184,23.0953196 77.1529623,23.0022844 Z" id="Shape" fill="#F7EAC6"></path>
                        <g id="Group" transform="translate(80.000000, 63.000000)" fill="#FFFFFF">
                            <path d="M6.56864224,31.9113292 L4.59300647,30.6192545 C4.37615302,30.4785084 4.08365302,30.5393715 3.94118534,30.7587326 L0.349234914,36.3226422 C0.208028017,36.5407353 0.269806034,36.8349073 0.487920259,36.9781894 L2.46229526,38.2702641 C4.20846983,39.4089129 6.54216595,38.9118636 7.67560345,37.1544391 C8.81030172,35.3982826 8.31355603,33.051246 6.56864224,31.9113292 Z" id="Shape"></path>
                            <path d="M17.8740194,22.8160868 L15.8983836,21.5252801 C15.6815302,21.383266 15.3890302,21.4453972 15.2465625,21.6634903 L11.6546121,27.2261319 C11.5134052,27.4442249 11.5751832,27.739665 11.7920366,27.8829471 L13.7676724,29.1724858 C15.5125862,30.3124026 17.8462823,29.8153532 18.9809806,28.0591967 C20.1131573,26.3030402 19.6189332,23.9560036 17.8740194,22.8160868 Z" id="Shape"></path>
                            <path d="M29.930819,14.4790983 L27.956444,13.1870236 C27.7395905,13.0462775 27.4458297,13.1071407 27.3033621,13.3252338 L23.7114116,18.8878754 C23.5702047,19.1085044 23.6319828,19.4014085 23.850097,19.5446906 L25.824472,20.8354973 C27.5706466,21.9754141 29.9030819,21.4770968 31.0377802,19.7209402 C32.1724784,17.9660517 31.6769935,15.6190151 29.930819,14.4790983 Z" id="Shape"></path>
                            <path d="M33.7005388,1.59385468 L31.7261638,0.303047947 C31.5093103,0.161033846 31.2155496,0.223165015 31.0730819,0.439990115 L27.4811315,6.00263172 C27.3399246,6.22326077 27.4029634,6.51743283 27.6198168,6.65944693 L29.5941918,7.95025367 C31.3403664,9.09017042 33.6728017,8.59185309 34.8075,6.83569657 C35.9421983,5.08080805 35.4441918,2.73377144 33.7005388,1.59385468 Z" id="Shape"></path>
                        </g>
                    </g>
                </g>
            </g>
        </g>
    </g>
</svg>