<?xml version="1.0" encoding="UTF-8"?>
<svg width="107px" height="91px" viewBox="0 0 107 91" version="1.1" xmlns="http://www.w3.org/2000/svg" xmlns:xlink="http://www.w3.org/1999/xlink">
    <!-- Generator: Sketch 51.3 (57544) - http://www.bohemiancoding.com/sketch -->
    <title>learning</title>
    <desc>Created with Sketch.</desc>
    <defs></defs>
    <g id="Home" stroke="none" stroke-width="1" fill="none" fill-rule="evenodd">
        <g id="Home_SSK_2" transform="translate(-543.000000, -912.000000)" fill-rule="nonzero">
            <g id="Panel_2" transform="translate(0.000000, 650.000000)">
                <g id="Group-2" transform="translate(520.000000, 229.000000)">
                    <g id="learning" transform="translate(22.988506, 33.103448)">
                        <path d="M102.988542,90.0822121 L36.7864583,90.0822121 C34.7552083,90.0822121 33.1085417,88.4025461 33.1085417,86.3301149 L33.1085417,46.9333073 C33.1085417,44.8608762 34.755,43.1812101 36.7864583,43.1812101 L102.98875,43.1812101 C105.02,43.1812101 106.666667,44.8608762 106.666667,46.9333073 L106.666667,86.3301149 C106.666458,88.4023336 105.02,90.0822121 102.988542,90.0822121 Z" id="Shape" fill="#959CB5"></path>
                        <path d="M55.4114583,43.1814227 L36.78625,43.1814227 C34.7552083,43.1814227 33.1083333,44.8610887 33.1083333,46.9335198 L33.1083333,61.6630622 C43.484375,60.2488527 52.015625,52.9661201 55.4114583,43.1814227 Z" id="Shape" fill="#7F8499"></path>
                        <path d="M81.1504167,39.4293255 C72.400625,39.4293255 69.9008333,42.1472262 69.9008333,42.1472262 C69.9008333,42.1472262 67.4010417,39.4293255 58.65125,39.4293255 C50.9060417,39.4293255 41.9039583,41.3867751 39.3558333,41.9793234 C38.9377083,42.0766645 38.6522917,42.4539146 38.6522917,42.8915246 L38.6522917,84.1174105 C38.6522917,84.7180351 39.186875,85.1656344 39.7616667,85.0349252 C42.755625,84.3541748 51.2739583,82.5782303 58.6516667,82.5782303 C64.605625,82.5782303 67.6658333,83.836864 69.0133333,84.6410974 C69.5610417,84.9679766 70.24125,84.9679766 70.7891667,84.6410974 C72.1366667,83.8366515 75.1966667,82.5782303 81.1508333,82.5782303 C88.5285417,82.5782303 97.0466667,84.3541748 100.040833,85.0349252 C100.615208,85.1656344 101.150208,84.7178226 101.150208,84.1174105 L101.150208,42.8915246 C101.150208,42.4539146 100.864792,42.0766645 100.446667,41.9793234 C97.8979167,41.38635 88.8958333,39.4293255 81.1504167,39.4293255 Z" id="Shape" fill="#E4EAF8"></path>
                        <path d="M56.451875,39.4824593 C49.2783333,39.7878725 41.6658333,41.4418217 39.3558333,41.9788983 C38.9377083,42.0762394 38.651875,42.4534895 38.651875,42.8910995 L38.651875,60.2962481 C47.64375,57.0374452 54.501875,49.1849057 56.451875,39.4824593 Z" id="Shape" fill="#D5DCED"></path>
                        <path d="M62.5335417,73.3994708 C62.4670833,73.3994708 62.39875,73.3956452 62.330625,73.388419 C60.2564583,73.1556929 57.7727083,73.1520798 55.2889583,73.3114812 C54.2833333,73.3446367 53.4014583,72.5916244 53.33875,71.5563652 C53.2760417,70.5232314 54.044375,69.6327087 55.0591667,69.5668228 C57.7529167,69.3946693 60.443125,69.4038083 62.7329167,69.6584255 C63.7422917,69.7719193 64.4714583,70.6972978 64.36,71.7287313 C64.255625,72.6885404 63.46,73.3994708 62.5335417,73.3994708 Z" id="Shape" fill="#707487"></path>
                        <g id="Group" transform="translate(43.958333, 54.409022)" fill="#7F8499">
                            <path d="M2.01916667,20.0182694 C1.135625,20.0182694 0.35625,19.3679115 0.207083333,18.4499718 C0.04,17.4276773 0.717083333,16.4621297 1.71916667,16.291889 C2.3225,16.1892344 2.9475,16.0884927 3.590625,15.9915767 C4.61979167,15.8523661 5.531875,16.5503318 5.67916667,17.5726263 C5.828125,18.5985339 5.13333333,19.5511169 4.129375,19.7032921 C3.508125,19.7965951 2.90458333,19.8939362 2.32291667,19.9927651 C2.22020833,20.0106181 2.11979167,20.0182694 2.01916667,20.0182694 Z" id="Shape"></path>
                            <path d="M2.01916667,12.514075 C1.135625,12.514075 0.35625,11.8637172 0.207083333,10.9457775 C0.04,9.92348298 0.717083333,8.95623509 1.71916667,8.78769464 C8.56666667,7.62618955 14.291875,7.24320104 18.774375,7.74542182 C19.78375,7.85891564 20.5129167,8.78429408 20.4014583,9.81572761 C20.2902083,10.843548 19.3920833,11.5782824 18.3720833,11.4756278 C14.2470833,11.0157016 8.81645833,11.3895511 2.32270833,12.4887833 C2.22020833,12.5066363 2.11791667,12.514075 2.01916667,12.514075 Z" id="Shape"></path>
                            <path d="M18.5752083,3.98206029 C18.510625,3.98206029 18.4441667,3.97823466 18.3777083,3.97100846 C17.8370833,3.91234873 17.2589583,3.86474084 16.6391667,3.83179787 C15.6245833,3.77696378 14.845,2.89558013 14.8972917,1.86053351 C14.9510417,0.825486879 15.800625,0.0176404251 16.8295833,0.08352635 C17.5210417,0.120082412 18.1675,0.175129039 18.7691667,0.241014964 C19.7785417,0.350895684 20.509375,1.27606159 20.4016667,2.30579484 C20.3010417,3.26751681 19.5035417,3.98206029 18.5752083,3.98206029 Z" id="Shape"></path>
                        </g>
                        <path d="M45.9775,59.4189026 C45.0939583,59.4189026 44.3145833,58.7685448 44.1654167,57.8489048 C43.9983333,56.8266103 44.6772917,55.8610627 45.679375,55.6925222 C48.3247917,55.2455606 50.8460417,54.9120928 53.1752083,54.7031707 C54.2114583,54.6151811 55.07875,55.3754196 55.1685417,56.4070657 C55.2583333,57.4401995 54.5095833,58.350913 53.4983333,58.4406029 C51.2625,58.6420863 48.8327083,58.962802 46.2791667,59.3933984 C46.1785417,59.4114639 46.07625,59.4189026 45.9775,59.4189026 Z" id="Shape" fill="#707487"></path>
                        <path d="M45.9775,51.9147083 C45.0939583,51.9147083 44.3145833,51.2643505 44.1654167,50.3466233 C43.9983333,49.3243288 44.6754167,48.3570809 45.6775,48.1885404 C52.525,47.0289482 58.2502083,46.6440468 62.7327083,47.1462676 C63.7420833,47.2597614 64.47125,48.1851399 64.3597917,49.2165734 C64.2485417,50.2443938 63.3504167,50.9825287 62.3304167,50.8764736 C58.2054167,50.4165474 52.7747917,50.7923097 46.2810417,51.8896291 C46.1785417,51.9072696 46.07625,51.9147083 45.9775,51.9147083 Z" id="Shape" fill="#7F8499"></path>
                        <path d="M77.2414583,73.3994708 C76.3147917,73.3994708 75.519375,72.688753 75.4152083,71.7268185 C75.305625,70.6970852 76.033125,69.7719193 77.0439583,69.6584255 C79.335625,69.4038083 82.0275,69.3965821 84.7158333,69.5668228 C85.7304167,69.6327087 86.5010417,70.5232314 86.43625,71.5563652 C86.3716667,72.5914118 85.488125,73.3482498 84.4860417,73.3114812 C82.0095833,73.150167 79.5241667,73.1556929 77.4427083,73.388419 C77.3760417,73.3956452 77.3079167,73.3994708 77.2414583,73.3994708 Z" id="Shape" fill="#707487"></path>
                        <g id="Group" transform="translate(75.208333, 54.409022)" fill="#7F8499">
                            <path d="M18.5891667,20.0182694 C18.4885417,20.0182694 18.388125,20.0110432 18.2858333,19.9927651 C17.7039583,19.8937237 17.100625,19.7968076 16.479375,19.7032921 C15.475625,19.5513294 14.7804167,18.5985339 14.9295833,17.5726263 C15.076875,16.5486315 16.010625,15.8283496 17.018125,15.9915767 C17.6610417,16.0887053 18.2860417,16.189447 18.8895833,16.291889 C19.8916667,16.4623422 20.56875,17.4278898 20.4016667,18.4499718 C20.2520833,19.367699 19.4725,20.0182694 18.5891667,20.0182694 Z" id="Shape"></path>
                            <path d="M18.5891667,12.514075 C18.4904167,12.514075 18.388125,12.5068488 18.2858333,12.4885708 C11.7991667,11.389126 6.38125,11.0137888 2.23458333,11.4754153 C1.243125,11.5797701 0.318333333,10.8433355 0.207083333,9.81381479 C0.0975,8.78408154 0.825,7.85891564 1.83583333,7.74542182 C6.321875,7.24532639 12.0489583,7.62810236 18.889375,8.78769464 C19.8914583,8.95623509 20.5685417,9.92369551 20.4014583,10.9457775 C20.2520833,11.8635047 19.4725,12.514075 18.5891667,12.514075 Z" id="Shape"></path>
                            <path d="M2.033125,3.98206029 C1.10458333,3.98206029 0.307291667,3.26751681 0.206875,2.30579484 C0.0991666667,1.27436131 0.83,0.350895684 1.839375,0.241014964 C2.44458333,0.175129039 3.0875,0.120082412 3.77895833,0.08352635 C4.79541667,0.0157276079 5.6575,0.825486879 5.71125,1.86053351 C5.76333333,2.89558013 4.98395833,3.77696378 3.969375,3.83179787 C3.34979167,3.86495337 2.77145833,3.91256127 2.23083333,3.97100846 C2.164375,3.97823466 2.09770833,3.98206029 2.033125,3.98206029 Z" id="Shape"></path>
                        </g>
                        <path d="M93.7975,59.4189026 C93.69875,59.4189026 93.5964583,59.4116764 93.495625,59.3933984 C90.9420833,58.962802 88.5139583,58.6422989 86.278125,58.4406029 C85.2670833,58.3490002 84.5183333,57.4401995 84.6079167,56.4070657 C84.6977083,55.3756322 85.570625,54.6117805 86.60125,54.7031707 C88.92875,54.9120928 91.45,55.2455606 94.0954167,55.6925222 C95.0975,55.8610627 95.7764583,56.8266103 95.609375,57.8486923 C95.4604167,58.7683322 94.6808333,59.4189026 93.7975,59.4189026 Z" id="Shape" fill="#707487"></path>
                        <path d="M93.7975,51.9147083 C93.69875,51.9147083 93.5964583,51.9074821 93.4941667,51.8892041 C87.0075,50.7916721 81.5895833,50.4163349 77.4429167,50.8760486 C76.4514583,50.984229 75.5266667,50.2439688 75.4154167,49.2144481 C75.3058333,48.1847148 76.0333333,47.2595489 77.0441667,47.1460551 C81.5302083,46.6459597 87.2572917,47.0287356 94.0977083,48.1883279 C95.0997917,48.3568684 95.776875,49.3243288 95.6097917,50.3464108 C95.4604167,51.2641379 94.6808333,51.9147083 93.7975,51.9147083 Z" id="Shape" fill="#7F8499"></path>
                        <path d="M63.2825,21.3319497 C62.3164583,21.0224984 61.2802083,21.557237 60.9677083,22.5429755 L60.8035417,23.0630492 C56.3772917,9.55813489 43.9008333,0.0323053568 29.4308333,0.0323053568 C17.1866667,0.0323053568 5.99125,6.88252874 0.217708333,17.9080069 C-0.261875,18.822121 0.0777083333,19.9598222 0.971875,20.4471655 C1.87166667,20.9345088 2.985,20.5899892 3.46083333,19.6777879 C8.59520833,9.87438733 18.5460417,3.78461505 29.4308333,3.78461505 C42.5360417,3.78461505 53.8160417,12.5663587 57.54625,24.9303839 L56.4366667,23.9097896 C55.684375,23.2173498 54.5222917,23.2760095 53.8397917,24.0453871 C53.1591667,24.8147647 53.2185417,26.0021991 53.9727083,26.6946389 L59.2597917,31.5587205 C59.6027083,31.8739102 60.0427083,32.0422381 60.4916667,32.0422381 C60.6514583,32.0422381 60.8114583,32.0201345 60.969375,31.978265 C61.5710417,31.8133377 62.0504167,31.3478855 62.2427083,30.741735 L64.4695833,23.6936413 C64.78,22.7079028 64.2485417,21.6507525 63.2825,21.3319497 Z" id="Shape" fill="#E4EAF8"></path>
                        <ellipse id="Oval" fill="#00C3FF" cx="29.4297917" cy="33.8018174" rx="22.0675" ry="22.512583"></ellipse>
                        <path d="M38.6254167,50.6854045 C25.4225,50.6854045 14.7191667,39.7664064 14.7191667,26.2969855 C14.7191667,22.1682759 15.733125,18.2841943 17.508125,14.8755541 C11.4110417,18.8816309 7.36333333,25.8527868 7.36333333,33.8009673 C7.36333333,46.2342789 17.243125,56.3133377 29.4308333,56.3133377 C35.4860417,56.3133377 40.9683333,53.821787 44.955625,49.7931815 C42.93625,50.3583127 40.8204167,50.6854045 38.6254167,50.6854045 Z" id="Shape" fill="#00AAF0"></path>
                        <path d="M29.430625,9.41254825 C16.2489583,9.41254825 5.524375,20.35365 5.524375,33.8009673 C5.524375,47.2482845 16.2491667,58.1893863 29.430625,58.1893863 C42.6120833,58.1893863 53.336875,47.2482845 53.336875,33.8009673 C53.336875,20.35365 42.6120833,9.41254825 29.430625,9.41254825 Z M45.4858333,46.304203 C44.4947917,45.8950727 43.4975,45.5118716 42.4883333,45.1807417 C43.3808333,42.3176795 43.9358333,39.1069096 44.086875,35.6770158 L49.5658333,35.6770158 C49.2122917,39.6541878 47.7410417,43.297892 45.4858333,46.304203 Z M9.29520833,35.6772284 L14.7741667,35.6772284 C14.9252083,39.1073346 15.4804167,42.3181045 16.3729167,45.1813793 C15.36375,45.5125092 14.3664583,45.8954977 13.3758333,46.3052657 C11.1204167,43.2985296 9.64875,39.6546129 9.29520833,35.6772284 Z M13.374375,21.2990067 C14.3658333,21.7098373 15.363125,22.0947387 16.37125,22.4273563 C15.4797917,25.2887183 14.9252083,28.4975754 14.774375,31.9247061 L9.29520833,31.9247061 C9.64854167,27.9483843 11.1195833,24.3051052 13.374375,21.2990067 Z M27.5916667,20.7166602 C25.5066667,20.6154934 23.4270833,20.3468488 21.3716667,19.9024376 C22.9997917,16.6121796 25.1722917,14.286619 27.5916667,13.4885491 L27.5916667,20.7166602 Z M27.5916667,24.4853351 L27.5916667,31.9249187 L18.4495833,31.9249187 C18.6052083,28.8639861 19.1416667,25.9817957 19.9589583,23.4271221 C22.4670833,24.0154196 25.015,24.3718412 27.5916667,24.4853351 Z M27.5916667,35.6772284 L27.5916667,43.1357276 C25.0314583,43.2487964 22.48,43.6013923 19.9629167,44.1875645 C19.1433333,41.6299154 18.6052083,38.7434743 18.449375,35.6774409 L27.5916667,35.6774409 L27.5916667,35.6772284 Z M27.5916667,46.8865496 L27.5916667,54.1135979 C25.1722917,53.3157406 22.9995833,50.9899675 21.3716667,47.6997094 C23.4270833,47.2550857 25.5066667,46.9872913 27.5916667,46.8865496 Z M31.2695833,43.1333897 L31.2695833,35.6770158 L40.4116667,35.6770158 C40.255625,38.7436868 39.7175,41.6303405 38.8977083,44.1886272 C36.3802083,43.6026675 33.8291667,43.246671 31.2695833,43.1333897 Z M37.488125,47.7018347 C35.8602083,50.9910301 33.688125,53.3157406 31.2695833,54.1131728 L31.2695833,46.8835741 C33.3539583,46.9849534 35.4327083,47.257211 37.488125,47.7018347 Z M31.2695833,31.9251312 L31.2695833,24.4857601 C33.8460417,24.3722663 36.39375,24.0156322 38.9022917,23.4271221 C39.719375,25.9817957 40.2560417,28.8639861 40.4116667,31.9251312 L31.2695833,31.9251312 Z M31.2695833,20.7172978 L31.2695833,13.4885491 C33.68875,14.2864064 35.86125,16.6117545 37.4891667,19.9015875 C35.4335417,20.3462112 33.3541667,20.6163435 31.2695833,20.7172978 Z M39.5254167,15.9448189 C40.6914583,16.6338582 41.7808333,17.437879 42.7854167,18.3420039 C42.2404167,18.54455 41.6939583,18.7394448 41.1435417,18.9164867 C40.6541667,17.8506224 40.1141667,16.8578703 39.5254167,15.9448189 Z M17.7175,18.9160616 C17.166875,18.7390197 16.6204167,18.54455 16.0754167,18.3420039 C17.0802083,17.4376664 18.169375,16.6336456 19.335625,15.9446064 C18.746875,16.8578703 18.2070833,17.8506224 17.7175,18.9160616 Z M17.718125,48.6865105 C18.2075,49.7519497 18.7472917,50.7442767 19.335625,51.6573281 C18.1695833,50.9682889 17.0804167,50.1644806 16.0760417,49.2603557 C16.6208333,49.0580221 17.1675,48.8635524 17.718125,48.6865105 Z M41.1439583,48.6850228 C41.6941667,48.8620646 42.240625,49.0573845 42.785625,49.2599306 C41.7810417,50.1642681 40.6920833,50.9682889 39.525625,51.6573281 C40.114375,50.7440642 40.654375,49.750887 41.1439583,48.6850228 Z M44.0866667,31.9251312 C43.9358333,28.4977879 43.3814583,25.2893559 42.49,22.4279939 C43.4979167,22.0951637 44.4945833,21.7096248 45.4860417,21.2985817 C47.7410417,24.3048926 49.2122917,27.9483843 49.5658333,31.9251312 L44.0866667,31.9251312 Z" id="Shape" fill="#E4EAF8"></path>
                        <path d="M41.2202083,50.5357797 C40.6752083,50.9372587 40.1102083,51.3117458 39.5254167,51.6571156 C39.7416667,51.3213099 39.944375,50.9636131 40.1477083,50.6067664 C39.6416667,50.6392843 39.139375,50.6851919 38.6252083,50.6851919 C37.663125,50.6851919 36.7195833,50.6105921 35.7875,50.4981609 C34.4585417,52.2934461 32.9245833,53.5675949 31.269375,54.1133854 L31.269375,49.4966949 C29.9920833,49.07545 28.7647917,48.5438994 27.5914583,47.9194708 L27.5914583,54.1133854 C25.1720833,53.3155281 22.999375,50.9897549 21.3714583,47.6994969 C22.9254167,47.3634786 24.495,47.1600824 26.0683333,47.0219345 C24.6035417,46.0963435 23.2395833,45.0249534 22.0079167,43.8086142 C21.325625,43.9325222 20.6402083,44.0294383 19.9625,44.187352 C19.555625,42.917879 19.219375,41.5672175 18.9635417,40.1540707 C16.8616667,37.0565821 15.460625,33.4371069 14.9520833,29.5262459 C14.8716667,30.3130514 14.8095833,31.1117588 14.7739583,31.9249187 L9.29520833,31.9249187 C9.64854167,27.9483843 11.1195833,24.3051052 13.374375,21.2990067 C13.9516667,21.5381089 14.536875,21.7393797 15.1185417,21.9559532 C15.7960417,18.1158664 17.355,14.5984082 19.573125,11.6084624 C11.300625,15.4485491 5.52375,23.9412448 5.52375,33.8013923 C5.52375,47.2489221 16.2485417,58.1898113 29.43,58.1898113 C37.1925,58.1898113 44.081875,54.3786294 48.451875,48.5126567 C46.2029167,49.5500412 43.7760417,50.2541705 41.2202083,50.5357797 Z M9.29520833,35.6772284 L14.7741667,35.6772284 C14.9252083,39.1073346 15.4804167,42.3181045 16.3729167,45.1813793 C15.36375,45.5125092 14.3664583,45.8954977 13.3758333,46.3052657 C11.1204167,43.2985296 9.64875,39.6546129 9.29520833,35.6772284 Z M16.0760417,49.2603557 C16.6208333,49.0580221 17.1677083,48.8635524 17.7179167,48.6865105 C18.2072917,49.7519497 18.7470833,50.7442767 19.3354167,51.6573281 C18.1695833,50.9685014 17.0804167,50.1644806 16.0760417,49.2603557 Z" id="Shape" fill="#D5DCED"></path>
                    </g>
                </g>
            </g>
        </g>
    </g>
</svg>