<?xml version="1.0" encoding="UTF-8"?>
<svg width="30px" height="30px" viewBox="0 0 30 30" version="1.1" xmlns="http://www.w3.org/2000/svg" xmlns:xlink="http://www.w3.org/1999/xlink">
    <!-- Generator: Sketch 51.3 (57544) - http://www.bohemiancoding.com/sketch -->
    <title>magnifier-tool</title>
    <desc>Created with Sketch.</desc>
    <defs></defs>
    <g id="Explore-Scenarios" stroke="none" stroke-width="1" fill="none" fill-rule="evenodd">
        <g id="Read-Description" transform="translate(-945.000000, -295.000000)" fill="#63B9D8" fill-rule="nonzero">
            <g id="Search-Bar" transform="translate(200.000000, 282.000000)">
                <g id="magnifier-tool" transform="translate(745.000000, 13.000000)">
                    <path d="M22.0588235,11.029533 C22.0588235,4.93863396 17.1204592,0 11.0294724,0 C4.93860682,0 0,4.93863396 0,11.029533 C0,17.120432 4.93860682,22.0588235 11.0294724,22.0588235 C17.1204592,22.0588235 22.0588235,17.120432 22.0588235,11.029533 Z M11.0294724,19.3013645 C6.46796071,19.3013645 2.75744387,15.5911304 2.75744387,11.0295936 C2.75744387,6.46805688 6.46796071,2.75751964 11.0294724,2.75751964 C15.5908628,2.75751964 19.3016827,6.46805688 19.3016827,11.0295936 C19.3016827,15.5911304 15.5908628,19.3013645 11.0294724,19.3013645 Z" id="Shape"></path>
                    <path d="M29.2946748,25.8910626 L23.4042092,20 C22.5265263,21.3650243 21.3649963,22.5259961 20,23.4037498 L25.8909419,29.2948124 C26.8313843,30.2350625 28.3561902,30.2350625 29.2946218,29.2948124 C30.2351172,28.356097 30.2351172,26.8312598 29.2946748,25.8910626 Z" id="Shape"></path>
                </g>
            </g>
        </g>
    </g>
</svg>