<?xml version="1.0" encoding="UTF-8"?>
<svg width="114px" height="113px" viewBox="0 0 114 113" version="1.1" xmlns="http://www.w3.org/2000/svg" xmlns:xlink="http://www.w3.org/1999/xlink">
    <!-- Generator: Sketch 51.3 (57544) - http://www.bohemiancoding.com/sketch -->
    <title>Group 3</title>
    <desc>Created with Sketch.</desc>
    <defs></defs>
    <g id="Home" stroke="none" stroke-width="1" fill="none" fill-rule="evenodd">
        <g id="Home_SSK_2" transform="translate(-843.000000, -902.000000)">
            <g id="Panel_2" transform="translate(0.000000, 650.000000)">
                <g id="wrench" transform="translate(820.000000, 229.000000)">
                    <g id="Group-3" transform="translate(23.000000, 23.000000)">
                        <g id="Group-4" fill-rule="nonzero">
                            <path d="M97,60.1347962 L97,53.3636364 L91.2229199,52.1097179 C91.0973312,50.9811912 90.8461538,49.8526646 90.5949765,48.7241379 C87.3296703,48.9749216 84.0643642,48.4733542 81.0502355,47.3448276 C82.1805338,50.354232 82.9340659,53.4890282 82.9340659,56.8746082 C82.9340659,71.0438871 71.3799058,82.5799373 57.188383,82.5799373 C42.9968603,82.5799373 31.4427002,71.0438871 31.4427002,56.8746082 C31.4427002,42.7053292 42.9968603,31.169279 57.188383,31.169279 C60.5792779,31.169279 63.844584,31.7962382 66.733124,33.0501567 C65.6028257,29.9153605 65.100471,26.6551724 65.3516484,23.5203762 C64.0957614,23.2695925 62.8398744,23.0188088 61.5839874,22.7680251 L60.3281005,17 L53.4207221,17 L52.1648352,22.7680251 C50.7833595,23.0188088 49.2762951,23.2695925 48.0204082,23.645768 L44.755102,18.7554859 L38.4756672,21.3887147 L39.6059655,27.2821317 C38.4756672,27.9090909 37.3453689,28.661442 36.3406593,29.539185 L32.0706436,26.2789969 L26.7959184,30.6677116 L29.6844584,35.9341693 C28.8053375,37.0626959 27.9262166,38.3166144 27.2982732,39.5705329 L22.2747253,38.1912226 L19.1350078,44.2100313 L23.7817896,47.9717868 C23.4050235,49.3510972 23.1538462,50.7304075 22.9026688,52.2351097 L17.6279435,52.862069 L17,59.6332288 L22.7770801,61.3887147 C22.9026688,62.8934169 23.2794349,64.2727273 23.6562009,65.6520376 L19.0094192,68.2852665 L21.0188383,74.8056426 L27.0470958,74.1786834 C27.8006279,75.4326019 28.5541601,76.6865204 29.433281,77.815047 L26.2935636,81.9529781 L30.689168,87.2194357 L35.9638932,84.3354232 C37.0941915,85.2131661 38.3500785,86.0909091 39.6059655,86.7178683 L38.2244898,91.7335423 L44.2527473,94.8683386 L48.0204082,90.2288401 C49.4018838,90.6050157 50.7833595,90.8557994 52.2904239,91.1065831 L52.9183673,96.3730408 L59.700157,97 L61.4583987,91.2319749 C62.9654631,91.1065831 64.3469388,90.7304075 65.7284144,90.354232 L68.3657771,94.9937304 L74.8963893,92.9874608 L74.2684458,86.968652 C75.6499215,86.2163009 76.9058085,85.338558 78.1616954,84.3354232 L83.0596546,87.5956113 L87.8320251,82.830721 L84.566719,77.815047 C85.4458399,76.6865204 86.1993721,75.4326019 86.9529042,74.3040752 L92.7299843,75.4326019 L95.3673469,69.1630094 L90.4693878,65.6520376 C90.8461538,64.2727273 91.0973312,62.8934169 91.2229199,61.3887147 L97,60.1347962 Z" id="Shape" fill="#FFFFFF"></path>
                            <path d="M47.7968162,90.0657531 C48.1761227,90.1915329 48.4289938,90.1915329 48.8083004,90.3173126 C48.4289938,95.8516208 46.0267187,101.260149 41.8543463,105.41088 C35.4061343,111.825647 26.1763406,113.838123 18.0844667,111.448308 L31.3601973,98.2414357 L26.6820827,86.5439206 L14.9235785,81.8900706 L1.64784787,95.2227222 C-0.754427189,87.1728193 1.26854128,77.9908989 7.71675329,71.5761325 C12.0155613,67.2996216 17.3258535,65.0355865 22.8890168,64.6582473 C22.8890168,64.9098067 23.0154524,65.1613662 23.1418879,65.5387054 L18.4637733,68.1800798 L20.4867418,74.7206258 L26.5556472,74.0917272 C27.3142604,75.3495245 28.0728735,76.6073218 28.9579223,77.7393394 L25.797034,81.7642908 L30.2222776,87.0470396 L35.5325698,84.1541057 C36.6704896,85.0345639 37.9348449,85.915022 39.1992001,86.5439206 L37.8084093,91.5751099 L43.8773147,94.7196032 L47.7968162,90.0657531 Z" id="Shape" fill="#324A5E"></path>
                            <path d="M106.083595,41.6405563 C98.8767701,48.810001 88.2561856,50.4451375 79.4056985,46.6717456 L46.7853319,78.9971367 C47.038203,79.6260354 47.291074,80.254934 47.5439451,80.8838327 C40.7164265,78.2424583 35.1532632,72.8339298 32.4981171,65.9160446 C33.1302947,66.167604 33.7624724,66.2933838 34.39465,66.670723 L67.0150167,34.2195521 C63.2219508,25.4149709 64.8656126,14.8494734 72.0724378,7.68002863 C78.5206498,1.2652623 87.7504435,-0.747213417 95.8423174,1.64260149 L82.4401513,14.8494734 L87.1182658,26.5469884 L98.8767701,31.2008385 L112.152501,17.9939667 C114.554776,26.0438695 112.531807,35.22579 106.083595,41.6405563 Z" id="Shape" fill="#324A5E"></path>
                        </g>
                        <g id="Group" transform="translate(0.636364, 0.636364)"></g>
                    </g>
                </g>
            </g>
        </g>
    </g>
</svg>