<?xml version="1.0" encoding="UTF-8"?>
<svg width="17px" height="17px" viewBox="0 0 17 17" version="1.1" xmlns="http://www.w3.org/2000/svg" xmlns:xlink="http://www.w3.org/1999/xlink">
    <!-- Generator: Sketch 51.3 (57544) - http://www.bohemiancoding.com/sketch -->
    <title>Question Mark</title>
    <desc>Created with Sketch.</desc>
    <defs></defs>
    <g id="Explore-Scenarios" stroke="none" stroke-width="1" fill="none" fill-rule="evenodd">
        <g id="Filters'-Tooltips-" transform="translate(-119.000000, -590.000000)" fill-rule="nonzero">
            <g id="Filters" transform="translate(0.000000, 516.000000)">
                <g id="Disciplines" transform="translate(0.000000, 58.000000)">
                    <g id="Question-Mark" transform="translate(119.000000, 16.000000)">
                        <path d="M17,8.5 C17,3.80566667 13.1943056,0 8.5,0 C3.80566667,0 0,3.80566667 0,8.5 C0,13.1943056 3.80566667,17 8.5,17 C13.1943056,17 17,13.1943056 17,8.5 Z" id="Path" fill="#4A4A4A"></path>
                        <path d="M9.64191667,5.29047222 C9.86291667,5.56247222 9.97263889,5.88316667 9.97263889,6.25252778 C9.97263889,6.51680556 9.89688889,6.77102778 9.74622222,7.01675 C9.66352778,7.15583333 9.55461111,7.29030556 9.41858333,7.41855556 L8.96577778,7.86597222 C8.5315,8.29252778 8.251,8.67036111 8.12272222,9.00111111 C7.99444444,9.33105556 7.93030556,9.76611111 7.93030556,10.3054722 L8.93794444,10.3054722 C8.93794444,9.83025 8.99202778,9.47091667 9.09944444,9.2275 C9.20683333,8.98408333 9.44175,8.68738889 9.80416667,8.33577778 C10.3025556,7.85280556 10.6333056,7.48655556 10.7971111,7.23772222 C10.9609167,6.98888889 11.0436111,6.66436111 11.0436111,6.26408333 C11.0436111,5.60419444 10.8203056,5.06172222 10.3728889,4.63672222 C9.9255,4.21172222 9.3305,4 8.58711111,4 C7.78347222,4 7.15138889,4.24802778 6.69083333,4.74413889 C6.23027778,5.24025 6,5.8955 6,6.71072222 L7.00763889,6.71072222 C7.02616667,6.22002778 7.10425,5.8445 7.23947222,5.58408333 C7.48055556,5.11658333 7.91638889,4.88244444 8.54691667,4.88244444 C9.05616667,4.88247222 9.42166667,5.01847222 9.64191667,5.29047222 Z" id="Shape" fill="#FFFFFF"></path>
                        <polygon id="Rectangle-path" fill="#FFFFFF" points="8 11 9.12663889 11 9.12663889 12.1768611 8 12.1768611"></polygon>
                    </g>
                </g>
            </g>
        </g>
    </g>
</svg>