<?xml version="1.0" encoding="UTF-8"?>
<svg width="40px" height="40px" viewBox="0 0 40 40" version="1.1" xmlns="http://www.w3.org/2000/svg" xmlns:xlink="http://www.w3.org/1999/xlink">
    <!-- Generator: Sketch 52.6 (67491) - http://www.bohemiancoding.com/sketch -->
    <title>icons/quote_hover</title>
    <desc>Created with Sketch.</desc>
    <g id="icons/quote_hover" stroke="none" stroke-width="1" fill="none" fill-rule="evenodd">
        <g id="Group-6-Copy" stroke="#4A4A4A">
            <circle id="Oval-Copy" stroke-width="2" cx="20" cy="20" r="20"></circle>
            <g id="right-quote" transform="translate(8.000000, 12.000000)" fill-rule="nonzero">
                <path d="M4.91180324,0 C2.20327373,0 0,2.25468459 0,5.02644962 C0,7.70032394 2.05051004,9.89341872 4.62690274,10.0449302 C4.67151352,10.5377866 4.63804679,11.879399 3.38177712,13.7456697 C3.28681031,13.8864512 3.30404553,14.0763185 3.4219945,14.1970184 C3.93607369,14.7230939 4.25378377,15.0544155 4.47614613,15.2861459 C4.76717247,15.5891337 4.90000173,15.7274712 5.09433075,15.9080244 C5.1602262,15.9692235 5.24335689,16 5.32687008,16 C5.40795704,16 5.48873409,15.9709596 5.55397237,15.9131949 C7.7430563,13.9639073 10.1748182,9.93630855 9.82298397,5.00084353 C9.61681817,2.10320827 7.55142685,0 4.91180324,0 Z M5.33022545,15.1619752 C5.23595075,15.0668829 5.1284553,14.9548242 4.96994632,14.7898187 C4.77731313,14.5889013 4.51300454,14.3135732 4.11216412,13.9019989 C5.63679148,11.4978919 5.34881027,9.78554017 5.22276464,9.53996179 C5.16292573,9.42340694 5.04023713,9.34488901 4.91180324,9.34488901 C2.58518327,9.34488901 0.692178663,7.40771274 0.692178663,5.02644962 C0.692178663,2.64550536 2.58518345,0.708329757 4.91180324,0.708329757 C7.17830787,0.708329757 8.95336496,2.53518346 9.1328147,5.05202061 C9.52825408,10.6031657 6.30429384,14.2073956 5.33022545,15.1619752 Z" id="Shape"></path>
                <path d="M22.965907,5.0008435 L22.965907,5.00048951 C22.7590631,2.10320827 20.6934908,0 18.0547273,0 C15.3463355,0 13.1428571,2.25468459 13.1428571,5.02644962 C13.1428571,7.70032394 15.1935805,9.89341872 17.7701561,10.0449302 C17.8147664,10.5374326 17.7809536,11.8783357 16.5244515,13.7456697 C16.429491,13.8864513 16.4467255,14.0763185 16.5646657,14.1970184 C17.0766723,14.7210052 17.3936701,15.0516527 17.616052,15.283029 C17.908375,15.5880718 18.0418876,15.7271159 18.2372092,15.9083433 C18.3031002,15.9692235 18.3865715,16 18.4697312,16 C18.5508513,16 18.6316215,15.9709596 18.6968207,15.9128409 C20.8857682,13.9635519 23.3173724,9.93598973 22.965907,5.0008435 Z M18.4730882,15.1619752 C18.3781278,15.0661736 18.2696702,14.9534435 18.1097864,14.7867383 C17.9171658,14.5861034 17.6539123,14.3115197 17.2547581,13.9019989 C18.7792886,11.497538 18.4917062,9.78554017 18.3659798,9.53996179 C18.3061457,9.42376089 18.1831533,9.34488901 18.0547272,9.34488901 C15.7278737,9.34488901 13.8349918,7.40771274 13.8349918,5.02644962 C13.8349918,2.64550536 15.7278737,0.708329757 18.0547272,0.708329757 C20.3207064,0.708329757 22.0959979,2.53518346 22.2757802,5.05237456 L22.2757802,5.05202057 C22.6708499,10.6024564 19.4470944,14.2073956 18.4730882,15.1619752 Z" id="Shape"></path>
            </g>
        </g>
    </g>
</svg>