<?xml version="1.0" encoding="UTF-8"?>
<svg width="75px" height="83px" viewBox="0 0 75 83" version="1.1" xmlns="http://www.w3.org/2000/svg" xmlns:xlink="http://www.w3.org/1999/xlink">
    <!-- Generator: Sketch 51.3 (57544) - http://www.bohemiancoding.com/sketch -->
    <title>shield</title>
    <desc>Created with Sketch.</desc>
    <defs></defs>
    <g id="Home" stroke="none" stroke-width="1" fill="none" fill-rule="evenodd">
        <g id="New-Home" transform="translate(-820.000000, -2029.000000)">
            <g id="Panel_4" transform="translate(0.000000, 1809.000000)">
                <g id="Group-4" transform="translate(220.000000, 220.000000)">
                    <g id="shield" transform="translate(600.000000, 0.000000)">
                        <path d="M73.0139019,14.6976465 C67.1800234,14.6976465 62.7525701,11.5391074 58.0643692,8.19560156 C52.6785631,4.3540957 46.5742991,0 37.5,0 C28.4257009,0 22.3214369,4.3540957 16.9352804,8.19560156 C12.2474299,11.5391074 7.8198014,14.6976465 1.9859229,14.6976465 C0.953971963,14.6976465 0.116705607,15.4718809 0.116705607,16.4268672 C0.116705607,36.6167793 2.83475467,50.0605098 8.92990654,60.0171055 C14.9821262,69.903832 23.9914136,76.0524785 36.5653037,82.7683457 C36.8544393,82.9228359 37.1770444,83 37.4998248,83 C37.8226051,83 38.1452103,82.9226738 38.4343458,82.7683457 C51.0084112,76.0524785 60.0175234,69.9039941 66.0700935,60.0171055 C72.1648949,50.0605098 74.8829439,36.6167793 74.8829439,16.4268672 C74.8831192,15.4718809 74.0458528,14.6976465 73.0139019,14.6976465 Z M37.5,79.2714844 C14.9533879,67.1089043 4.15636682,56.6309648 3.8614486,18.0691973 C10.0198598,17.495168 14.6891355,14.1646309 19.2182243,10.9342773 C24.3709696,7.2590957 29.6994743,3.4582793 37.5,3.4582793 C45.3003505,3.4582793 50.6286799,7.25877148 55.7817757,10.9342773 C60.310514,14.164793 64.9801402,17.4950059 71.1385514,18.0691973 C70.8436332,56.6309648 60.0466121,67.1089043 37.5,79.2714844 Z" id="Shape" fill="#3E6477" fill-rule="nonzero"></path>
                        <path d="M37.7146384,78.8313869 C15.1680262,66.6688068 4.37100518,56.1908674 4.07608696,17.6290998 C10.2344982,17.0550705 14.9037739,13.7245334 19.4328627,10.4941799 C24.585608,6.81899822 29.9141127,3.01818182 37.7146384,3.01818182 C45.5149888,3.01818182 50.8433183,6.81867401 55.9964141,10.4941799 C60.5251524,13.7246955 65.1947785,17.0549084 71.3531898,17.6290998 C71.0582715,56.1908674 60.2612505,66.6688068 37.7146384,78.8313869 Z" id="Path-Copy" fill="#C0D7DE" fill-rule="nonzero"></path>
                        <path d="M15.4153037,19.7484883 C14.9341121,18.9034121 13.8038551,18.5791934 12.8903621,19.0241836 C12.6581776,19.1373359 12.4226636,19.2483809 12.1864486,19.3561836 C11.2603388,19.7779922 10.8792056,20.8145195 11.3349883,21.6714297 C11.660222,22.2827441 12.3236565,22.6369531 13.0133762,22.6369531 C13.2904206,22.6369531 13.5721963,22.5798906 13.8376752,22.458957 C14.1045561,22.337375 14.370035,22.2120645 14.6320093,22.0844844 C15.5456776,21.6391699 15.8961449,20.5935645 15.4153037,19.7484883 Z" id="Path" fill="#FFFFFF"></path>
                        <path d="M64.7635514,33.3079648 C64.8208528,33.312666 64.8781542,33.3150977 64.9347547,33.3150977 C65.890479,33.3150977 66.7061916,32.6403984 66.7939836,31.7423125 C66.8158879,31.5215195 66.8365654,31.2997539 66.8567173,31.0789609 C66.9439836,30.1272168 66.1806659,29.2905703 65.1518692,29.2098398 C64.1246495,29.1279746 63.2186916,29.8352578 63.1317757,30.787002 C63.1121495,31.0006621 63.0919977,31.2151328 63.0707944,31.4291172 C62.9777453,32.380375 63.7354556,33.2215605 64.7635514,33.3079648 Z" id="Path" fill="#FFFFFF"></path>
                        <path d="M19.1097547,19.1496563 C19.4886098,19.1496563 19.8713201,19.0433125 20.2021612,18.8220332 C21.2849299,18.0988633 22.3396612,17.3562402 23.3593458,16.6376094 C28.1304322,13.277082 32.2507009,10.3746758 37.5,10.3746758 C38.5323014,10.3746758 39.3692173,9.60044141 39.3692173,8.64545508 C39.3692173,7.69079297 38.5323014,6.91623438 37.5,6.91623438 C30.9893692,6.91623438 26.1830607,10.3015645 21.0946262,13.886127 C20.0933411,14.591627 19.0580607,15.3207949 18.0138435,16.0181895 C17.1765771,16.5774668 16.9883762,17.6580879 17.5925818,18.4323223 C17.9579439,18.9008184 18.5297313,19.1496563 19.1097547,19.1496563 Z" id="Path" fill="#FFFFFF"></path>
                        <path d="M37.5,71.2128652 C32.716472,68.4844023 26.9388435,64.8205684 22.6067173,60.0957285 C21.9390771,59.367209 20.7594042,59.2778867 19.9722547,59.8951992 C19.1847547,60.5128359 19.0878505,61.6041563 19.7554907,62.3326758 C24.7324766,67.7615566 31.3349299,71.8035918 36.5306075,74.7186426 C36.5400701,74.723668 36.5502336,74.7273965 36.5596963,74.7324219 C36.6045561,74.7564141 36.6504673,74.7773262 36.6972547,74.7979141 C36.7272196,74.8110449 36.7570093,74.8256348 36.7873248,74.8371445 C36.8293808,74.8530313 36.8719626,74.8655137 36.9152453,74.8786445 C36.9513435,74.889668 36.9869159,74.9023125 37.0233645,74.9112285 C37.0624416,74.920793 37.1022196,74.9264668 37.1416472,74.9335996 C37.1814252,74.9410566 37.2212033,74.9501348 37.261507,74.9548359 C37.3181075,74.9616445 37.3748832,74.9632656 37.4323598,74.965373 C37.454264,74.9660215 37.4761682,74.9694258 37.4980724,74.9694258 C37.4987734,74.9694258 37.4994743,74.9694258 37.5,74.9694258 C37.5007009,74.9694258 37.5015771,74.9694258 37.5019276,74.9694258 C37.5238318,74.9694258 37.545736,74.9660215 37.5676402,74.965373 C37.6249416,74.9632656 37.682243,74.9618066 37.7388435,74.9548359 C37.7786215,74.9501348 37.8176986,74.9410566 37.8571262,74.9339238 C37.8972547,74.926791 37.9375584,74.9211172 37.976986,74.9112285 C38.0130841,74.9024746 38.0486565,74.8899922 38.084229,74.8791309 C38.1271612,74.866 38.1704439,74.8535176 38.2128505,74.8373066 C38.2431659,74.825959 38.2726051,74.8113691 38.3025701,74.7980762 C38.3493575,74.7774883 38.3956192,74.7565762 38.4401285,74.732584 C38.4501168,74.7275586 38.4597547,74.7238301 38.4692173,74.7188047 C43.6648949,71.803916 50.2671729,67.762043 55.2443341,62.3325137 C60.9198014,56.1397734 64.4971963,47.7595293 66.1804907,36.7125859 C66.3245327,35.7668398 65.6127336,34.892584 64.5905958,34.759168 C63.5672313,34.6260762 62.6228972,35.2844023 62.4786799,36.2299863 C60.8968458,46.6100117 57.5980724,54.416875 52.3931075,60.0962148 C48.061507,64.8205684 42.2844042,68.4844023 37.5,71.2128652 Z" id="Path" fill="#FFFFFF"></path>
                        <path d="M49.5634346,21.6326855 L30.0643107,39.6712441 L25.4374416,35.3904219 C24.2929907,34.3320098 22.7674065,33.7490645 21.1414136,33.7490645 C19.5150701,33.7490645 17.989486,34.3320098 16.8445093,35.3907461 C14.4765771,37.582627 14.4765771,41.1483848 16.8452103,43.3396172 L25.7816005,51.6055742 L25.8590537,51.6760918 C25.8704439,51.6863047 25.8820093,51.6963555 25.8933995,51.7065684 L25.9719042,51.774168 C25.9857477,51.786002 25.9995911,51.7978359 26.0139603,51.8091836 L26.0943925,51.8743516 C26.1066589,51.8845645 26.1192757,51.894291 26.1318925,51.9040176 L26.2133762,51.9664297 C26.2224883,51.9738867 26.2321262,51.9805332 26.2414136,51.987666 L26.3242991,52.0491055 C26.3395444,52.060291 26.354965,52.0714766 26.370736,52.0821758 L26.4557243,52.1413457 C26.4676402,52.1494512 26.4793808,52.1575566 26.491472,52.1653379 L26.5768107,52.221752 C26.5896028,52.2301816 26.6023949,52.2382871 26.6151869,52.2462305 L26.7021028,52.3006992 C26.7159463,52.3091289 26.7297897,52.3177207 26.7438084,52.3259883 L26.8317757,52.3780254 C26.8436916,52.384834 26.8554322,52.3918047 26.8675234,52.3982891 L26.9567173,52.4482187 C26.9686332,52.4550273 26.9803738,52.4616738 26.992465,52.4681582 L27.0821846,52.5156562 C27.0997079,52.5252207 27.1174065,52.5342988 27.1351051,52.5430527 L27.2264019,52.587957 C27.2358645,52.5926582 27.2455023,52.5975215 27.2551402,52.6017363 L27.3471379,52.6453437 C27.3632593,52.653125 27.3797313,52.660582 27.396028,52.6680391 L27.4890771,52.7088906 C27.5022196,52.7145645 27.5153621,52.7199141 27.5285047,52.7259121 L27.575993,52.7455273 C27.6092874,52.7604414 27.6431075,52.7742207 27.6778037,52.7873516 L27.7727804,52.8231777 C27.7815421,52.826582 27.7899533,52.8295 27.798715,52.8327422 L27.8940421,52.8671094 C27.908236,52.872459 27.9227804,52.8776465 27.9373248,52.8826719 L28.034229,52.9152559 C28.0494743,52.9202812 28.0652453,52.9254687 28.0810164,52.9301699 L28.1278037,52.9447598 C28.159521,52.9556211 28.191764,52.9653477 28.2247079,52.9744258 L28.3219626,53.0018223 C28.3358061,53.0053887 28.3496495,53.0096035 28.3636682,53.0128457 L28.4617991,53.0382969 C28.4752921,53.0417012 28.4889603,53.0451055 28.5028037,53.0485098 L28.6016355,53.0718535 C28.614778,53.0749336 28.6284463,53.0778516 28.641764,53.0810937 L28.7405958,53.1020059 C28.7544393,53.1050859 28.7686332,53.1080039 28.7830023,53.1107598 L28.8818341,53.1295645 C28.9009346,53.133293 28.9198598,53.136373 28.938785,53.1397773 L28.9876752,53.1475586 C29.016764,53.1529082 29.0463785,53.1580957 29.0765187,53.1621484 L29.1762266,53.176252 C29.1911215,53.1786836 29.2061916,53.1803047 29.2210864,53.18225 L29.3214953,53.194084 C29.3356893,53.1958672 29.3502336,53.1974883 29.3644276,53.1987852 L29.4119159,53.2034863 C29.4432827,53.2072148 29.4746495,53.2106191 29.5065421,53.2130508 L29.6076519,53.220832 C29.6267523,53.222291 29.6456776,53.2235879 29.6646028,53.2242363 L29.7120911,53.226668 C29.7431075,53.2290996 29.7744743,53.2307207 29.8058411,53.2313691 L29.9069509,53.2344492 C29.9172897,53.2347734 29.9269276,53.2347734 29.9372664,53.2350977 L30.0376752,53.2363945 C30.0467874,53.2363945 30.0555491,53.2363945 30.0648364,53.2363945 C30.0739486,53.2363945 30.0827103,53.2363945 30.0919977,53.2363945 L30.1931075,53.2350977 C30.2034463,53.2347734 30.2130841,53.2347734 30.2234229,53.2344492 L30.3248832,53.2313691 C30.35625,53.2307207 30.3876168,53.2289375 30.4186332,53.226668 L30.4661215,53.2242363 C30.4855724,53.2232637 30.5048481,53.2221289 30.5242991,53.2206699 L30.6247079,53.2128887 C30.6560748,53.210457 30.6870911,53.2075391 30.7181075,53.2036484 L30.7655958,53.1989473 C30.7794393,53.1976504 30.7932827,53.1961914 30.8069509,53.1945703 L30.9080607,53.1824121 C30.9238318,53.1806289 30.9394276,53.1786836 30.9548481,53.1764141 L31.0545561,53.1623105 C31.085222,53.1579336 31.1158879,53.1527461 31.1458528,53.1470723 L31.1936916,53.139291 C31.2124416,53.1365352 31.2308411,53.133293 31.2492407,53.1294023 L31.347722,53.1105977 C31.360514,53.108166 31.3733061,53.1058965 31.3860981,53.1031406 L31.4858061,53.0819043 C31.5015771,53.0785 31.5171729,53.0750957 31.5329439,53.0713672 L31.6310748,53.0480234 C31.6442173,53.0449434 31.6570093,53.0417012 31.6698014,53.0381348 L31.7675818,53.0128457 C31.7810748,53.0094414 31.7949182,53.0057129 31.8080607,53.0019844 L31.9054907,52.9745879 C31.9361565,52.965834 31.9668224,52.9565937 31.9967874,52.946543 L32.0449766,52.9319531 C32.0621495,52.9266035 32.0793224,52.9210918 32.0963201,52.915418 L32.1932243,52.882834 C32.2077687,52.8778086 32.2223131,52.8726211 32.236507,52.8672715 L32.3318341,52.8329043 C32.3425234,52.8291758 32.3530374,52.825123 32.3635514,52.8210703 L32.4578271,52.7852441 C32.4881425,52.7738965 32.5179322,52.761252 32.5473715,52.7484453 L32.5959112,52.7285059 C32.6116822,52.7221836 32.627278,52.715375 32.6430491,52.7085664 L32.7357477,52.6677148 C32.748014,52.6623652 32.7606308,52.6565293 32.7728972,52.6506934 L32.8648949,52.6077344 C32.8945093,52.5939551 32.9239486,52.5793652 32.9525117,52.564127 L33.0003505,52.540459 C33.0138435,52.5336504 33.0275117,52.5266797 33.040479,52.5195469 L33.1308995,52.4720488 C33.1454439,52.4642676 33.1596379,52.4564863 33.1738318,52.4483809 L33.2630257,52.3984512 C33.2768692,52.3906699 33.2907126,52.3825645 33.3047313,52.374459 L33.3923481,52.3224219 C33.4023364,52.316748 33.4119743,52.3105879 33.4214369,52.3044277 L33.5090537,52.2502832 C33.5239486,52.2407187 33.5390187,52.2314785 33.5535631,52.2215898 L33.6389019,52.1651758 C33.6534463,52.1556113 33.6679907,52.1460469 33.6821846,52.135834 L33.766472,52.0766641 C33.7768107,52.069207 33.7867991,52.0620742 33.7971379,52.0547793 L33.8800234,51.9939883 C33.9019276,51.9781016 33.9233061,51.9614043 33.9446846,51.944707 L33.9918224,51.9085566 C34.0082944,51.8960742 34.0247664,51.8832676 34.0403621,51.8702988 L34.1204439,51.8048066 C34.1311332,51.796377 34.1411215,51.7877852 34.1514603,51.7791934 L34.2303154,51.7115937 C34.2420561,51.7017051 34.253271,51.6916543 34.2646612,51.6814414 L34.3421145,51.6118965 C34.3592874,51.5966582 34.3757593,51.5810957 34.3918808,51.5655332 L58.1570678,29.580584 C60.5253505,27.3887031 60.5246495,23.8229453 58.1556659,21.6323613 C57.0115654,20.5739492 55.4859813,19.9910039 53.8599883,19.9910039 C52.2336449,19.991166 50.7078855,20.5741113 49.5634346,21.6326855 Z M55.5126168,27.1356504 L31.7169393,49.1484824 C31.7130841,49.1525352 31.708528,49.1562637 31.7046729,49.1598301 L31.5308411,49.3029727 C31.5289136,49.3044316 31.526986,49.3058906 31.5247079,49.3076738 L31.3025117,49.453248 L30.9867407,49.6048203 C30.9860397,49.6051445 30.9848131,49.6054687 30.9841121,49.605793 L30.7748832,49.6766348 C30.7726051,49.6772832 30.7705023,49.6780937 30.7683995,49.6787422 L30.4456192,49.7486113 C30.4419393,49.7492598 30.4379089,49.7499082 30.4338785,49.7507187 L30.2721379,49.7685508 C30.2682827,49.7691992 30.2640771,49.7695234 30.2603972,49.7700098 L30.16875,49.7750352 C30.1648949,49.7750352 30.1610397,49.7753594 30.1570093,49.7756836 L30.0643107,49.7774668 L30.0056075,49.7764941 L29.9723131,49.7758457 C29.9684579,49.7755215 29.9642523,49.7751973 29.9603972,49.7751973 L29.8669977,49.7701719 C29.8636682,49.7698477 29.8601636,49.7695234 29.8563084,49.7687129 L29.6954439,49.7508809 C29.6907126,49.7502324 29.6863318,49.7490977 29.6816005,49.7484492 L29.3598715,49.6789043 C29.359521,49.6789043 29.3588201,49.6785801 29.3582944,49.6785801 L29.1748248,49.6171406 L28.8236565,49.451627 L28.5005257,49.2266191 L19.4882593,40.893873 C18.5773949,40.0509043 18.5773949,38.6786484 19.4882593,37.8356797 C19.9263435,37.4304062 20.5133762,37.2071816 21.1414136,37.2071816 C21.7689252,37.2071816 22.3559579,37.4304062 22.7942173,37.8353555 L28.7426986,43.3389687 C29.0931659,43.6635117 29.5685748,43.8455605 30.0641355,43.8455605 C30.5596963,43.8455605 31.0351051,43.6635117 31.3860981,43.339293 L52.2073598,24.0779434 C52.6454439,23.6726699 53.2324766,23.4494453 53.8596379,23.4494453 C54.4871495,23.4494453 55.0738318,23.6726699 55.5124416,24.0782676 C56.4231308,24.9210742 56.4234813,26.2926816 55.5126168,27.1356504 Z" id="Shape" fill="#3E6477" fill-rule="nonzero"></path>
                        <path d="M55.5126168,27.1356504 L31.7169393,49.1484824 C31.7130841,49.1525352 31.708528,49.1562637 31.7046729,49.1598301 L31.5308411,49.3029727 C31.5289136,49.3044316 31.526986,49.3058906 31.5247079,49.3076738 L31.3025117,49.453248 L30.9867407,49.6048203 C30.9860397,49.6051445 30.9848131,49.6054688 30.9841121,49.605793 L30.7748832,49.6766348 C30.7726051,49.6772832 30.7705023,49.6780938 30.7683995,49.6787422 L30.4456192,49.7486113 C30.4419393,49.7492598 30.4379089,49.7499082 30.4338785,49.7507188 L30.2721379,49.7685508 C30.2682827,49.7691992 30.2640771,49.7695234 30.2603972,49.7700098 L30.16875,49.7750352 C30.1648949,49.7750352 30.1610397,49.7753594 30.1570093,49.7756836 L30.0643107,49.7774668 L30.0056075,49.7764941 L29.9723131,49.7758457 C29.9684579,49.7755215 29.9642523,49.7751973 29.9603972,49.7751973 L29.8669977,49.7701719 C29.8636682,49.7698477 29.8601636,49.7695234 29.8563084,49.7687129 L29.6954439,49.7508809 C29.6907126,49.7502324 29.6863318,49.7490977 29.6816005,49.7484492 L29.3598715,49.6789043 C29.359521,49.6789043 29.3588201,49.6785801 29.3582944,49.6785801 L29.1748248,49.6171406 L28.8236565,49.451627 L28.5005257,49.2266191 L19.4882593,40.893873 C18.5773949,40.0509043 18.5773949,38.6786484 19.4882593,37.8356797 C19.9263435,37.4304063 20.5133762,37.2071816 21.1414136,37.2071816 C21.7689252,37.2071816 22.3559579,37.4304063 22.7942173,37.8353555 L28.7426986,43.3389688 C29.0931659,43.6635117 29.5685748,43.8455605 30.0641355,43.8455605 C30.5596963,43.8455605 31.0351051,43.6635117 31.3860981,43.339293 L52.2073598,24.0779434 C52.6454439,23.6726699 53.2324766,23.4494453 53.8596379,23.4494453 C54.4871495,23.4494453 55.0738318,23.6726699 55.5124416,24.0782676 C56.4231308,24.9210742 56.4234813,26.2926816 55.5126168,27.1356504 Z" id="Path-Copy-2" fill="#63B9D8" fill-rule="nonzero"></path>
                    </g>
                </g>
            </g>
        </g>
    </g>
</svg>