<?xml version="1.0" encoding="UTF-8"?>
<svg width="27px" height="26px" viewBox="0 0 27 26" version="1.1" xmlns="http://www.w3.org/2000/svg" xmlns:xlink="http://www.w3.org/1999/xlink">
    <!-- Generator: Sketch 51.3 (57544) - http://www.bohemiancoding.com/sketch -->
    <title>star</title>
    <desc>Created with Sketch.</desc>
    <defs></defs>
    <g id="Explore-Scenarios" stroke="none" stroke-width="1" fill="none" fill-rule="evenodd">
        <g id="Read-Description" transform="translate(-1138.000000, -589.000000)" fill="#F5A623" fill-rule="nonzero">
            <g id="Scenarios-List" transform="translate(420.000000, 574.000000)">
                <g id="Scenario-1">
                    <g id="star" transform="translate(718.000000, 15.000000)">
                        <path d="M26.4140441,11.7831874 C26.9455062,11.2626057 27.1331129,10.4985787 26.9038759,9.78834876 C26.6740983,9.07811883 26.0755951,8.57112225 25.3403067,8.46352812 L18.8027273,7.50876607 C18.5242909,7.46801072 18.2837001,7.292491 18.1593499,7.03872101 L15.2365783,1.08463577 C14.9084018,0.415704591 14.2423169,0 13.5,0 C12.7582237,0 12.0921389,0.415704591 11.7639623,1.08463577 L8.8406501,7.03872101 C8.71629985,7.292491 8.47516849,7.46801072 8.19673206,7.50876607 L1.65915269,8.46407152 C0.924404898,8.57112225 0.325901726,9.07811883 0.0961240853,9.78834876 C-0.133112902,10.4985787 0.0544937834,11.2626057 0.58595595,11.7831874 L5.31613142,16.4173426 C5.5177951,16.6151419 5.6102468,16.899886 5.56266932,17.1781092 L4.44622031,23.7223319 C4.32078875,24.4575585 4.61544478,25.1862642 5.21611057,25.6253352 C5.8162357,26.0649496 6.59747968,26.1220071 7.25545471,25.7736847 L13.1020792,22.6838856 C13.3513204,22.5523816 13.6486796,22.5523816 13.8979208,22.6838856 L19.7450859,25.7736847 C20.0305509,25.9247512 20.3398045,25.9991976 20.6474363,25.9991976 C21.046979,25.9991976 21.4448998,25.8736711 21.7844301,25.6253352 C22.3850959,25.1862642 22.6797519,24.4575585 22.5543203,23.7223319 L21.4373307,17.1786526 C21.3897532,16.899886 21.4822049,16.6156853 21.6838686,16.417886 L26.4140441,11.7831874 Z M20.3722437,17.3623234 L21.4886927,23.9060027 C21.5449207,24.235306 21.4178672,24.5499373 21.1486218,24.7466498 C20.8788359,24.9428189 20.5430902,24.9667287 20.2484341,24.8124018 L14.401269,21.7220593 C14.1195886,21.5737098 13.8092537,21.4987199 13.5,21.4987199 C13.1907463,21.4987199 12.880952,21.5737098 12.598731,21.7226027 L6.75264717,24.8124018 C6.45690983,24.9667287 6.12116415,24.9428189 5.85191882,24.7466498 C5.58267349,24.5499373 5.45616062,24.2358494 5.51184791,23.9060027 L6.62829692,17.3623234 C6.73588692,16.7308871 6.52773541,16.0864092 6.07142405,15.6397305 L1.34070792,11.0050319 C1.10227982,10.7713679 1.02118183,10.4420646 1.12444661,10.1241729 C1.22717073,9.80573771 1.48506234,9.58728903 1.81432018,9.53892601 L8.35135889,8.58416396 C8.98230126,8.49232857 9.52782041,8.09455633 9.80950077,7.51963416 L12.732813,1.56554892 C12.8798707,1.26558953 13.1669576,1.08680939 13.4994593,1.08680939 C13.8325018,1.08680939 14.119048,1.26558953 14.2666463,1.56554892 L17.1899586,7.51963416 C17.4716389,8.09455633 18.0166174,8.49232857 18.6475598,8.58416396 L25.1851392,9.53892601 C25.514397,9.58728903 25.7722886,9.80573771 25.8750127,10.1241729 C25.9777369,10.4420646 25.8971795,10.7713679 25.6587514,11.0050319 L20.928576,15.6391871 C20.4722646,16.0864092 20.2641131,16.7303437 20.3722437,17.3623234 Z" id="Shape"></path>
                    </g>
                </g>
            </g>
        </g>
    </g>
</svg>