<?xml version="1.0" encoding="UTF-8"?>
<svg width="42px" height="37px" viewBox="0 0 42 37" version="1.1" xmlns="http://www.w3.org/2000/svg" xmlns:xlink="http://www.w3.org/1999/xlink">
    <!-- Generator: Sketch 48.2 (47327) - http://www.bohemiancoding.com/sketch -->
    <title>thumb-up</title>
    <desc>Created with Sketch.</desc>
    <defs></defs>
    <g id="Home_aliens" stroke="none" stroke-width="1" fill="none" fill-rule="evenodd" transform="translate(-124.000000, -1417.000000)">
        <g id="What-is-the-SSK-?" transform="translate(120.000000, 1131.000000)" fill="#656565" fill-rule="nonzero">
            <g id="Text" transform="translate(0.000000, 106.000000)">
                <g id="thumb-up" transform="translate(4.000000, 180.000000)">
                    <path d="M40.7941818,20.2544314 C42.9217639,18.1448532 42.2643741,13.8776968 38.5791461,13.8776968 L28.8826457,13.8841687 C29.2508706,11.8390402 29.7842553,8.44882974 29.7631365,8.12873908 C29.5595298,5.09718117 27.6193091,1.40764415 27.5353755,1.25663255 C27.1815005,0.600271407 25.3947971,-0.289618388 23.5967221,0.0916859062 C21.2720313,0.587327556 21.0345803,2.06427495 21.0440567,2.47146695 C21.0440567,2.47146695 21.1442356,6.51183628 21.1539827,7.58995125 C20.042539,10.021238 16.2102918,16.4106468 15.0487586,16.9030525 C14.7709654,16.7355914 14.4558081,16.6455237 14.1279255,16.6455237 L1.87740581,16.6455237 C0.836899533,16.6455237 0,17.4836381 0,18.5151013 L0.0016245219,35.3779736 C0.0744572539,36.2870095 0.849895709,37 1.76585531,37 L12.7692837,37 C13.7450798,37 14.538388,36.2098857 14.538388,35.2380182 L14.538388,34.6781966 C14.538388,34.6781966 14.947226,34.6477246 15.132963,34.7666463 C15.8404423,35.2140181 16.7147059,35.7770757 17.8551202,35.7770757 L34.2755169,35.7770757 C40.4145851,35.7770757 39.7555707,30.3498266 39.1948399,29.6096001 C40.2320972,28.4848333 40.8735126,26.5009184 39.9978953,24.9336337 C40.6699058,24.2241488 41.8525578,22.2739419 40.7941818,20.2544314 Z M12.3913116,35.2347822 L1.76260626,35.2347822 L1.76260626,18.4056179 L12.3913116,18.4056179 L12.3913116,35.2347822 Z M37.9298789,20.109622 L37.8297,20.5262522 C40.6585342,21.3274227 39.1528731,24.5747115 37.1235745,24.7853187 L37.0233957,25.201949 C39.7358057,25.8890517 38.441874,29.2326104 36.3172701,29.4610155 L36.2170913,29.8760277 C38.4321269,30.2381859 37.8957639,34.0032287 34.5400432,34.0032287 L17.8383335,34.0097006 C16.6589306,34.0097006 15.5845801,32.6710906 14.7170854,32.6710906 L13.9600582,32.6710906 L13.9600582,19.7169919 C14.9036347,19.1345185 16.0635433,18.3783819 16.7082078,17.8328525 C17.9263284,16.7981533 22.9119862,8.77404401 22.9119862,7.76981686 C22.9119862,6.76558971 22.8020602,2.42130953 22.8020602,2.42130953 C22.8020602,2.42130953 23.7794809,1.16629525 25.962026,2.08180308 C25.962026,2.08180308 27.7988188,5.51219341 27.9861803,8.24604273 C27.9861803,8.24604273 27.1590279,13.8776968 26.7147212,15.6445326 L38.293501,15.6445326 C41.1383096,15.6477685 40.5954486,19.6929918 37.9298789,20.109622 Z" id="Shape"></path>
                </g>
            </g>
        </g>
    </g>
</svg>