<?xml version="1.0" encoding="UTF-8"?>
<svg width="53px" height="53px" viewBox="0 0 53 53" version="1.1" xmlns="http://www.w3.org/2000/svg" xmlns:xlink="http://www.w3.org/1999/xlink">
    <!-- Generator: Sketch 51.3 (57544) - http://www.bohemiancoding.com/sketch -->
    <title>user</title>
    <desc>Created with Sketch.</desc>
    <defs></defs>
    <g id="Scenario-cards" stroke="none" stroke-width="1" fill="none" fill-rule="evenodd">
        <g id="Hover_author" transform="translate(-269.000000, -32.000000)" fill-rule="nonzero">
            <g id="user" transform="translate(269.000000, 32.000000)">
                <path d="M11.487,44.641 L20.6,40.733 C21.094,40.486 21.496,39.688 21.779,39.119 C22.034,38.605 21.653,38 21.079,38 L14.634,38 C14.634,38 12.304,37.772 10.507,37 C9.454,36.548 9.092,35.951 9.75,35.014 C11.675,32.274 15.654,25.822 15.783,19.159 C15.783,19.159 16.004,8.902 26.123,8.819 C32.026,8.868 34.814,12.342 36.113,15.229 C36.837,16.84 37.148,18.596 37.264,20.358 C37.684,26.709 40.918,32.518 42.425,35 C42.936,35.842 42.689,36.963 41.844,37.469 C40.458,38.298 38.761,38 38.761,38 L32.273,38 C31.639,38 31.359,38.886 31.857,39.279 C32.263,39.599 32.65,39.888 32.859,40.002 L40.439,44.589 C41.533,45.186 42.406,46.072 43,47.118 C38.451,50.795 32.664,53 26.359,53 C19.785,53 13.774,50.601 9.143,46.637 C9.748,45.812 10.537,45.116 11.487,44.641 Z" id="Shape" fill="#E7ECED"></path>
                <path d="M26.5,0 C11.864,0 0,11.865 0,26.5 C0,34.522 3.57,41.706 9.202,46.566 C9.8,45.773 10.566,45.102 11.488,44.641 L20.601,40.733 C21.095,40.486 21.497,39.688 21.78,39.119 C22.035,38.605 21.654,38 21.08,38 L14.635,38 C14.635,38 12.305,37.772 10.508,37 C9.455,36.548 9.093,35.951 9.751,35.014 C11.676,32.274 15.655,25.822 15.784,19.159 C15.784,19.159 16.005,8.902 26.124,8.819 C32.027,8.868 34.815,12.342 36.114,15.229 C36.838,16.84 37.149,18.596 37.265,20.358 C37.685,26.709 40.919,32.518 42.426,35 C42.937,35.842 42.69,36.963 41.845,37.469 C40.458,38.298 38.761,38 38.761,38 L32.273,38 C31.639,38 31.359,38.886 31.857,39.279 C32.263,39.599 32.65,39.888 32.859,40.002 L40.439,44.589 C41.525,45.181 42.391,46.058 42.984,47.094 C43.01,47.119 43.039,47.142 43.064,47.169 C49.117,42.313 53,34.864 53,26.5 C53,11.865 41.136,0 26.5,0 Z" id="Shape" fill="#556080"></path>
            </g>
        </g>
    </g>
</svg>