<?xml version="1.0" encoding="UTF-8"?>
<svg width="96px" height="93px" viewBox="0 0 96 93" version="1.1" xmlns="http://www.w3.org/2000/svg" xmlns:xlink="http://www.w3.org/1999/xlink">
    <!-- Generator: Sketch 49 (51002) - http://www.bohemiancoding.com/sketch -->
    <title>man-in-office-desk-with-computer</title>
    <desc>Created with Sketch.</desc>
    <defs></defs>
    <g id="Glossary" stroke="none" stroke-width="1" fill="none" fill-rule="evenodd">
        <g transform="translate(-182.000000, -838.000000)" fill="#FFFFFF" fill-rule="nonzero" id="Activities">
            <g transform="translate(80.000000, 699.000000)">
                <g id="man-in-office-desk-with-computer" transform="translate(102.000000, 139.000000)">
                    <path d="M35.2896741,37.6047455 C34.9887609,37.6232559 34.0116384,38.4595901 34.0116384,38.4595901 C34.5373912,38.6850805 35.5922777,37.5862351 35.2896741,37.6047455 Z M35.4215349,37.4331035 L35.3437708,37.4802209 C35.3708192,37.4701243 35.396177,37.4600277 35.4198443,37.4499312 C35.4198443,37.4432001 35.4215349,37.4398346 35.4215349,37.4331035 Z M71.6156389,0 C77.0371471,0 81.4325077,4.37518854 81.4325077,9.77181533 C81.4325077,15.1684421 77.0371471,19.5436307 71.6156389,19.5436307 C66.1941306,19.5436307 61.79877,15.1684421 61.79877,9.77181533 C61.79877,4.37518854 66.1941306,0 71.6156389,0 Z M12.6839964,41.8957958 L15.3144506,41.8957958 L15.3144506,40.6370877 L12.6839964,40.6370877 C11.9672145,40.6370877 11.4499144,40.4957355 11.2605758,40.2500518 C11.1168813,40.0615822 11.1794306,39.8158985 11.1794306,39.8158985 L11.2115506,32.2165326 L9.94703914,32.2165326 L9.94703914,39.5483389 C9.89125188,39.8041191 9.8202499,40.4183283 10.2361186,40.9837373 C10.6790357,41.5878499 11.5057016,41.8957958 12.6839964,41.8957958 Z M95.8323853,59.7532961 L95.4756849,56.8724028 C94.0657884,45.6180716 94.0100012,45.1889666 94.5543497,25.3559004 C94.5712549,24.6609185 94.0269064,24.0837302 93.3236487,24.063537 C92.6609636,24.0197851 92.0456131,24.5919251 92.0236363,25.286907 C91.4759067,45.3050774 91.535075,45.75101 92.9652578,57.178666 L93.3236487,60.0646076 C93.6904923,62.8293902 93.3676023,64.7443766 92.4225998,65.4814276 C91.3220691,66.3261755 89.3965631,65.5756624 89.2647022,65.521814 C79.9651335,62.6745759 68.3799773,68.5575217 67.8897255,68.8015226 C67.2693035,69.1178824 67.0258681,69.8801748 67.3470675,70.4977495 C67.5719071,70.9302201 68.0148243,71.1725382 68.4712655,71.1725382 C68.6656757,71.1725382 68.8617764,71.1321519 69.051115,71.031186 C69.1271886,70.9958479 74.2984994,68.3791486 80.1679963,67.5041109 L80.1679963,87.0999073 L74.9155404,87.0999073 C73.8454391,87.0999073 72.9782007,87.9614829 72.9782007,89.026673 C72.9782007,90.0884976 73.8454391,90.9534387 74.9155404,90.9534387 L89.8360991,90.9534387 C90.9062004,90.9534387 91.7734388,90.0884976 91.7734388,89.026673 C91.7734388,87.9614829 90.9045098,87.0999073 89.8360991,87.0999073 L84.9961309,87.0999073 L84.9961309,67.2920825 C86.1609014,67.3711725 87.3104573,67.5512283 88.4126785,67.8877813 C88.5479204,67.9416298 91.6838411,69.2238966 93.9592855,67.4839177 C95.702215,66.151168 96.3361612,63.5445653 95.8323853,59.7532961 Z M89.8208844,54.0403096 C89.6028069,45.7627894 86.8776833,37.8251877 86.6629869,29.5830056 C86.346859,17.5781614 67.8660582,17.3055535 67.7172921,29.0159139 C60.6441426,30.2140424 53.5794457,30.8501275 46.3879596,30.5135746 C39.8608491,30.2089941 39.8405628,40.2736105 46.3220292,40.5748254 C53.8752873,40.9265233 61.3676866,40.213031 68.8076797,38.9980748 C69.5717962,43.4035531 70.4762262,47.7871555 70.7636152,52.2431167 C55.373091,57.5943089 46.8427103,70.5600118 44.6653163,87.037645 C44.6501016,87.1503902 44.6467206,87.2715493 44.6365774,87.3893428 L44.6365774,50.9070015 L54.3418717,50.9070015 L54.3418717,42.2828317 L19.5339968,42.2828317 C19.5542831,42.173452 19.5627357,42.0455619 19.5694978,41.887382 C19.5728789,41.7931472 19.5779504,41.6888158 19.5847125,41.5710222 C19.6286661,40.842385 19.7571459,40.5933358 20.4739278,40.4553491 C20.6548138,40.4216938 20.8830344,40.4115972 21.1129456,40.4149628 L21.1129456,41.0207581 L30.4547774,41.0207581 C30.7269516,41.0712411 30.9974354,41.1099447 31.2493233,41.1099447 C31.6415248,41.1099447 31.9796294,41.0207581 32.1791112,40.7531985 C32.2839236,40.613529 32.2839236,40.4200111 32.2822331,40.2332242 C32.2822331,40.0531683 32.2805426,39.8680642 32.3684498,39.7586845 C32.5036916,39.5954563 32.7640322,39.4860766 32.9482993,39.4692489 C32.7538891,39.8428227 32.6321714,40.2399552 32.6321714,40.6606464 L43.2131568,40.6606464 C43.2131568,38.6345976 40.8430431,36.9922191 37.9235094,36.9922191 C37.0106268,36.9922191 36.1704367,37.1655439 35.4232254,37.4465656 C35.5973493,39.1814962 33.9575417,39.0132197 33.3235954,38.8853296 C33.2492124,38.9778816 33.1849725,39.075482 33.1207327,39.1730823 C33.0919938,39.1663513 33.0683264,39.1495236 33.0362065,39.1478409 C32.7538891,39.1343787 32.346473,39.304338 32.1317765,39.5634838 C31.9711768,39.7586845 31.9745578,40.0110992 31.9745578,40.2332242 C31.9762484,40.3695281 31.9762484,40.5108804 31.9339853,40.5664116 C31.8224108,40.7161777 31.6026427,40.7649779 31.3507547,40.77844 L31.3507547,39.3278967 L21.1146361,39.3278967 L21.1146361,40.0969202 C20.8424619,40.0952375 20.5888834,40.1187962 20.41645,40.1524515 C19.508639,40.3257762 19.3260625,40.7414192 19.2770373,41.5491463 C19.2702752,41.6703053 19.2668941,41.7780023 19.2618226,41.8722371 C19.2550605,42.0556585 19.2482984,42.1835486 19.2229405,42.281149 L0,42.281149 L0,50.9053187 L5.28288534,50.9053187 L5.28288534,92.7354867 L44.6348869,92.7354867 L44.6348869,88.547085 C45.2755952,94.9920743 56.3265461,94.4031066 57.3002875,87.0258656 C58.9840487,74.2789221 66.4527807,65.7674976 79.0099878,62.9505493 C84.2303238,63.7414488 89.9966988,60.7881965 89.8208844,54.0403096 Z M14.2747788,13.8895409 L15.8655612,36.4671965 L11.6646108,36.7599976 L10.0738284,14.1840247 L14.2747788,13.8895409 Z" id="Shape"></path>
                </g>
            </g>
        </g>
    </g>
</svg>