<?xml version="1.0" encoding="UTF-8"?>
<svg width="46px" height="37px" viewBox="0 0 46 37" version="1.1" xmlns="http://www.w3.org/2000/svg" xmlns:xlink="http://www.w3.org/1999/xlink">
    <!-- Generator: Sketch 48.2 (47327) - http://www.bohemiancoding.com/sketch -->
    <title>chat</title>
    <desc>Created with Sketch.</desc>
    <defs></defs>
    <g id="Home_aliens" stroke="none" stroke-width="1" fill="none" fill-rule="evenodd" transform="translate(-120.000000, -1483.000000)">
        <g id="What-is-the-SSK-?" transform="translate(120.000000, 1131.000000)" fill="#656565" fill-rule="nonzero">
            <g id="Text" transform="translate(0.000000, 106.000000)">
                <g id="chat" transform="translate(0.000000, 246.000000)">
                    <path d="M33.4125449,0 L2.58754487,0 C1.16071998,0 0,1.17403959 0,2.61714694 L0,21.3226215 C0,22.7657288 1.16071998,23.9398592 2.58754487,23.9398592 L4.58633825,23.9398592 L4.58633825,30.9034853 C4.58633825,31.346848 4.85037894,31.7467277 5.25550459,31.9164837 C5.38958915,31.9727664 5.53049462,32 5.6701436,32 C5.95231352,32 6.22945752,31.8885239 6.43686677,31.6788253 L14.0880335,23.93995 L15.6230953,23.93995 C16.2218089,23.93995 16.7070802,23.4491101 16.7070802,22.8435261 C16.7070802,22.2378513 16.2216294,21.7470114 15.6230953,21.7470114 C15.6230953,21.7470114 13.5866972,21.7484639 13.5654268,21.7506425 C13.3130535,21.7679813 13.065347,21.8731029 12.8723873,22.0681861 L6.75430794,28.2564722 C6.75430794,28.2564722 6.75242321,22.7741712 6.74892302,22.7457575 C6.70000997,22.1860167 6.23582968,21.7470114 5.6697846,21.7470114 L2.58754487,21.7470114 C2.35617272,21.7470114 2.16805943,21.5566487 2.16805943,21.3227122 L2.16805943,2.61714694 C2.16805943,2.38311972 2.35626247,2.19284778 2.58754487,2.19284778 L33.4125449,2.19284778 C33.643917,2.19284778 33.8320303,2.3832105 33.8320303,2.61714694 L33.8320303,9.7936489 C33.8320303,10.3992329 34.3174811,10.8900728 34.9160152,10.8900728 C35.5145493,10.8900728 36,10.3992329 36,9.7936489 L36,2.61714694 C36,1.17403959 34.83928,0 33.4125449,0 Z" id="Shape"></path>
                    <path d="M43.3885519,13 L21.6115387,13 C20.1715737,13 19,14.1813206 19,15.6334691 L19,28.4733549 C19,29.925412 20.1714831,31.106824 21.6115387,31.106824 L35.2452361,31.106824 L40.768861,36.6768335 C40.9781935,36.8879239 41.257998,37 41.5426938,37 C41.6836377,37 41.8258498,36.9725062 41.9611777,36.9159657 C42.3698788,36.745157 42.6365491,36.34298 42.6365491,35.8966851 L42.6365491,31.1067326 L43.3884613,31.1067326 C44.8284263,31.1067326 46,29.925412 46,28.4732636 L46,15.6333777 C46.0000906,14.1813206 44.8286075,13 43.3885519,13 Z M43.8120177,28.4733549 C43.8120177,28.7087422 43.6220695,28.9002854 43.3886425,28.9002854 L41.5429656,28.9002854 C40.9672332,28.9002854 40.4963935,29.3489553 40.4531864,29.91847 C40.4503784,29.9425842 40.4485668,33.2332559 40.4485668,33.2332559 L36.4762309,29.227471 C36.4720642,29.2232693 36.4677163,29.2193416 36.4635496,29.2151399 C36.4479696,29.1997945 36.433205,29.1864586 36.4192555,29.1744929 C36.2266804,29.0042322 35.9751372,28.9001941 35.6990466,28.9001941 L21.6115387,28.9001941 C21.378021,28.9001941 21.1881634,28.7086508 21.1881634,28.4732636 L21.1881634,15.6333777 C21.1881634,15.3978991 21.3781116,15.2064472 21.6115387,15.2064472 L43.3886425,15.2064472 C43.6220695,15.2064472 43.8120177,15.3979905 43.8120177,15.6333777 L43.8120177,28.4733549 Z" id="Shape"></path>
                    <path d="M32,21 C31.4480046,21 31,21.4480046 31,22 C31,22.5519954 31.4480046,23 32,23 C32.5520782,23 33,22.5519954 33,22 C33,21.4480046 32.5519954,21 32,21 Z" id="Shape"></path>
                    <path d="M27.9109018,7 C27.9109018,7 8.0890982,7 8.0890982,7 C7.48765053,7 7,7.44767346 7,8 C7,8.55232654 7.4877407,9 8.0890982,9 L27.9109018,9 C28.5123495,9 29,8.55232654 29,8 C29,7.44767346 28.5123495,7 27.9109018,7 Z" id="Shape"></path>
                    <path d="M15.877311,14 L8.12268895,14 C7.502691,14 7,14.4476735 7,15 C7,15.5523265 7.50278395,16 8.12268895,16 L15.877311,16 C16.497402,16 17,15.5523265 17,15 C17,14.4476735 16.497309,14 15.877311,14 Z" id="Shape"></path>
                    <path d="M28,21 C27.4480874,21 27,21.4480046 27,22 C27,22.5519954 27.4480874,23 28,23 C28.5520782,23 29,22.5519954 29,22 C29,21.4480046 28.5520782,21 28,21 Z" id="Shape"></path>
                    <path d="M37,21 C36.4480046,21 36,21.4480046 36,22 C36,22.5519954 36.4480046,23 37,23 C37.5520782,23 38,22.5519954 38,22 C38,21.4480046 37.5519954,21 37,21 Z" id="Shape"></path>
                </g>
            </g>
        </g>
    </g>
</svg>