<?xml version="1.0" encoding="UTF-8"?>
<svg width="140px" height="103px" viewBox="0 0 140 103" version="1.1" xmlns="http://www.w3.org/2000/svg" xmlns:xlink="http://www.w3.org/1999/xlink">
    <!-- Generator: Sketch 49 (51002) - http://www.bohemiancoding.com/sketch -->
    <title>Combined Shape</title>
    <desc>Created with Sketch.</desc>
    <defs></defs>
    <g id="Glossary" stroke="none" stroke-width="1" fill="none" fill-rule="evenodd">
        <g transform="translate(-160.000000, -393.000000)" fill="#FFFFFF" fill-rule="nonzero" id="Disciplines">
            <g transform="translate(80.000000, 259.000000)">
                <path d="M115,185.333333 L173.333333,206.333333 L194.333333,185.333333 L194.333333,213.333333 C194.333333,213.122422 188.987363,216.781451 182.666667,222.666667 C175.109571,226.33119 169.168155,236.666667 168.666667,236.666667 C169.168155,236.666667 149.753155,224.159949 138.333333,220.333333 C126.761135,215.679558 115,220.045286 115,220.333333 L115,185.333333 Z M96.3333333,173.666667 L96.3333333,199.333333 L101,199.333333 L101,218 L84.6666667,218 L84.6666667,199.333333 L89.3333333,199.333333 L89.3333333,173.666667 L80,169 L140.666667,134 L220,157.333333 L171,199.333333 L96.3333333,173.666667 Z" id="Combined-Shape"></path>
            </g>
        </g>
    </g>
</svg>