<?xml version="1.0" encoding="UTF-8"?>
<svg width="108px" height="83px" viewBox="0 0 108 83" version="1.1" xmlns="http://www.w3.org/2000/svg" xmlns:xlink="http://www.w3.org/1999/xlink">
    <!-- Generator: Sketch 49 (51002) - http://www.bohemiancoding.com/sketch -->
    <title>open-book (1)</title>
    <desc>Created with Sketch.</desc>
    <defs></defs>
    <g id="Glossary" stroke="none" stroke-width="1" fill="none" fill-rule="evenodd">
        <g transform="translate(-546.000000, -403.000000)" fill="#FFFFFF" fill-rule="nonzero" id="Objects">
            <g transform="translate(450.000000, 259.000000)">
                <g id="open-book-(1)" transform="translate(96.000000, 144.000000)">
                    <path d="M17.9211987,0 C17.918239,0 17.9149094,0 17.9119497,0 C16.872734,0 15.8953015,0.40094274 15.1572327,1.12959667 C14.4110248,1.86630607 14,2.84724269 14,3.89152461 L14,62.244255 C14,64.3840809 15.7658158,66.1291888 17.936737,66.1346812 C27.0887902,66.1562845 42.4221236,68.0441939 53,79 L53,17.9322098 C53,17.2068513 52.8128006,16.5254317 52.4594895,15.9615488 C43.7776545,2.12371497 27.0939697,0.0212371497 17.9211987,0 Z" id="Shape"></path>
                    <path d="M96,62.2446212 L96,3.89152461 C96,2.84724269 95.5889713,1.86630607 94.8427563,1.12959667 C94.1046805,0.40094274 93.1264988,0 92.0883832,0 C92.0850535,0 92.0817238,0 92.0787641,0 C82.9062761,0.0216033075 66.222433,2.12408113 57.5401457,15.961915 C57.1868312,16.5257979 57,17.2072175 57,17.932576 L57,79 C67.5779768,68.0441939 82.9114556,66.1562845 92.0635957,66.1346812 C94.2341675,66.1291888 96,64.3840809 96,62.2446212 Z" id="Shape"></path>
                    <path d="M104.105739,14 L101.281611,14 L101.281611,62.3491042 C101.281611,67.763481 96.8262625,72.1785151 91.3495223,72.1919412 C83.6595839,72.2100847 70.9799629,73.6989386 62,82.1142467 C77.5308683,78.3491121 93.9031844,80.7966673 103.233873,82.9020366 C104.398926,83.1647541 105.602827,82.8933277 106.536262,82.1567025 C107.466399,81.4218916 108,80.3234854 108,79.1445222 L108,17.855852 C108.000366,15.7297992 106.25297,14 104.105739,14 Z" id="Shape"></path>
                    <path d="M6.71844227,62.3496882 L6.71844227,14 L3.89429236,14 C1.74741069,14 0,15.7298201 0,17.8558986 L0,79.1442205 C0,80.3235608 0.533605277,81.4216174 1.46374964,82.1564371 C2.39645942,82.8927084 3.59927021,83.1652267 4.76616527,82.9017802 C14.0969279,80.7960227 30.4697409,78.3488008 46,82.1139809 C37.0203321,73.6989339 24.34061,72.210425 16.6506103,72.1922813 C11.1741929,72.1792178 6.71844227,67.7641305 6.71844227,62.3496882 Z" id="Shape"></path>
                </g>
            </g>
        </g>
    </g>
</svg>