<?xml version="1.0" encoding="iso-8859-1"?>
<!-- Generator: Adobe Illustrator 16.0.0, SVG Export Plug-In . SVG Version: 6.00 Build 0)  -->
<!DOCTYPE svg PUBLIC "-//W3C//DTD SVG 1.1//EN" "http://www.w3.org/Graphics/SVG/1.1/DTD/svg11.dtd">
<svg version="1.1" id="Capa_1" xmlns="http://www.w3.org/2000/svg" xmlns:xlink="http://www.w3.org/1999/xlink" x="0px" y="0px"
	 width="60.264px" height="60.264px" viewBox="0 0 60.264 60.264" style="enable-background:new 0 0 60.264 60.264;"
	 xml:space="preserve">
<g>
	<path d="M49.988,0H28.964H13.782h-3.504C4.612,0,0,4.616,0,10.277v39.71c0,5.666,4.611,10.276,10.277,10.276h3.504h15.183h21.024
		c5.666,0,10.275-4.615,10.275-10.276v-39.71C60.264,4.611,55.654,0,49.988,0z M7.16,2.485c-2.217,1.89-3.653,4.66-3.653,7.792
		v0.525H1.871v-0.525C1.869,6.74,4.064,3.725,7.16,2.485z M1.869,49.052V37.783h1.636v11.269H1.869z M1.869,35.913V24.937h1.636
		v10.977H1.869z M1.869,23.066V12.673h1.636v10.393H1.869z M1.962,50.92h1.635c0.252,2.749,1.569,5.164,3.56,6.859
		C4.345,56.652,2.315,54.041,1.962,50.92z M5.466,50.92h3.247c0.433,2.039,2.245,3.577,4.41,3.577c2.488,0,4.511-2.025,4.511-4.515
		c0-2.49-2.022-4.517-4.511-4.517c-2.165,0-3.977,1.538-4.41,3.577h-3.34V37.774h3.343c0.432,2.039,2.245,3.577,4.411,3.577
		c2.487,0,4.51-2.026,4.51-4.513c0-2.488-2.022-4.514-4.51-4.514c-2.166,0-3.979,1.537-4.411,3.576H5.373V24.925h3.343
		c0.432,2.039,2.245,3.575,4.411,3.575c2.487,0,4.51-2.024,4.51-4.514c0-2.491-2.022-4.515-4.51-4.515
		c-2.166,0-3.979,1.536-4.411,3.576H5.373V12.655h3.343c0.432,2.039,2.245,3.576,4.411,3.576c2.487,0,4.51-2.024,4.51-4.512
		c0-2.488-2.022-4.513-4.51-4.513c-2.166,0-3.979,1.537-4.411,3.574H5.373v-0.502c0-4.634,3.773-8.409,8.409-8.409h6.073v56.527
		h-6.073C9.465,58.396,5.94,55.112,5.466,50.92z M10.67,49.052c0.381-0.994,1.326-1.701,2.452-1.701
		c1.458,0,2.643,1.182,2.643,2.642c0,1.455-1.188,2.641-2.643,2.641c-1.126,0-2.071-0.711-2.452-1.703h2.452v-1.878H10.67z
		 M10.67,35.913c0.381-0.995,1.326-1.702,2.452-1.702c1.458,0,2.643,1.182,2.643,2.642c0,1.456-1.188,2.642-2.643,2.642
		c-1.126,0-2.071-0.712-2.452-1.704h2.452v-1.87H10.67V35.913z M10.67,23.066c0.381-0.996,1.326-1.703,2.452-1.703
		c1.458,0,2.643,1.184,2.643,2.642c0,1.458-1.188,2.641-2.643,2.641c-1.126,0-2.071-0.711-2.452-1.703h2.452v-1.871H10.67V23.066z
		 M10.67,10.803C11.051,9.807,11.997,9.1,13.123,9.1c1.458,0,2.643,1.184,2.643,2.642s-1.188,2.642-2.643,2.642
		c-1.126,0-2.071-0.712-2.452-1.703h2.452v-1.87H10.67V10.803z M58.396,49.987c0,4.633-3.772,8.408-8.407,8.408H28.964h-7.241V1.868
		h7.241h21.024c4.633,0,8.407,3.768,8.407,8.409V49.987z M53.523,36.996H27.105v-1.87h26.418V36.996z M53.448,31.232h-26.34v-1.874
		h26.34V31.232z M53.523,42.766H27.105v-1.873h26.418V42.766z M27.433,17.497h1.015h3.058c1.109,0,1.953,0.26,2.533,0.777
		c0.574,0.521,0.866,1.279,0.866,2.273c0,1.049-0.292,1.848-0.866,2.387c-0.58,0.544-1.424,0.82-2.533,0.82
		c-0.785-0.004-1.465,0-2.04,0.014v3.461h-1.014h-1.023v-9.733H27.433z M29.464,22.077h1.698c0.568,0,0.996-0.123,1.283-0.375
		c0.282-0.248,0.426-0.633,0.426-1.135c0-0.466-0.144-0.813-0.426-1.045c-0.287-0.234-0.718-0.346-1.283-0.346h-1.698V22.077z
		 M36.475,17.497h1.018h3.152c1.337,0,2.354,0.392,3.055,1.18c0.693,0.785,1.038,1.936,1.038,3.453c0,1.667-0.358,2.936-1.082,3.802
		c-0.725,0.869-1.783,1.303-3.173,1.303H37.49h-1.016V17.497L36.475,17.497z M38.51,25.554h1.713c0.828,0,1.441-0.278,1.859-0.832
		c0.41-0.561,0.62-1.399,0.62-2.514c0-1.014-0.196-1.77-0.579-2.278c-0.379-0.506-0.958-0.756-1.729-0.756H38.51V25.554z
		 M46.274,27.23v-9.733h6.925v0.862v0.867h-4.897v2.209h4.266v0.832v0.842h-4.266v4.117h-1.013L46.274,27.23L46.274,27.23z"/>
</g>
<g>
</g>
<g>
</g>
<g>
</g>
<g>
</g>
<g>
</g>
<g>
</g>
<g>
</g>
<g>
</g>
<g>
</g>
<g>
</g>
<g>
</g>
<g>
</g>
<g>
</g>
<g>
</g>
<g>
</g>
</svg>
