<?xml version="1.0" encoding="UTF-8"?>
<svg width="23px" height="24px" viewBox="0 0 23 24" version="1.1" xmlns="http://www.w3.org/2000/svg" xmlns:xlink="http://www.w3.org/1999/xlink">
    <!-- Generator: Sketch 49 (51002) - http://www.bohemiancoding.com/sketch -->
    <title>Icon</title>
    <desc>Created with Sketch.</desc>
    <defs></defs>
    <g id="Steps" stroke="none" stroke-width="1" fill="none" fill-rule="evenodd">
        <g id="Statistical-analysis-1-Copy" transform="translate(-80.000000, -1397.000000)" fill="#5B5B5B" fill-rule="nonzero">
            <g id="Resources" transform="translate(80.000000, 1395.000000)">
                <g id="Title_general">
                    <path d="M17.7554575,14.700469 L17.7554575,3.92921379 L1.94903302,3.92921379 L1.94903302,24.0249379 L9.21996226,24.0249379 C9.74158491,24.0249379 10.1683325,24.4589793 10.1683325,24.9895172 C10.1683325,25.5200552 9.74158491,25.9540966 9.21996226,25.9540966 L1.00060849,25.9540966 C0.478985849,25.9540966 0.0522382075,25.5200552 0.0522382075,24.9895172 L0.0522382075,2.96457931 C0.0522382075,2.43404138 0.479040094,2 1.00060849,2 L18.7037736,2 C19.2253962,2 19.6521439,2.43404138 19.6521439,2.96457931 L19.6521439,14.700469 C19.6521439,15.2310069 19.2253962,15.6650483 18.7037736,15.6650483 C18.1821509,15.6650483 17.7554575,15.2310069 17.7554575,14.700469 Z M22.6396486,17.047669 C22.2444717,16.6939586 21.6438679,16.7261241 21.2961014,17.1280552 L16.0957689,23.0120828 L13.4877099,20.4558897 C13.1083726,20.0861241 12.5077146,20.1021793 12.1441627,20.4880552 C11.7806108,20.873931 11.7963962,21.4848 12.1757877,21.8545655 L15.4951108,25.1020138 C15.668967,25.2788414 15.9060731,25.3753379 16.1589646,25.3753379 C16.17475,25.3753379 16.17475,25.3753379 16.1905896,25.3753379 C16.4434811,25.3592828 16.6963726,25.246731 16.8544434,25.0537931 L22.7028443,18.4302345 C23.0663962,18.0122483 23.0347712,17.4013793 22.6396486,17.047669 Z M14.2780094,7.62681379 L5.7425684,7.62681379 C5.22094575,7.62681379 4.79419811,8.06085517 4.79419811,8.5913931 C4.79419811,9.12193103 5.22094575,9.55597241 5.7425684,9.55597241 L14.2780094,9.55597241 C14.7996321,9.55597241 15.2263797,9.12193103 15.2263797,8.5913931 C15.2263797,8.06085517 14.7996321,7.62681379 14.2780094,7.62681379 Z M15.226434,13.8966621 C15.226434,13.3661241 14.7996863,12.9320828 14.2780637,12.9320828 L5.7425684,12.9320828 C5.22094575,12.9320828 4.79419811,13.3661241 4.79419811,13.8966621 C4.79419811,14.4272 5.22094575,14.8612414 5.7425684,14.8612414 L14.2780094,14.8612414 C14.7996321,14.8612414 15.226434,14.4272 15.226434,13.8966621 Z M5.7425684,18.0765793 C5.22094575,18.0765793 4.79419811,18.5106207 4.79419811,19.0411586 C4.79419811,19.5716966 5.22094575,20.0057379 5.7425684,20.0057379 L8.27159198,20.0057379 C8.79321462,20.0057379 9.21996226,19.5716966 9.21996226,19.0411586 C9.21996226,18.5106207 8.79321462,18.0765793 8.27159198,18.0765793 L5.7425684,18.0765793 Z" id="Icon"></path>
                </g>
            </g>
        </g>
    </g>
</svg>