<?xml version="1.0" encoding="UTF-8"?>
<svg width="38px" height="38px" viewBox="0 0 38 38" version="1.1" xmlns="http://www.w3.org/2000/svg" xmlns:xlink="http://www.w3.org/1999/xlink">
    <!-- Generator: Sketch 48.2 (47327) - http://www.bohemiancoding.com/sketch -->
    <title>settings</title>
    <desc>Created with Sketch.</desc>
    <defs></defs>
    <g id="Home_aliens" stroke="none" stroke-width="1" fill="none" fill-rule="evenodd" transform="translate(-627.000000, -978.000000)">
        <g id="Why-standards-?" transform="translate(120.000000, 690.000000)" fill="#656565" fill-rule="nonzero">
            <g id="Text" transform="translate(500.000000, 78.000000)">
                <g id="settings" transform="translate(7.000000, 210.000000)">
                    <path d="M18.77009,22.5343159 C18.4635433,22.2255707 17.9651838,22.2271293 17.6586371,22.5343159 C16.9921191,23.2040554 16.5943453,24.0732918 16.5188877,25.0090272 C15.6920222,25.9083217 12.4410061,29.4422665 6.83989684,35.5316714 C5.71591685,36.6637865 3.70523581,36.6574038 2.60012023,35.5443626 L2.45237357,35.3891736 C1.88489373,34.8176239 1.57200977,34.0591944 1.57200977,33.2453985 C1.57200977,32.4489695 1.89270478,31.6684231 2.42407695,31.1348729 L13.0290451,21.498832 C13.9581174,21.4260246 14.8243329,21.025398 15.4908509,20.3525414 C15.7973976,20.0422376 15.7973976,19.5403041 15.4908509,19.2315589 C15.1843042,18.9228137 14.6859448,18.9228137 14.3793981,19.2315589 C13.9329158,19.6796105 13.3418554,19.9266066 12.7146137,19.9266066 C12.7130662,19.9266066 12.7130662,19.9266066 12.7114451,19.9266066 C12.5165374,19.9266066 12.3294407,19.9994141 12.184789,20.1308534 L1.34092073,29.9869494 C0.488853553,30.8434946 0,32.0309761 0,33.2501484 C0,34.4803792 0.476326404,35.6378025 1.32839358,36.4959063 L1.47459277,36.6494625 C2.32665994,37.5076405 3.5056857,38 4.71610301,38 C5.93757369,38 7.08675535,37.5202575 7.97176156,36.62883 C7.97176156,36.62883 17.7057982,26.0459954 17.862977,25.8781894 C17.999744,25.7309417 18.0783703,25.5346362 18.0783703,25.3335065 C18.0783703,24.698575 18.3236077,24.1032757 18.77009,23.6552241 C19.0766367,23.3449946 19.0766367,22.8446196 18.77009,22.5343159 Z" id="Shape"></path>
                    <path d="M37.7630284,1.85504832 L36.1457912,0.238087718 C35.8999536,-0.00931111983 35.5247916,-0.0707818482 35.2126998,0.0861163117 L28.7439788,3.32011331 C28.4706995,3.45753184 28.2976353,3.73729567 28.2976353,4.04290599 L28.2976353,6.13366872 L19.2365135,15.1951817 C18.9211622,15.510494 18.9211622,16.0231038 19.2365135,16.338416 C19.5518649,16.6537282 20.0645383,16.6537282 20.3798897,16.338416 L29.6786621,7.040722 C29.8290604,6.88875059 29.9147966,6.68334285 29.9147966,6.468309 L29.9147966,4.54247883 L35.4148734,1.79357759 L36.2072696,2.5858754 L33.4580271,8.0852696 L31.5319579,8.0852696 C31.3168974,8.0852696 31.1114641,8.17099512 30.9594738,8.32296652 L21.6607015,17.6206605 C21.3453501,17.9359728 21.3453501,18.4485826 21.6607015,18.7638948 C21.8192111,18.9207172 22.0261604,19 22.2331856,19 C22.4402107,19 22.6471601,18.920793 22.8040777,18.7638948 L31.8667913,9.702306 L33.9578136,9.702306 C34.2634619,9.702306 34.5432604,9.52926325 34.680696,9.2560179 L37.9150944,2.7880997 C38.0702685,2.47763841 38.0087902,2.10085544 37.7630284,1.85504832 Z" id="Shape"></path>
                    <path d="M36.7791784,31.8897912 L16.0755314,11.7495408 C15.5245326,11.2143427 15.2695917,10.4337744 15.3930914,9.65795621 C15.8506491,6.77147891 15.0669007,4.22233003 13.1241549,2.28111449 C11.6089081,0.769037095 9.70260364,-0.0337228863 7.74872502,0.00108614024 C6.01497873,0.0390866127 4.36042369,0.655035677 2.96704386,1.77916684 C2.76435289,1.94066885 2.65673593,2.19086337 2.67254449,2.44892517 C2.69154445,2.70698697 2.83404415,2.93973987 3.05729367,3.07274152 L7.89434189,5.97658622 C7.7518422,7.43010429 6.89209404,8.70787018 5.57478827,9.38868723 L1.24450459,6.79047915 C1.0022551,6.64478593 0.669755818,6.65591888 0.425947747,6.79047915 C0.185256856,6.92192219 0.0301400014,7.16729243 0.0142572229,7.43967863 C-0.115551092,9.64526464 0.644447278,11.7432321 2.15494404,13.3471935 C3.64644084,14.9274045 5.74593634,15.833033 7.91668169,15.833033 C8.26973952,15.833033 8.78437123,15.7380318 9.53486962,15.5369707 C10.3661178,15.3121593 11.2511745,15.5591624 11.8496733,16.1734786 L31.8993803,36.7839849 C32.6831286,37.5693032 33.7249349,38 34.8333154,38 C36.579753,38 38,36.5797323 38,34.8317106 C37.9999258,33.7406814 37.5581767,32.6703595 36.7791784,31.8897912 Z M34.8332412,36.4165975 C34.147684,36.4165975 33.503244,36.1505942 33.0266864,35.6723968 L12.9848466,15.0698321 C12.2295982,14.2940138 11.2020418,13.8728172 10.1491027,13.8728172 C9.80710341,13.8728172 9.46354556,13.9171264 9.12466347,14.0073775 C8.31241521,14.2258802 8.00997446,14.2496305 7.91660747,14.2496305 C6.15436125,14.2496305 4.51880616,13.5434303 3.30755876,12.2593557 C2.41300208,11.3093439 1.84612048,10.142388 1.6545623,8.88206375 L5.13474624,10.9705311 C5.36430435,11.1082828 5.65249513,11.1193416 5.89630321,10.9990315 L6.23036108,10.8327794 C8.24754816,9.82420827 9.49991267,7.79593306 9.49991267,5.54121362 C9.49991267,5.26251874 9.35422157,5.00601556 9.11516349,4.86195517 L4.93517245,2.3554826 C5.81874478,1.86941796 6.7845513,1.60653188 7.78204916,1.58441442 C9.37010435,1.55272262 10.7982927,2.19873065 12.0032315,3.40368704 C13.5944781,4.99176538 14.2056682,7.01373192 13.825669,9.41251175 C13.622978,10.6950277 14.0504771,11.9933524 14.968858,12.8863635 L35.6644894,33.0186724 C36.1489883,33.5031785 36.4165464,34.1476279 36.4165464,34.833195 C36.4165464,35.7056473 35.7072393,36.4165975 34.8332412,36.4165975 Z" id="Shape"></path>
                </g>
            </g>
        </g>
    </g>
</svg>