<?xml version="1.0" encoding="UTF-8"?>
<svg width="89px" height="94px" viewBox="0 0 89 94" version="1.1" xmlns="http://www.w3.org/2000/svg" xmlns:xlink="http://www.w3.org/1999/xlink">
    <!-- Generator: Sketch 49 (51002) - http://www.bohemiancoding.com/sketch -->
    <title>3d-printer-square-window-symbol</title>
    <desc>Created with Sketch.</desc>
    <defs></defs>
    <g id="Glossary" stroke="none" stroke-width="1" fill="none" fill-rule="evenodd">
        <g transform="translate(-926.000000, -397.000000)" fill="#FFFFFF" fill-rule="nonzero" id="Techniques">
            <g transform="translate(820.000000, 259.000000)">
                <g id="3d-printer-square-window-symbol" transform="translate(106.000000, 138.000000)">
                    <path d="M31,22.4990916 C31,24.4321308 32.3411215,26 34,26 L34,19 C32.3411215,19.0018168 31,20.5678692 31,22.4990916 Z" id="Shape"></path>
                    <path d="M57,22.4990908 C57,20.5678688 55.6588785,19 54,19 L54,26 C55.6588785,26.0018152 57,24.4339463 57,22.4990908 Z" id="Shape"></path>
                    <path d="M84.5721393,0 L4.4278607,0 C1.98545274,0 0,1.97270481 0,4.39943088 L0,89.6005691 C0,92.0272952 1.98545274,94 4.4278607,94 L84.5721393,94 C87.0145473,94 89,92.0272952 89,89.6005691 L89,4.39943088 C89,1.97270481 87.0145473,0 84.5721393,0 Z M30.947204,86.1250187 C30.947204,87.0964131 30.1537313,87.8847911 29.1760597,87.8847911 L13.306607,87.8847911 C12.3271642,87.8847911 11.5354627,87.0964131 11.5354627,86.1250187 L11.5354627,79.0859293 C11.5354627,78.1127752 12.3271642,77.326157 13.306607,77.326157 L29.1760597,77.326157 C30.1537313,77.326157 30.947204,78.1127752 30.947204,79.0859293 L30.947204,86.1250187 Z M70.181592,75.8162723 L64.4253731,75.8162723 L64.4253731,74.0564999 L70.181592,74.0564999 L70.181592,75.8162723 Z M78.5945274,75.8162723 L72.8383085,75.8162723 L72.8383085,74.0564999 L78.5945274,74.0564999 L78.5945274,75.8162723 Z M83.6865672,71.4537966 L5.31343284,71.4537966 L5.31343284,17.9232814 L35.5929154,17.9232814 L35.5929154,37.6732065 L41.6218905,37.6732065 L41.6218905,41.2596226 C41.6218905,41.7752359 41.7688955,42.2521342 42.0062289,42.67096 C41.9371542,43.1443388 41.8875622,43.6353153 41.8875622,44.1544481 C41.8875622,47.0633518 44.537194,49.4214468 44.537194,49.4214468 C44.537194,49.4214468 47.188597,47.0633518 47.188597,44.1544481 C47.188597,43.6335555 47.1372338,43.1408192 47.0681592,42.6656807 C47.3054925,42.2468549 47.4507264,41.7717163 47.4507264,41.2578628 L47.4507264,37.6714468 L53.4814726,37.6714468 L53.4814726,17.9232814 L83.6901095,17.9232814 L83.6865672,71.4537966 Z M83.6865672,15.2220309 L53.4797015,15.2220309 L53.4797015,10.250674 L35.5911443,10.250674 L35.5911443,15.2220309 L5.31343284,15.2220309 L5.31343284,5.27931706 L83.6865672,5.27931706 L83.6865672,15.2220309 Z" id="Shape"></path>
                </g>
            </g>
        </g>
    </g>
</svg>