<?xml version="1.0" encoding="UTF-8"?>
<svg width="74px" height="74px" viewBox="0 0 74 74" version="1.1" xmlns="http://www.w3.org/2000/svg" xmlns:xlink="http://www.w3.org/1999/xlink">
    <!-- Generator: Sketch 49 (51002) - http://www.bohemiancoding.com/sketch -->
    <title>icon</title>
    <desc>Created with Sketch.</desc>
    <defs></defs>
    <g id="Steps" stroke="none" stroke-width="1" fill="none" fill-rule="evenodd">
        <g id="Statistical-analysis-1-Copy" transform="translate(-81.000000, -1983.000000)" fill-rule="nonzero">
            <g id="Resources" transform="translate(80.000000, 1395.000000)">
                <g id="Resource-4" transform="translate(1.000000, 588.000000)">
                    <g id="icon">
                        <rect id="Rectangle-path" fill="#ECF0F1" x="0" y="0" width="74" height="74"></rect>
                        <rect id="Rectangle-path" fill="#546A79" x="0" y="0" width="74" height="15.2054795"></rect>
                        <circle id="Oval" fill="#ED7161" cx="8.10958904" cy="8.10958904" r="4.05479452"></circle>
                        <circle id="Oval" fill="#F0C419" cx="19.260274" cy="8.10958904" r="4.05479452"></circle>
                        <circle id="Oval" fill="#4FBA6F" cx="30.4109589" cy="8.10958904" r="4.05479452"></circle>
                        <rect id="Rectangle-path" fill="#FFFFFF" x="7.09589041" y="21.2876712" width="52.7123288" height="8.10958904"></rect>
                        <rect id="Rectangle-path" fill="#95A5A5" x="58.7945205" y="21.2876712" width="9.12328767" height="8.10958904"></rect>
                        <path d="M49.4029009,43.5890411 L8.37792103,43.5890411 C7.67024013,43.5890411 7.09589041,43.1349041 7.09589041,42.5753425 C7.09589041,42.0157808 7.67024013,41.5616438 8.37792103,41.5616438 L49.4029009,41.5616438 C50.1105818,41.5616438 50.6849315,42.0157808 50.6849315,42.5753425 C50.6849315,43.1349041 50.1105818,43.5890411 49.4029009,43.5890411 Z" id="Shape" fill="#BDC3C7"></path>
                        <path d="M49.4029009,47.6438356 L8.37792103,47.6438356 C7.67024013,47.6438356 7.09589041,47.1896986 7.09589041,46.630137 C7.09589041,46.0705753 7.67024013,45.6164384 8.37792103,45.6164384 L49.4029009,45.6164384 C50.1105818,45.6164384 50.6849315,46.0705753 50.6849315,46.630137 C50.6849315,47.1896986 50.1105818,47.6438356 49.4029009,47.6438356 Z" id="Shape" fill="#BDC3C7"></path>
                        <path d="M36.239726,37.5068493 L8.3630137,37.5068493 C7.66356164,37.5068493 7.09589041,37.0527123 7.09589041,36.4931507 C7.09589041,35.933589 7.66356164,35.4794521 8.3630137,35.4794521 L36.239726,35.4794521 C36.9391781,35.4794521 37.5068493,35.933589 37.5068493,36.4931507 C37.5068493,37.0527123 36.9391781,37.5068493 36.239726,37.5068493 Z" id="Shape" fill="#0096E6"></path>
                        <path d="M49.4029009,61.8356164 L8.37792103,61.8356164 C7.67024013,61.8356164 7.09589041,61.3814795 7.09589041,60.8219178 C7.09589041,60.2623562 7.67024013,59.8082192 8.37792103,59.8082192 L49.4029009,59.8082192 C50.1105818,59.8082192 50.6849315,60.2623562 50.6849315,60.8219178 C50.6849315,61.3814795 50.1105818,61.8356164 49.4029009,61.8356164 Z" id="Shape" fill="#BDC3C7"></path>
                        <path d="M49.4029009,66.9041096 L8.37792103,66.9041096 C7.67024013,66.9041096 7.09589041,66.4499726 7.09589041,65.890411 C7.09589041,65.3308493 7.67024013,64.8767123 8.37792103,64.8767123 L49.4029009,64.8767123 C50.1105818,64.8767123 50.6849315,65.3308493 50.6849315,65.890411 C50.6849315,66.4499726 50.1105818,66.9041096 49.4029009,66.9041096 Z" id="Shape" fill="#BDC3C7"></path>
                        <path d="M36.239726,57.7808219 L8.3630137,57.7808219 C7.66356164,57.7808219 7.09589041,57.3266849 7.09589041,56.7671233 C7.09589041,56.2075616 7.66356164,55.7534247 8.3630137,55.7534247 L36.239726,55.7534247 C36.9391781,55.7534247 37.5068493,56.2075616 37.5068493,56.7671233 C37.5068493,57.3266849 36.9391781,57.7808219 36.239726,57.7808219 Z" id="Shape" fill="#0096E6"></path>
                    </g>
                </g>
            </g>
        </g>
    </g>
</svg>